<?xml version="1.0" encoding="UTF-8"?>
<svg width="22px" height="22px" viewBox="0 0 22 22" version="1.1" xmlns="http://www.w3.org/2000/svg" xmlns:xlink="http://www.w3.org/1999/xlink">
    <!-- Generator: Sketch 59.1 (86144) - https://sketch.com -->
    <title>acumulado copy 2</title>
    <desc>Created with Sketch.</desc>
    <defs>
        <polygon id="path-1" points="0 20.3762057 21.9952763 20.3762057 21.9952763 21.9847084 0 21.9847084"></polygon>
    </defs>
    <g id="Dashboards" stroke="none" stroke-width="1" fill="none" fill-rule="evenodd">
        <g id="Astillado" transform="translate(-752.000000, -890.000000)">
            <g id="Group-5" transform="translate(729.000000, 867.000000)">
                <g id="acumulado" transform="translate(23.000000, 23.000000)">
                    <path d="M12.9714059,13.516138 C12.9714059,15.1445963 12.9710041,16.7730037 12.971607,18.401462 C12.9718078,19.026425 12.8203694,19.1784898 12.1990452,19.1773756 C11.3290909,19.1756889 10.4590863,19.1760454 9.58913196,19.1747722 C9.07996758,19.1740593 8.89422329,18.9786565 8.89362055,18.4403185 C8.8924653,17.4395731 8.89251553,16.4387769 8.89286712,15.4379806 C8.89367078,13.2159296 8.89467534,10.9938787 8.89663425,8.77182778 C8.8967347,8.64486944 8.89663425,8.51658704 8.91356119,8.39125833 C8.95299041,8.09986019 9.12236027,7.92080463 9.41232831,7.91769815 C10.4243785,7.9068 11.4366297,7.90435556 12.4486799,7.9162213 C12.7963603,7.92029537 12.9682416,8.14253611 12.9685932,8.52916574 C12.9704014,10.1914898 12.9693968,11.8538139 12.9693968,13.516138 L12.9714059,13.516138 Z" id="Fill-1" fill="#6E6E6E" fill-rule="evenodd"></path>
                    <g id="Group-5" stroke-width="1" fill-rule="evenodd" transform="translate(0.000000, 20.355093)"></g>
                    <path d="M19.7006668,10.8840519 C19.7063041,11.2295333 19.4345689,11.4479546 18.9561945,11.3251213 C17.9995461,11.0794546 17.0443543,10.8279315 16.0867014,10.5863389 C15.8563041,10.5282324 15.6806557,10.4221537 15.6282676,10.1756722 C15.5777379,9.93784815 15.697432,9.77106574 15.8702174,9.62811667 C16.0906192,9.44585278 16.3023315,9.25258889 16.5257973,9.07445 C16.6300712,8.99138981 16.6359982,8.93598241 16.5467927,8.83239907 C15.30319,7.3889037 14.0637059,5.94174167 12.8232174,4.49554722 C12.0381991,3.58040833 11.2498155,2.668325 10.4712265,1.74768611 C10.3359114,1.58762593 10.2549434,1.5905287 10.0947653,1.72339444 C8.60534521,2.9586537 7.10748676,4.18347315 5.61153699,5.41073704 C5.433779,5.55663981 5.24793425,5.69317222 5.0010621,5.6546213 C4.72033607,5.61072315 4.52233607,5.4584037 4.44855068,5.17046852 C4.37526758,4.88451944 4.46994795,4.65229722 4.69070137,4.47120463 C5.38018539,3.90572315 6.07268311,3.34395926 6.76196621,2.77822315 C7.79591598,1.92959352 8.82946393,1.08050556 9.86050046,0.228209259 C10.2670986,-0.107952778 10.6300986,-0.0715916667 10.9730575,0.330162963 C12.1663817,1.72807963 13.3653817,3.12105648 14.5615187,4.5165287 C15.5162082,5.63032963 16.4707973,6.74423241 17.4232767,7.85996852 C17.6522676,8.12814444 17.6474457,8.13058889 17.9101397,7.90473241 C18.146263,7.70169074 18.3825872,7.49895463 18.6223772,7.30054722 C18.7858703,7.16528796 18.967295,7.08676019 19.1792584,7.18061667 C19.385747,7.27213056 19.4788201,7.44828333 19.4932858,7.66476944 C19.5617973,8.68776944 19.6255872,9.711075 19.7006668,10.8840519" id="Fill-6" fill="#6E6E6E" fill-rule="evenodd"></path>
                    <path d="M3.00182466,15.071319 C3.00197534,13.9180505 3.00127215,12.7647819 3.00232694,11.6115134 C3.002779,11.1561338 3.16587032,10.9800319 3.62129041,10.9762125 C4.54955982,10.9685227 5.47803014,10.9665875 6.40629954,10.9745829 C6.88698447,10.9787079 7.04565571,11.155981 7.04580639,11.6440551 C7.04640913,13.9336338 7.0470621,16.2232125 7.04570594,18.5127403 C7.04540457,19.0006106 6.87965114,19.1720782 6.39846393,19.1741153 C5.47014429,19.1781894 4.5417242,19.1775273 3.61340457,19.1735042 C3.17280183,19.171569 3.00358265,18.999694 3.00257808,18.5565366 C2.99986575,17.3947634 3.00167397,16.2330412 3.00182466,15.071319" id="Fill-8" fill="#6E6E6E" fill-rule="evenodd"></path>
                    <path d="M18.8941274,16.9038069 C18.8941274,17.446881 18.8961868,17.9899551 18.8934744,18.5330292 C18.8912644,18.9687005 18.6901,19.175256 18.262205,19.1761727 C17.3165064,19.1783625 16.3707575,19.1773795 15.4250589,19.1746958 C15.031068,19.1735245 14.8182005,18.9654921 14.8165429,18.5612421 C14.8120224,17.4411773 14.8122735,16.3211125 14.8190041,15.2010477 C14.821616,14.7643579 15.010374,14.5798532 15.4356571,14.5785292 C16.3813557,14.5754736 17.3270543,14.5755755 18.2728032,14.5784782 C18.7007986,14.5797514 18.8866434,14.7653255 18.890511,15.1982977 C18.895584,15.7667329 18.8917667,16.3353208 18.8917667,16.9038069 L18.8941274,16.9038069 Z" id="Fill-10" fill="#6E6E6E" fill-rule="evenodd"></path>
                    <mask id="mask-2" fill="white">
                        <use xlink:href="#path-1"></use>
                    </mask>
                    <g id="Clip-4"></g>
                    <path d="M10.9992365,20.3768176 C14.3717662,20.376512 17.7442959,20.3760537 21.1167753,20.3770213 C21.6307114,20.3771741 21.9972274,20.7177157 21.9952763,21.1852667 C21.9932594,21.6515444 21.6291041,21.9841417 21.1113005,21.9841926 C14.3662411,21.9849056 7.62118174,21.9848546 0.876122374,21.9841926 C0.452446575,21.9841417 0.160117808,21.7864981 0.0401726027,21.4281833 C-0.0688730594,21.1021046 0.0487616438,20.7513269 0.336017352,20.525063 C0.522364384,20.3782944 0.737944292,20.3761556 0.957140639,20.3762057 C3.70196712,20.3770213 6.44679361,20.3769704 9.19162009,20.3770722 C9.7941589,20.3771231 10.3966977,20.3770722 10.9992365,20.3768176" id="Fill-3" fill="#6E6E6E" fill-rule="evenodd" mask="url(#mask-2)"></path>
                </g>
            </g>
        </g>
    </g>
</svg>