<?xml version="1.0" encoding="UTF-8"?>
<svg width="42px" height="42px" viewBox="0 0 42 42" version="1.1" xmlns="http://www.w3.org/2000/svg" xmlns:xlink="http://www.w3.org/1999/xlink">
    <!-- Generator: Sketch 59.1 (86144) - https://sketch.com -->
    <title>down white copy 3</title>
    <desc>Created with Sketch.</desc>
    <g id="Dashboards" stroke="none" stroke-width="1" fill="none" fill-rule="evenodd" fill-opacity="0.5">
        <g id="Consumo-Digestor" transform="translate(-111.000000, -252.000000)" fill="#000000">
            <g id="Group-5" transform="translate(80.000000, 215.000000)">
                <g id="Group-3">
                    <g id="up-white" transform="translate(31.000000, 37.000000)">
                        <path d="M9.93332813,19.5454219 C9.90240234,20.3270156 10.2161719,21.0041836 10.7821055,21.5707734 C14.0453906,24.8384063 17.3110547,28.1037422 20.5769648,31.36875 C20.9949961,31.7866992 21.0050859,31.7848125 21.417293,31.3726875 C24.6448125,28.1459883 27.8720039,24.9188789 31.0985391,21.6912773 C31.2143672,21.5754492 31.3302773,21.4583906 31.434375,21.3323086 C32.5385156,19.994707 32.1973477,17.9494219 30.7212773,17.0445352 C29.5375664,16.3189688 28.1270391,16.4808164 27.1133789,17.4870938 C25.2029531,19.3834102 23.3044219,21.2917852 21.4003125,23.194582 C20.9979492,23.5966992 20.997293,23.5949766 20.6020664,23.1995859 C18.6986953,21.2962969 16.7975391,19.390957 14.8907227,17.4911953 C13.9986328,16.6024688 12.7614375,16.3640859 11.6413008,16.8482344 C10.5782578,17.3077734 9.92348438,18.3284883 9.93332813,19.5454219 M0,22.7226562 L0,19.359375 C0.0194414062,19.2524883 0.0468398437,19.1463398 0.0570117187,19.0385508 C0.388417969,15.5157187 1.51175391,12.266625 3.49748437,9.33810937 C6.60564844,4.75436719 10.8624141,1.80583594 16.251293,0.501457031 C17.2746328,0.253722656 18.3194648,0.143144531 19.359375,0 L22.640625,0 C22.7201953,0.0178828125 22.7989453,0.0454453125 22.879418,0.0522539062 C24.9626836,0.229441406 26.9833594,0.6864375 28.9042031,1.51085156 C35.5840078,4.37767969 39.794918,9.34869141 41.530125,16.4117461 C41.7683437,17.3814375 41.8562813,18.3747539 42,19.359375 L42,22.7226562 C41.9289609,23.2218164 41.8625977,23.7216328 41.7862266,24.2198906 C40.4482969,32.9378437 33.7456875,39.9379805 25.1060742,41.6293828 C24.3176719,41.7836836 23.517457,41.8778555 22.7226563,42 L19.2773438,42 C19.1980195,41.981625 19.1195156,41.9538164 19.039207,41.9461055 C15.183082,41.5777852 11.6815781,40.2647109 8.56578516,37.9632422 C4.65002344,35.0709844 2.03995312,31.2672773 0.709734375,26.583293 C0.3504375,25.318125 0.176613281,24.0205547 0,22.7226562" id="Fill-1" transform="translate(21.000000, 21.000000) scale(1, -1) translate(-21.000000, -21.000000) "></path>
                    </g>
                </g>
            </g>
        </g>
    </g>
</svg>