<?xml version="1.0" encoding="UTF-8"?>
<svg width="40px" height="25px" viewBox="0 0 40 25" version="1.1" xmlns="http://www.w3.org/2000/svg" xmlns:xlink="http://www.w3.org/1999/xlink">
    <!-- Generator: Sketch 59.1 (86144) - https://sketch.com -->
    <title>wood gray</title>
    <desc>Created with Sketch.</desc>
    <g id="Dashboards" stroke="none" stroke-width="1" fill="none" fill-rule="evenodd">
        <g id="Astillado" transform="translate(-94.000000, -895.000000)" fill="#6E6E6E">
            <g id="Group-14" transform="translate(80.000000, 867.000000)">
                <g id="wood-gray" transform="translate(14.000000, 28.000000)">
                    <path d="M17.1897922,17.1483179 C16.8029957,17.1483179 16.5123933,17.145463 16.2218686,17.1497068 C16.1059385,17.1514043 16.0179031,17.1649074 16.1016649,17.3289506 C16.3942876,17.9023302 16.5537304,17.9279475 16.9532698,17.4442284 C17.0089815,17.3766358 17.0627508,17.3074228 17.1897922,17.1483179 M17.1818667,23.6595062 C16.9988027,23.4146759 16.8720721,23.2427623 16.7424665,23.0730864 C16.6733125,22.9825 16.5843446,22.8478549 16.4760292,22.9916049 C16.3285524,23.1875154 16.0996447,23.3378241 16.0779602,23.6105864 C16.0770337,23.6223148 16.188224,23.6561883 16.2476654,23.6571914 C16.5277782,23.662284 16.808124,23.6595062 17.1818667,23.6595062 M8.61803162,23.6706173 C8.78648777,23.6039506 9.0068483,23.7645988 9.12969386,23.5478549 C9.16396008,23.487284 8.6694698,22.9250926 8.60272449,22.9294136 C8.54452631,22.9331944 8.08655558,23.4866667 8.11398409,23.5401389 C8.23131287,23.7688426 8.4519065,23.6087346 8.61803162,23.6706173 M5.36607899,12.4904475 C5.36367329,14.301713 6.79547285,15.7353549 8.60427851,15.7325043 C10.4577623,15.7296451 11.8742548,14.3271759 11.8806463,12.4886728 C11.8868424,10.6919907 10.4450971,9.26621914 8.62214978,9.26621914 C6.79764848,9.26621914 5.36856846,10.6813426 5.36607899,12.4904475 M15.852555,4.60487654 C15.827846,2.75472222 14.3991545,1.34299383 12.5715451,1.36274691 C10.7115344,1.3828858 9.32091645,2.83628086 9.34220657,4.73782407 C9.36163187,6.46776235 10.8644503,7.86760802 12.6837456,7.85032407 C14.4231641,7.83373457 15.8757876,6.34592593 15.852555,4.60487654 M1.39594047,20.3725463 C1.35452574,22.149321 2.7930853,23.6169907 4.61206982,23.653642 C6.31869843,23.6879012 7.86821527,22.2297994 7.90908609,20.55125 C7.95384197,18.7105093 6.57526772,17.1965432 4.81269425,17.1508642 C2.8853166,17.1009414 1.44046324,18.4633642 1.39594047,20.3725463 M15.8552748,20.4188426 C15.8559738,18.6046451 14.4269715,17.1505556 12.6415539,17.1487016 C10.7611077,17.1466975 9.33808841,18.5678395 9.33700007,20.448858 C9.33599048,22.1892901 10.8026779,23.6318827 12.595244,23.6537191 C14.3788745,23.6754012 15.8545752,22.2110494 15.8552748,20.4188426 M16.5586255,15.7308025 C18.4316124,15.7139043 19.8686956,14.2859722 19.8594935,12.450787 C19.8505912,10.6690741 18.3493268,9.24669753 16.4990287,9.26691358 C14.7221583,9.28635802 13.2915242,10.7482407 13.306132,12.5295679 C13.3207399,14.3090432 14.7814443,15.7467747 16.5586255,15.7308025 M23.8328684,20.4149846 C23.8381379,18.632037 22.3715282,17.151713 20.5960563,17.1478467 C18.7559371,17.1438426 17.2723108,18.6024846 17.2737861,20.4141358 C17.2751858,22.1694599 18.7801798,23.6558796 20.5544085,23.6541836 C22.3388937,23.6525617 23.8276482,22.1816512 23.8328684,20.4149846 M16.0563651,7.77640432 C16.134144,7.88018519 16.2327468,7.85155864 16.3179073,7.85155864 C19.5285199,7.85263889 22.7391324,7.8578858 25.9496673,7.84608025 C26.7273784,7.84322531 27.4167432,7.55919753 28.0015999,7.04469136 C28.1026115,6.95572531 28.2885504,6.87694444 28.2305076,6.72385802 C28.1714547,6.56830247 27.9787558,6.63674383 27.8447213,6.63651235 C26.2135405,6.63358025 24.5824374,6.63574074 22.9511789,6.63790123 C22.7430952,6.63813272 22.5347783,6.63358025 22.3366403,6.5670679 C22.0357814,6.46606481 21.8564471,6.24993827 21.8541937,5.9362037 C21.8519404,5.60881173 22.0246701,5.36915123 22.3461199,5.2729321 C22.4912657,5.22949074 22.6524956,5.22632716 22.8064216,5.22617284 C24.5671303,5.22416667 26.3277612,5.22648148 28.0885476,5.22733025 C29.1797052,5.22787037 29.3020068,5.07285494 29.0695249,3.98597222 C28.7301262,2.39955247 27.4332158,1.35734568 25.7483436,1.34137346 C24.3891169,1.32848765 23.0297348,1.33898148 21.6703528,1.33882716 C19.9226202,1.33867284 18.17481,1.33682099 16.4270774,1.34083333 C16.3057859,1.34106481 16.1299482,1.27100309 16.0736925,1.40834877 C16.0229536,1.53219136 16.1875247,1.62084877 16.2562126,1.72509259 C16.3623524,1.88635802 16.5034577,2.03118827 16.5788278,2.20472222 C16.7186123,2.52640432 16.9437903,2.60927469 17.2837329,2.60757716 C19.9764671,2.59445988 22.6693568,2.59878086 25.3621687,2.5987037 C25.5433679,2.5987037 25.7257325,2.59376543 25.9053776,2.61228395 C26.2665327,2.64962963 26.5190615,2.9008642 26.5443921,3.22833333 C26.5711213,3.57509259 26.3446224,3.87825617 25.9837781,3.95402778 C25.8202171,3.9883642 25.6499739,4.0049537 25.4826832,4.00541667 C24.3693031,4.00904321 23.2560006,4.00518519 22.1426982,4.00557099 C20.6669198,4.00626543 19.1910637,4.01035494 17.7152852,4.00873457 C17.4504796,4.00850309 17.2566152,4.05395062 17.2706014,4.3858179 C17.3228943,5.62432099 16.9293378,6.71151235 16.1224888,7.65441358 C16.0916415,7.69037037 16.0760235,7.73921296 16.0563651,7.77640432 M23.9950942,23.5977778 C24.0525154,23.6831944 24.1375205,23.6568827 24.2106373,23.6568827 C27.7955364,23.6585802 31.3803578,23.6621296 34.965257,23.6568827 C35.8470876,23.655571 36.6520718,23.4133642 37.3163391,22.807037 C37.4178946,22.7144444 37.6013471,22.6279475 37.5562804,22.4857407 C37.5047645,22.3233179 37.307015,22.4020988 37.1756223,22.4017901 C35.2731867,22.3968519 33.3707512,22.3987809 31.4683933,22.3980093 C31.3390985,22.3979321 31.2080166,22.4020988 31.0808975,22.3833488 C30.7296882,22.3314969 30.4816661,22.0629784 30.4689231,21.7360494 C30.4563355,21.4117438 30.6829121,21.1053395 31.0275168,21.0472377 C31.3059201,21.0003241 31.5937253,20.9948457 31.8774123,20.9940741 C33.8832681,20.9889815 35.889124,20.9849691 37.8949798,20.9936111 C38.2402838,20.9950772 38.3736967,20.8727006 38.3910241,20.5257099 C38.4834885,18.6746296 37.0468715,17.1582716 35.1306828,17.150787 C31.5459391,17.1369753 27.9610399,17.146466 24.3762185,17.1490895 C24.2667375,17.1491667 24.1149094,17.0946914 24.059897,17.2229321 C24.006594,17.3470062 24.149098,17.4210802 24.2173973,17.5078858 C25.5771679,19.236821 25.5719619,21.5662963 24.2060529,23.290216 C24.1291288,23.3872068 24.0109453,23.4609722 23.9950942,23.5977778 M25.9272117,15.7362809 L25.9272117,15.7345833 C27.6751773,15.7345833 29.4232206,15.7397531 31.1711086,15.7330401 C32.9774278,15.7261728 34.4178522,14.3010957 34.4191743,12.5324228 C34.4206494,10.6797222 33.0246701,9.27841049 31.1665242,9.26907407 C30.5449925,9.26591049 29.9235385,9.26575617 29.3020068,9.26560185 C26.3628821,9.26490741 23.4236798,9.26398148 20.4843997,9.2662963 C20.3595339,9.26637346 20.192321,9.21652778 20.1202143,9.33203704 C20.0365301,9.46614198 20.195973,9.55950617 20.2690121,9.65487654 C20.9360767,10.5256327 21.2698032,11.5008642 21.2419862,12.5993981 C21.2297094,13.0821142 21.2614892,13.1064969 21.7406723,13.1067284 C23.5274886,13.1078086 25.3143825,13.1033333 27.1011987,13.1058796 C27.3979395,13.1063426 27.7008187,13.0993981 27.9897117,13.1541821 C28.3291881,13.2186111 28.5307449,13.4547994 28.5292686,13.8125926 C28.5276369,14.1678395 28.3276341,14.3960802 27.9909549,14.4768673 C27.79305,14.524321 27.5801488,14.521466 27.3740075,14.5216975 C25.5353646,14.5233179 23.6961001,14.5475463 21.8583896,14.505571 C21.1600891,14.4896759 20.5794283,14.5447685 20.3080181,15.2891358 C20.2995486,15.312284 20.2750728,15.3292593 20.2631845,15.351713 C20.2067734,15.4585031 20.0334998,15.536821 20.1212244,15.6765586 C20.1857941,15.7794136 20.3367675,15.7348148 20.4502112,15.7349691 C22.2759557,15.7368981 24.1016225,15.7362809 25.9272117,15.7362809 M39.7830407,19.6759414 L39.7830407,21.1419907 C39.6012199,21.7971605 39.3969435,22.4410648 39.003931,23.0117438 C38.2482093,24.1091975 37.1739906,24.7081944 35.8979819,25.0000154 L3.88509762,25.0000154 C3.15851393,24.8118981 2.45865944,24.5711574 1.847462,24.1132099 C0.840610166,23.3586574 0.27828676,22.3392901 3.88505877e-05,21.1419907 L3.88505877e-05,19.6759414 C0.0217174785,19.6022531 0.045416337,19.5290278 0.0648416309,19.4547222 C0.630117682,17.2922994 2.05096138,16.0431481 4.27243798,15.7652932 C4.56078704,15.7292593 4.85348737,15.7274074 5.1399716,15.7099691 C5.14906264,15.5498611 5.04960514,15.4923765 4.98806581,15.4158333 C2.9778587,12.9141358 4.00669996,9.25125 7.02865407,8.14106481 C7.62104784,7.92347222 8.23092436,7.84785494 8.85665193,7.8508642 C8.94212322,7.85125 9.05673245,7.88373457 9.10148833,7.78473765 C9.14500099,7.68851852 9.04531038,7.62486111 8.99534853,7.55441358 C8.92829241,7.45996914 8.85276687,7.37154321 8.78508914,7.27756173 C7.49237469,5.48358025 7.6782359,3.03319444 9.19915871,1.42794753 C9.92131343,0.665756173 10.8171303,0.254027778 11.8106175,1.54320988e-05 L26.651542,1.54320988e-05 C26.8126943,0.0466975309 26.974235,0.0919135802 27.1348433,0.140216049 C28.5430994,0.564058642 29.569532,1.43790123 30.1492604,2.77671296 C30.8671416,4.43466049 30.579181,5.98959877 29.5522823,7.44083333 C29.4752027,7.54970679 29.2879429,7.64530864 29.3702284,7.78828704 C29.442879,7.9145216 29.6325476,7.8487037 29.7697679,7.85063272 C30.2355087,7.8571142 30.7019489,7.83697531 31.1670681,7.85518519 C33.1104522,7.93111111 34.5675824,8.80966049 35.3939344,10.5633642 C36.202182,12.2784105 35.9443695,13.9139815 34.794159,15.4164506 C34.7344845,15.4943827 34.6329291,15.5506327 34.6420978,15.6791821 C34.7919057,15.7822685 34.9641692,15.7285648 35.1256322,15.734892 C36.361314,15.7834259 37.4496744,16.1831173 38.3596328,17.0352006 C39.1330703,17.759429 39.5628355,18.6605864 39.7830407,19.6759414" id="Fill-1"></path>
                    <path d="M28.0091207,12.0532957 C27.0091684,12.0535148 26.0092161,12.0538798 25.0092639,12.0530767 C24.8909628,12.0529307 24.7714771,12.054902 24.6544395,12.0414676 C24.2285398,11.9924028 23.95332,11.7243717 23.9603485,11.3738359 C23.9673771,11.0271697 24.2555485,10.7432948 24.679237,10.7297874 C25.3757762,10.7075914 26.0735789,10.7158419 26.7709078,10.7155498 C28.2314288,10.7150387 29.6919499,10.716718 31.1524709,10.7197116 C31.2833287,10.7199306 31.4194776,10.7179593 31.5440965,10.7486248 C31.8873908,10.8331009 32.0920881,11.051337 32.0975372,11.3782167 C32.1029863,11.7067026 31.9094242,11.9325321 31.5569691,12.0085387 C31.3927059,12.0440231 31.2184131,12.0505942 31.0484639,12.0512514 C30.0354021,12.054902 29.0222614,12.0530767 28.0091207,12.0532957" id="Fill-4"></path>
                    <path d="M29.5660306,19.6413404 C28.7400497,19.6416345 27.9140687,19.6451636 27.0881665,19.6403111 C26.5564924,19.6372966 26.2264308,19.3813614 26.2206148,18.9834524 C26.2153264,18.6042183 26.5319997,18.3167415 27.0413861,18.3129918 C28.7586358,18.3001252 30.4761218,18.300934 32.1933715,18.3124036 C32.6935437,18.3157122 33.0121071,18.6098061 33.0015539,18.991687 C32.9908433,19.3779793 32.6705472,19.6347233 32.1617908,19.6389876 C31.2966687,19.6462665 30.4312315,19.6409728 29.5660306,19.6413404" id="Fill-6"></path>
                    <path d="M35.0521376,18.3037713 C35.4245408,18.3125576 35.7266157,18.6252298 35.7138983,18.9887263 C35.701181,19.3518441 35.3817156,19.6506551 35.0149049,19.642702 C34.6392841,19.6344458 34.3472452,19.3287421 34.3583537,18.9554746 C34.3696154,18.5818283 34.6749845,18.2949092 35.0521376,18.3037713" id="Fill-8"></path>
                    <path d="M28.7226638,22.3213896 C28.3540398,22.3253664 28.037666,22.0246588 28.0291214,21.6621578 C28.0203501,21.2946859 28.31903,20.9894661 28.6943081,20.9822773 C29.0738206,20.9750885 29.3720468,21.2569827 29.3848258,21.635085 C29.3969998,21.9953681 29.0862215,22.3174128 28.7226638,22.3213896" id="Fill-10"></path>
                    <path d="M20.7953676,6.03270594 C20.7831693,6.4076966 20.4438125,6.71721149 20.0689213,6.69533577 C19.7150174,6.67474686 19.4177108,6.33495416 19.440668,5.97729755 C19.4629432,5.63054096 19.7719936,5.34994137 20.1235487,5.35728374 C20.4894237,5.36500458 20.8066568,5.68398129 20.7953676,6.03270594" id="Fill-12"></path>
                    <path d="M18.5353788,20.2912686 C18.525959,19.420213 19.088165,18.6684353 19.9501567,18.3997749 C20.8273772,18.1263252 21.7509117,18.4478205 22.2825818,19.2115337 C22.7536511,19.888278 22.7016852,20.8743544 22.1609092,21.5200059 C21.8481713,21.893196 21.4283615,21.9795565 21.0980399,21.738568 C20.7751757,21.5030531 20.7380459,21.1275063 20.9977188,20.7237555 C21.2541733,20.3250982 21.2522894,20.0737708 20.9806847,19.8429692 C20.75979,19.6551198 20.5107143,19.6215182 20.2579492,19.7737895 C20.012249,19.9218036 19.908945,20.1405177 19.9692319,20.4230901 C20.0022797,20.5780221 20.1113141,20.6909902 20.19099,20.8209112 C20.3875502,21.1414943 20.3361337,21.4984158 20.0694744,21.7158376 C19.7907263,21.9431422 19.3923466,21.9293063 19.1089671,21.6593535 C18.7170242,21.2861634 18.5312184,20.8241041 18.5353788,20.2912686" id="Fill-14"></path>
                    <path d="M18.5349603,12.7473025 C18.5156491,13.8311382 17.5938141,14.7278164 16.4942533,14.7321429 C15.4420284,14.736285 14.521842,13.8861076 14.4682259,12.8602437 C14.4447542,12.4120971 14.6684815,12.1039915 15.062791,12.0415543 C15.4395164,11.9818117 15.7619192,12.2364107 15.8577687,12.6685438 C15.8772369,12.7557711 15.8886195,12.8467708 15.9222179,12.928609 C16.0479762,13.2349439 16.2961958,13.3541211 16.6143595,13.3037711 C16.9071676,13.2574243 17.0741388,13.0660324 17.0899174,12.7735554 C17.1070306,12.4565961 16.9719307,12.2269412 16.6466234,12.1332469 C16.5718121,12.1117673 16.4916628,12.1083798 16.415674,12.0899027 C15.9756769,11.9830435 15.7507721,11.6774015 15.8189893,11.2820687 C15.882732,10.9121418 16.2325316,10.6809471 16.6721361,10.7182092 C17.724047,10.8073612 18.553408,11.7107373 18.5349603,12.7473025" id="Fill-16"></path>
                    <path d="M12.4614648,22.3214286 C11.3481656,22.3248933 10.449361,21.4752106 10.3995746,20.3721368 C10.3529826,19.3401917 11.2460216,18.3760544 12.3136638,18.3055436 C12.7283948,18.278127 13.076666,18.5393183 13.1299585,18.9175128 C13.1804461,19.2763226 12.9242681,19.6043178 12.5251197,19.6892706 C12.4619323,19.7027086 12.3946933,19.6998511 12.3329083,19.7170733 C12.0084006,19.8077412 11.8097224,20.0059129 11.8373036,20.3567681 C11.8611449,20.6607447 12.0289696,20.8567541 12.3446732,20.9003117 C12.6867892,20.9474219 12.9395391,20.7718012 13.0373199,20.4253482 C13.0547724,20.3635643 13.0628754,20.2992319 13.079393,20.2371391 C13.1951717,19.8010222 13.4955264,19.5858598 13.8982588,19.6491111 C14.2623464,19.7063384 14.4819832,20.0157983 14.4656994,20.4490577 C14.4275999,21.4682599 13.5178874,22.3180971 12.4614648,22.3214286" id="Fill-18"></path>
                    <path d="M4.75533036,22.3214286 C3.73935938,22.3245079 2.91374648,21.6353618 2.73360425,20.6337749 C2.64329918,20.1314753 2.84714844,19.749672 3.25601672,19.6555922 C3.67759633,19.5585772 3.98804924,19.7967892 4.12249305,20.3206391 C4.24360166,20.7926601 4.47856639,20.9712418 4.87948033,20.895082 C5.13924387,20.8457248 5.29482125,20.6798879 5.34363902,20.4341064 C5.39604403,20.1703277 5.29575706,19.9538978 5.06297586,19.806676 C4.93991766,19.7288941 4.79736355,19.71221 4.65777282,19.6806184 C4.24305577,19.5867703 3.99857703,19.2673779 4.0540234,18.9101373 C4.11282308,18.5312691 4.45571718,18.2793855 4.87714083,18.3054158 C5.93834233,18.3708391 6.82454852,19.336895 6.77955196,20.3791107 C6.73221588,21.47246 5.85100064,22.3180969 4.75533036,22.3214286" id="Fill-20"></path>
                    <path d="M14.4664838,4.69754191 C14.4576676,5.78536855 13.6082723,6.64683872 12.4973566,6.69466378 C11.4443311,6.73993507 10.494603,5.90849099 10.4018382,4.86020902 C10.3626725,4.41771114 10.6138164,4.06683926 11.0114804,4.00856698 C11.3926043,3.95269369 11.7013264,4.19390843 11.8027514,4.63718018 C11.8315405,4.76308855 11.8483146,4.8903125 11.9249295,4.9995827 C12.0781593,5.2181231 12.2812433,5.34581136 12.5545447,5.2874617 C12.8194199,5.23081454 12.9873173,5.06257557 13.0268731,4.78785234 C13.0683793,4.49927685 12.9597765,4.27779575 12.6962276,4.15188738 C12.5699144,4.09152566 12.4239405,4.07210156 12.2872508,4.03278905 C11.918844,3.92684649 11.7024187,3.62813333 11.748216,3.29003028 C11.7954956,2.94163478 12.0628675,2.70800395 12.4439914,2.68223413 C13.4970949,2.61111564 14.475534,3.58611228 14.4664838,4.69754191" id="Fill-22"></path>
                    <path d="M6.78172081,12.2316301 C6.8070474,11.163138 7.70586847,10.2836016 8.78836573,10.2680604 C9.86197921,10.2525962 10.7974264,11.1215154 10.8489368,12.1819293 C10.867094,12.5569171 10.6293358,12.8795882 10.2809978,12.9527546 C9.9385824,13.0245363 9.5974138,12.8103454 9.47569033,12.4423588 C9.44763626,12.357575 9.43501193,12.2678672 9.4151403,12.1803905 C9.33900469,11.8447941 9.12820956,11.6639168 8.77862474,11.6856897 C8.4501584,11.7061548 8.24941598,11.8963415 8.21917993,12.2205513 C8.18715154,12.5639183 8.36085296,12.7802633 8.70015129,12.8635085 C8.78828781,12.8851276 8.87961937,12.8950524 8.96604148,12.9215185 C9.34329072,13.0370769 9.56702189,13.3648258 9.50506917,13.704192 C9.43976554,14.0614845 9.10046721,14.3061421 8.70054093,14.2843691 C7.63035628,14.2260514 6.75662801,13.2912746 6.78172081,12.2316301" id="Fill-24"></path>
                </g>
            </g>
        </g>
    </g>
</svg>