<?xml version="1.0" encoding="UTF-8"?>
<svg width="20px" height="20px" viewBox="0 0 20 20" version="1.1" xmlns="http://www.w3.org/2000/svg" xmlns:xlink="http://www.w3.org/1999/xlink">
    <!-- Generator: Sketch 58 (84663) - https://sketch.com -->
    <title>alerta</title>
    <desc>Created with Sketch.</desc>
    <g id="Dashboards" stroke="none" stroke-width="1" fill="none" fill-rule="evenodd">
        <g id="Mapa-Flujo-Celulosa" transform="translate(-1513.000000, -494.000000)" fill="#A7D129">
            <g id="Group-13-Copy" transform="translate(1393.000000, 426.000000)">
                <g id="Group-14" transform="translate(15.000000, 64.000000)">
                    <g id="Group-2" transform="translate(77.000000, 4.000000)">
                        <g id="ok" transform="translate(28.000000, 0.000000)">
                            <path d="M15.8403355,7.61430149 C15.8298471,7.24725265 15.6537962,6.9822845 15.3261529,6.82602123 C14.9986369,6.66980042 14.6119278,6.74054352 14.3445393,7.00122293 C13.6507389,7.67757113 12.9596136,8.35684926 12.2692951,9.03680679 C11.1102293,10.1785053 9.95116348,11.3200764 8.79659873,12.466276 C8.67095117,12.5909894 8.60152442,12.6185053 8.46836093,12.4622845 C7.93642887,11.8384628 7.38853079,11.2281444 6.84487898,10.6143864 C6.69986837,10.4506497 6.56114225,10.2798641 6.36678981,10.1674225 C5.98751168,9.9478896 5.56717197,10.0164671 5.2968535,10.3451295 C4.985431,10.7236858 4.97808493,11.1636433 5.27324416,11.5005011 C6.13035669,12.478845 6.98708705,13.4574862 7.84190658,14.4378684 C8.19952866,14.848017 8.70984713,14.8951083 9.11099363,14.5215202 C9.72152442,13.9529002 10.3194862,13.3706921 10.9176178,12.7889087 C11.7998259,11.9308195 12.6773631,11.0679321 13.5572781,10.207465 C13.6078089,10.1580807 13.6632229,10.113707 13.713966,10.0645775 C14.3439023,9.4545138 14.9760467,8.8467431 15.6011423,8.23179618 C15.7685308,8.06716773 15.8492951,7.85553291 15.8403355,7.61430149 M9.97409342,-8.492569e-06 C15.4047091,0.0109893843 19.8057282,4.29948195 19.9548153,9.6807983 C20.1125223,15.3731125 15.6668323,19.7607983 10.3868747,19.9570616 C4.56789384,20.1733248 0.0621613588,15.5716688 0.000675159236,10.1367643 C-0.0628917197,4.51468365 4.35264968,0.0499278132 9.97409342,-8.492569e-06" id="Fill-1"></path>
                        </g>
                    </g>
                </g>
            </g>
        </g>
    </g>
</svg>