<?xml version="1.0" encoding="UTF-8"?>
<svg width="20px" height="20px" viewBox="0 0 20 20" version="1.1" xmlns="http://www.w3.org/2000/svg" xmlns:xlink="http://www.w3.org/1999/xlink">
    <!-- Generator: Sketch 58 (84663) - https://sketch.com -->
    <title>alerta</title>
    <desc>Created with Sketch.</desc>
    <g id="Dashboards" stroke="none" stroke-width="1" fill="none" fill-rule="evenodd">
        <g id="Mapa-Flujo-Celulosa" transform="translate(-1714.000000, -432.000000)" fill="#E9B528">
            <g id="tool" transform="translate(1714.000000, 432.000000)">
                <path d="M10,0 C15.5228475,0 20,4.4771525 20,10 C20,15.5228475 15.5228475,20 10,20 C4.4771525,20 0,15.5228475 0,10 C0,4.4771525 4.4771525,0 10,0 Z M13.4582185,4.48419789 C12.8419609,4.23319492 12.2026205,4.1492017 11.5441887,4.23835729 C10.3451114,4.40070696 9.41853401,5.00372799 8.78340826,6.02520823 C8.15149233,7.0415261 8.08757504,8.14247899 8.39730875,9.27719659 C8.43189107,9.40393984 8.41447431,9.47730135 8.31011328,9.55830876 C7.94288192,9.84338339 7.58452642,10.139899 7.22044906,10.4290756 C6.47415188,11.0218556 5.7426757,11.6330248 4.99015426,12.2182426 C4.39628168,12.6801495 4.14223138,13.303541 4.21636428,14.0469228 C4.29853568,14.8710887 4.89511567,15.5498153 5.6976824,15.7690068 C6.48894497,15.9851289 7.32718257,15.6864368 7.83723697,15.0358661 C8.7207749,13.9089897 9.61818484,12.7929962 10.5061886,11.6696079 C10.5709153,11.5877354 10.6266546,11.580843 10.7187066,11.6110638 C11.1457523,11.7510618 11.5838788,11.826851 12.0649611,11.8137637 C12.268687,11.8249814 12.5000173,11.8031878 12.728082,11.7544662 C12.8915317,11.7195574 13.0562373,11.6847044 13.2145512,11.6322156 C15.3034186,10.939732 16.3721213,8.66569252 15.5735459,6.61826728 C15.5160482,6.47087454 15.5084563,6.46911655 15.3925958,6.58360962 C14.7741052,7.19491836 14.1556706,7.80622709 13.5375708,8.41787069 C13.2077129,8.74421641 12.767186,8.76126619 12.4287593,8.44373836 C12.1338466,8.16706305 11.8470561,7.88098384 11.5680809,7.5882075 C11.3037592,7.31086248 11.3009401,6.86748435 11.5659596,6.59990598 C12.204044,5.95561386 12.8499994,5.31907925 13.4948942,4.68154008 C13.6184583,4.55940111 13.6206633,4.55035998 13.4582185,4.48419789 Z M6.23386194,13.1212948 C6.6171424,13.1208767 6.91967494,13.426824 6.9197587,13.8149508 C6.91984241,14.2097468 6.61663999,14.5119549 6.22121804,14.5112029 C5.8333601,14.510476 5.52839926,14.2071796 5.52951267,13.8233222 C5.530688,13.4123136 5.82227925,13.1217138 6.23386194,13.1212948 Z" id="Combined-Shape"></path>
            </g>
        </g>
    </g>
</svg>