<?xml version="1.0" encoding="UTF-8"?>
<svg width="20px" height="20px" viewBox="0 0 20 20" version="1.1" xmlns="http://www.w3.org/2000/svg" xmlns:xlink="http://www.w3.org/1999/xlink">
    <!-- Generator: Sketch 58 (84663) - https://sketch.com -->
    <title>alerta</title>
    <desc>Created with Sketch.</desc>
    <g id="Dashboards" stroke="none" stroke-width="1" fill="none" fill-rule="evenodd">
        <g id="Mapa-Flujo-Celulosa" transform="translate(-1492.000000, -308.000000)" fill="#F24141">
            <g id="Group" transform="translate(1393.000000, 240.000000)">
                <g id="Group-22" transform="translate(51.000000, 64.000000)">
                    <g id="alerta" transform="translate(48.000000, 4.000000)">
                        <path d="M11.3856391,12.6363609 C11.5807558,12.8314777 11.7758726,13.0265945 11.9709894,13.2216688 C12.1711592,13.4217962 12.3692059,13.6240042 12.5718811,13.8214989 C12.9655117,14.2049384 13.4930276,14.2175499 13.8574862,13.8554692 C14.2196943,13.4955966 14.2092909,12.9569554 13.825087,12.5707134 C13.04169,11.783155 12.2549809,10.9988662 11.4694183,10.2135159 C11.2469979,9.99118047 11.246913,9.98256051 11.4681444,9.76141401 C12.253707,8.97602123 13.0390573,8.1904586 13.8242803,7.40472611 C13.8942166,7.33474735 13.9627091,7.2645138 14.0108195,7.17529936 C14.2234735,6.780862 14.1247049,6.31504459 13.7655966,6.03270913 C13.4364246,5.77389809 12.9318811,5.79929087 12.6197792,6.10740127 C11.8897155,6.82816561 11.1660637,7.55538429 10.4404586,8.28064968 C9.98521444,8.73563907 9.98797452,8.73394055 9.53914225,8.2826879 C8.82563907,7.56532059 8.11315499,6.84689172 7.39196603,6.13729512 C6.92653079,5.67933333 6.24428025,5.79135032 5.94852654,6.36094692 C5.77277282,6.69946072 5.84589384,7.09419533 6.15731635,7.40774098 C6.89026752,8.1456603 7.63009766,8.87670064 8.36253928,9.61512951 C8.78483227,10.040862 8.7855966,9.93215711 8.35557537,10.3654904 C7.61795329,11.1086752 6.87311253,11.8447686 6.13561783,12.5881231 C5.81684926,12.9095244 5.76725265,13.3614989 5.99735881,13.713431 C6.31400425,14.1977622 6.96542675,14.2606921 7.39137155,13.8383567 C8.20028875,13.0363609 9.00585138,12.2308832 9.8067431,11.4209045 C9.94219958,11.2839193 10.0367643,11.2791635 10.172051,11.4185265 C10.5710743,11.8298217 10.9803312,12.2311805 11.3856391,12.6363609 M2.92423779,2.9341104 C6.78351592,-0.912046709 12.9407558,-0.973872611 16.8424119,2.73084076 C20.9760849,6.65580892 20.9141741,12.9044289 17.3192272,16.7636645 C13.3602038,21.0136858 6.93094692,20.9488025 3.04546921,17.1542378 C-0.97563482,13.2272314 -1.01346921,6.9418811 2.92423779,2.9341104" id="Fill-1"></path>
                    </g>
                </g>
            </g>
        </g>
    </g>
</svg>