<?xml version="1.0" encoding="UTF-8"?>
<svg width="17px" height="17px" viewBox="0 0 17 17" version="1.1" xmlns="http://www.w3.org/2000/svg" xmlns:xlink="http://www.w3.org/1999/xlink">
    <!-- Generator: Sketch 58 (84663) - https://sketch.com -->
    <title>Group 7</title>
    <desc>Created with Sketch.</desc>
    <g id="Dashboards" stroke="none" stroke-width="1" fill="none" fill-rule="evenodd">
        <g id="Mapa-Flujo-Celulosa-Up" transform="translate(-1783.000000, -447.000000)" fill="#E9B528">
            <g id="Group-16" transform="translate(1764.000000, 432.000000)">
                <g id="Group-7" transform="translate(19.000000, 15.000000)">
                    <path d="M11.697007,14.7453846 C12.3673657,14.0698963 13.0322147,13.3999931 13.6915539,12.735608 C13.6973955,12.7369457 13.6771822,12.7283842 13.6569689,12.7283508 C13.0545522,12.7275147 12.4521687,12.7287521 11.8497852,12.7262739 C11.7332848,12.7257756 11.6951815,12.7802883 11.69631,12.8903168 C11.6992972,13.1909723 11.6970734,13.4917281 11.697007,13.7924505 C11.6969407,14.1142756 11.697007,14.4361007 11.697007,14.7453846 M9.55130838,13.777401 C9.55130838,13.4931996 9.54649568,13.2088645 9.55336622,12.9247969 C9.5567517,12.7855723 9.51659059,12.722933 9.36630173,12.7245382 C8.78565835,12.7306918 8.2049154,12.7292537 7.62423883,12.7254078 C7.49705091,12.7245382 7.4462023,12.7698205 7.44705411,12.9008514 C7.45108138,13.4915274 7.45111457,14.0822369 7.44705411,14.6729129 C7.44616911,14.8050475 7.49924152,14.8479887 7.62536732,14.847186 C8.2060439,14.8434404 8.78678685,14.8429053 9.36746342,14.8476055 C9.50231846,14.8486576 9.55648617,14.8025392 9.55329984,14.6633815 C9.54662844,14.3681773 9.55130838,14.072739 9.55130838,13.777401 M4.24748591,14.8453132 C4.54613854,14.8453132 4.84479118,14.8431728 5.14341062,14.8464503 C5.25483281,14.8476877 5.30412145,14.8043786 5.30366002,14.6889991 C5.30130021,14.0871531 5.30130021,13.485307 5.30366002,12.8834944 C5.30412145,12.768048 5.25460047,12.7257088 5.14331104,12.726177 C4.55154868,12.7284846 3.95975312,12.7288859 3.36802395,12.7257695 C3.24896782,12.7251737 3.19835155,12.7684493 3.19904146,12.8919555 C3.2022017,13.4882166 3.2022017,14.084511 3.19904146,14.6807386 C3.19835155,14.8043786 3.24910059,14.8485907 3.36812352,14.8468182 C3.66120006,14.8425374 3.95434299,14.8454136 4.24748591,14.8453132 M12.7485312,10.5648687 C13.0361312,10.5648687 13.3237976,10.5608555 13.6112649,10.5666746 C13.7414732,10.5692832 13.8030757,10.5311244 13.8018334,10.3873181 C13.7966698,9.7966755 13.7979643,9.20593262 13.8009846,8.61525662 C13.8015821,8.49529542 13.7585997,8.44436123 13.6360254,8.4450236 C13.0442962,8.44824066 12.4525006,8.44824066 11.8607383,8.4450236 C11.7380311,8.44436123 11.6953143,8.49556296 11.6959449,8.61542384 C11.6989653,9.20609984 11.7002598,9.79680928 11.6950631,10.3874518 C11.6938207,10.5313919 11.7557219,10.5692832 11.8857643,10.5666746 C12.1732647,10.5608889 12.4609311,10.5648687 12.7485312,10.5648687 M8.50021574,10.5656713 C8.79309314,10.5656713 9.08607011,10.5619257 9.37888112,10.5673435 C9.50882389,10.5697848 9.55373132,10.5167103 9.55288052,10.3887227 C9.54905139,9.798448 9.54935011,9.20817332 9.55266921,8.61789864 C9.55333303,8.49653282 9.50749625,8.4478059 9.38681377,8.44840237 C8.79548289,8.45115023 8.20415201,8.45118367 7.61282113,8.44840237 C7.49183993,8.4478059 7.44666697,8.49723513 7.44736398,8.61829996 C7.45064989,9.2085412 7.45094861,9.79884932 7.44712056,10.3890571 C7.44630187,10.5174126 7.4919395,10.5697848 7.62151717,10.5673435 C7.91429499,10.5619591 8.20727196,10.5656713 8.50021574,10.5656713 M5.30259466,9.50966489 C5.30259466,9.20874186 5.30043724,8.90781882 5.30372315,8.60692923 C5.30491803,8.49465999 5.26193568,8.44499666 5.14745992,8.44546158 C4.55015466,8.44783934 3.95284939,8.44783934 3.35557732,8.44546158 C3.24096879,8.44499666 3.19898218,8.4948941 3.19941366,8.60702956 C3.20173703,9.2032906 3.20213532,9.79955163 3.19904173,10.3958127 C3.19841793,10.5157739 3.24136709,10.5667749 3.36397464,10.5660798 C3.95573701,10.5628955 4.54749938,10.5628955 5.13926174,10.5660798 C5.26193568,10.5667749 5.30581419,10.5156401 5.30408825,10.3957123 C5.29983981,10.1004078 5.30269423,9.80503634 5.30259466,9.50966489 M16.996913,2.01424667 C16.996913,6.95827366 16.9963487,11.9023341 17,16.8463611 C17,16.9717401 16.9719865,17 16.8475535,17 C11.2825178,16.9963879 5.71751537,16.9963879 0.152479724,17 C0.0280466591,17 0,16.9717736 0,16.8463611 C0.00365127306,11.9023341 0.00312021703,6.95827366 0.00312021703,2.01424667 C1.02042441,2.01113644 2.03772861,2.0085613 3.0550328,2.00401301 C3.16306951,2.00351136 3.20070811,2.05424488 3.19994472,2.15728376 C3.1977873,2.45258832 3.20117278,2.74792632 3.19994472,3.04323087 C3.19440182,4.37828839 4.26882773,5.30109005 5.45397882,5.22621044 C6.42760365,5.16470817 7.28788122,4.37243581 7.40036553,3.39415168 C7.445107,3.00463728 7.4233337,2.61495566 7.42396433,2.2254747 C7.42422986,2.06477953 7.46339524,1.99732434 7.63734928,2.000081 C8.21238338,2.00953116 8.78768301,2.00953116 9.36265072,2.000081 C9.53663795,1.99732434 9.57577014,2.06481297 9.57610205,2.22550815 C9.57686545,2.60940407 9.55356536,2.99360098 9.59814088,3.3774969 C9.71991866,4.42701531 10.6116945,5.22186281 11.6784533,5.22453828 C12.7540409,5.22728063 13.652986,4.43116229 13.7745978,3.37612573 C13.8175801,3.00329955 13.7914256,2.63037303 13.7991591,2.25754685 C13.8044033,2.00501631 13.8010842,2.00404645 14.0445402,2.00374546 C14.5643777,2.00314348 15.0842151,2.00214018 15.6040194,2.00394612 C16.0683283,2.0055514 16.5326041,2.01066823 16.996913,2.01424667" id="Fill-1"></path>
                    <path d="M12.2183669,0 C12.6101124,0.122460917 12.8822127,0.364827586 12.9776205,0.780509171 C12.9925145,0.845510055 12.9978492,0.914094401 12.9980034,0.981058398 C12.9994527,1.65599566 13.0017037,2.33093293 12.9979109,3.00583904 C12.9950431,3.51338189 12.6100199,3.94473723 12.1253952,3.994189 C11.6015157,4.04762933 11.149115,3.72795336 11.0287606,3.22171925 C11.0080385,3.13453206 11.0060958,3.04706443 11.0060342,2.95884895 C11.0057875,2.35140541 11.0227783,1.74333865 11.0010387,1.13670529 C10.9797924,0.543065867 11.2859361,0.148012558 11.7866574,0 L12.2183669,0 Z" id="Fill-3"></path>
                    <path d="M5.21831471,0 C5.60934715,0.123242542 5.88217553,0.364835318 5.97728153,0.780650357 C5.99217653,0.845683779 5.99772746,0.914207256 5.99788166,0.981141511 C5.99936191,1.65593727 6.00182899,2.33073304 5.99781998,3.00549764 C5.99479781,3.51314473 5.61014895,3.9437925 5.12505903,3.99405552 C4.60259283,4.04821368 4.14951329,3.72768959 4.02896552,3.22128894 C4.00697766,3.12898947 4.00599082,3.03625374 4.00595998,2.94292595 C4.00558992,2.34082927 4.02208853,1.73814052 4.00099498,1.13676054 C3.98079575,0.559374683 4.26901256,0.155650189 4.78657544,0 L5.21831471,0 Z" id="Fill-5"></path>
                </g>
            </g>
        </g>
    </g>
</svg>