<?xml version="1.0" encoding="UTF-8"?>
<svg width="135px" height="130px" viewBox="0 0 135 130" version="1.1" xmlns="http://www.w3.org/2000/svg" xmlns:xlink="http://www.w3.org/1999/xlink">
    <!-- Generator: Sketch 58 (84663) - https://sketch.com -->
    <title>Group 4</title>
    <desc>Created with Sketch.</desc>
    <g id="Dashboards" stroke="none" stroke-width="1" fill="none" fill-rule="evenodd">
        <g id="Mapa-Flujo-Celulosa" transform="translate(-1241.000000, -242.000000)">
            <g id="Group-4" transform="translate(1241.000000, 242.000000)">
                <path d="M57.1515,128.5485 C57.5405,128.7725 57.5405,129.1355 57.1515,129.3595 C56.7635,129.5835 56.1345,129.5835 55.7475,129.3595 C55.3595,129.1355 55.3595,128.7725 55.7475,128.5485 C56.1345,128.3245 56.7635,128.3245 57.1515,128.5485" id="Fill-1" fill="#16110D"></path>
                <path d="M60.8253,126.4279 C61.2133,126.6519 61.2133,127.0149 60.8253,127.2389 C60.4373,127.4629 59.8083,127.4629 59.4203,127.2389 C59.0323,127.0149 59.0323,126.6519 59.4203,126.4279 C59.8083,126.2039 60.4373,126.2039 60.8253,126.4279" id="Fill-3" fill="#16110D"></path>
                <path d="M64.4981,124.3068 C64.8871,124.5308 64.8871,124.8938 64.4981,125.1188 C64.1101,125.3418 63.4811,125.3418 63.0941,125.1188 C62.7051,124.8938 62.7051,124.5308 63.0941,124.3068 C63.4811,124.0828 64.1101,124.0828 64.4981,124.3068" id="Fill-5" fill="#16110D"></path>
                <path d="M68.172,122.1862 C68.56,122.4102 68.56,122.7732 68.172,122.9972 C67.784,123.2212 67.154,123.2212 66.767,122.9972 C66.379,122.7732 66.379,122.4102 66.767,122.1862 C67.154,121.9622 67.784,121.9622 68.172,122.1862" id="Fill-7" fill="#16110D"></path>
                <path d="M71.8448,120.0656 C72.2338,120.2896 72.2338,120.6526 71.8448,120.8766 C71.4568,121.1006 70.8278,121.1006 70.4408,120.8766 C70.0518,120.6526 70.0518,120.2896 70.4408,120.0656 C70.8278,119.8416 71.4568,119.8416 71.8448,120.0656" id="Fill-9" fill="#16110D"></path>
                <path d="M75.5187,117.9445 C75.9067,118.1685 75.9067,118.5315 75.5187,118.7555 C75.1307,118.9795 74.5017,118.9795 74.1137,118.7565 C73.7257,118.5315 73.7257,118.1685 74.1137,117.9445 C74.5017,117.7205 75.1307,117.7205 75.5187,117.9445" id="Fill-11" fill="#16110D"></path>
                <path d="M79.1915,115.8239 C79.5805,116.0479 79.5805,116.4109 79.1915,116.6349 C78.8035,116.8589 78.1745,116.8589 77.7875,116.6349 C77.3995,116.4109 77.3995,116.0479 77.7875,115.8239 C78.1745,115.5999 78.8035,115.5999 79.1915,115.8239" id="Fill-13" fill="#16110D"></path>
                <path d="M86.5392,111.5822 C86.9272,111.8062 86.9272,112.1692 86.5382,112.3932 C86.1502,112.6172 85.5212,112.6172 85.1342,112.3932 C84.7452,112.1692 84.7452,111.8062 85.1342,111.5822 C85.5212,111.3582 86.1502,111.3582 86.5392,111.5822" id="Fill-15" fill="#16110D"></path>
                <path d="M90.212,109.4611 C90.6,109.6851 90.6,110.0481 90.212,110.2731 C89.824,110.4961 89.195,110.4961 88.807,110.2731 C88.419,110.0481 88.419,109.6851 88.807,109.4611 C89.195,109.2371 89.824,109.2371 90.212,109.4611" id="Fill-17" fill="#16110D"></path>
                <path d="M82.8653,113.7028 C83.2533,113.9268 83.2533,114.2898 82.8653,114.5148 C82.4773,114.7378 81.8473,114.7378 81.4603,114.5148 C81.0723,114.2898 81.0723,113.9268 81.4603,113.7028 C81.8473,113.4788 82.4773,113.4788 82.8653,113.7028" id="Fill-19" fill="#16110D"></path>
                <path d="M49.8048,128.5485 C50.1938,128.7725 50.1938,129.1355 49.8048,129.3595 C49.4168,129.5835 48.7878,129.5835 48.4008,129.3595 C48.0128,129.1355 48.0128,128.7725 48.4008,128.5485 C48.7878,128.3245 49.4168,128.3245 49.8048,128.5485" id="Fill-21" fill="#16110D"></path>
                <path d="M53.4786,126.4279 C53.8666,126.6519 53.8666,127.0149 53.4786,127.2389 C53.0906,127.4629 52.4616,127.4629 52.0736,127.2389 C51.6856,127.0149 51.6856,126.6519 52.0736,126.4279 C52.4616,126.2039 53.0906,126.2039 53.4786,126.4279" id="Fill-23" fill="#16110D"></path>
                <path d="M57.1515,124.3068 C57.5405,124.5308 57.5405,124.8938 57.1515,125.1188 C56.7635,125.3418 56.1345,125.3418 55.7475,125.1188 C55.3595,124.8938 55.3595,124.5308 55.7475,124.3068 C56.1345,124.0828 56.7635,124.0828 57.1515,124.3068" id="Fill-25" fill="#16110D"></path>
                <path d="M60.8253,122.1862 C61.2133,122.4102 61.2133,122.7732 60.8253,122.9972 C60.4373,123.2212 59.8083,123.2212 59.4203,122.9972 C59.0323,122.7732 59.0323,122.4102 59.4203,122.1862 C59.8083,121.9622 60.4373,121.9622 60.8253,122.1862" id="Fill-27" fill="#16110D"></path>
                <path d="M64.4991,120.0656 C64.8871,120.2896 64.8871,120.6526 64.4981,120.8766 C64.1101,121.1006 63.4811,121.1006 63.0941,120.8766 C62.7051,120.6526 62.7051,120.2896 63.0941,120.0656 C63.4811,119.8416 64.1101,119.8416 64.4991,120.0656" id="Fill-29" fill="#16110D"></path>
                <path d="M68.172,117.9445 C68.56,118.1685 68.56,118.5315 68.172,118.7565 C67.784,118.9795 67.155,118.9795 66.767,118.7565 C66.379,118.5315 66.379,118.1685 66.767,117.9445 C67.155,117.7205 67.784,117.7205 68.172,117.9445" id="Fill-31" fill="#16110D"></path>
                <path d="M71.8448,115.8239 C72.2338,116.0479 72.2338,116.4109 71.8448,116.6349 C71.4568,116.8589 70.8278,116.8589 70.4408,116.6349 C70.0518,116.4109 70.0518,116.0479 70.4408,115.8239 C70.8278,115.5999 71.4568,115.5999 71.8448,115.8239" id="Fill-33" fill="#16110D"></path>
                <path d="M75.5187,113.7028 C75.9067,113.9268 75.9067,114.2898 75.5187,114.5148 C75.1307,114.7378 74.5017,114.7378 74.1137,114.5148 C73.7257,114.2898 73.7257,113.9268 74.1137,113.7028 C74.5017,113.4788 75.1307,113.4788 75.5187,113.7028" id="Fill-35" fill="#16110D"></path>
                <path d="M82.8653,109.4611 C83.2533,109.6851 83.2533,110.0481 82.8653,110.2731 C82.4773,110.4961 81.8473,110.4961 81.4603,110.2731 C81.0723,110.0481 81.0723,109.6851 81.4603,109.4611 C81.8473,109.2371 82.4773,109.2371 82.8653,109.4611" id="Fill-37" fill="#16110D"></path>
                <path d="M86.5392,107.3405 C86.9272,107.5645 86.9272,107.9275 86.5392,108.1515 C86.1502,108.3755 85.5212,108.3755 85.1342,108.1515 C84.7452,107.9275 84.7452,107.5645 85.1342,107.3405 C85.5212,107.1165 86.1502,107.1165 86.5392,107.3405" id="Fill-39" fill="#16110D"></path>
                <path d="M79.1915,111.5822 C79.5805,111.8062 79.5805,112.1692 79.1915,112.3932 C78.8035,112.6172 78.1745,112.6172 77.7875,112.3932 C77.3995,112.1692 77.3995,111.8062 77.7875,111.5822 C78.1745,111.3582 78.8035,111.3582 79.1915,111.5822" id="Fill-41" fill="#16110D"></path>
                <path d="M42.4591,128.5485 C42.8471,128.7725 42.8471,129.1355 42.4581,129.3595 C42.0701,129.5835 41.4411,129.5835 41.0541,129.3595 C40.6651,129.1355 40.6651,128.7725 41.0541,128.5485 C41.4411,128.3245 42.0701,128.3245 42.4591,128.5485" id="Fill-43" fill="#16110D"></path>
                <path d="M46.1319,126.4279 C46.5199,126.6519 46.5199,127.0149 46.1319,127.2389 C45.7439,127.4629 45.1149,127.4629 44.7269,127.2389 C44.3389,127.0149 44.3389,126.6519 44.7269,126.4279 C45.1149,126.2039 45.7439,126.2039 46.1319,126.4279" id="Fill-45" fill="#16110D"></path>
                <path d="M49.8048,124.3073 C50.1938,124.5313 50.1938,124.8943 49.8048,125.1183 C49.4168,125.3423 48.7878,125.3423 48.4008,125.1183 C48.0128,124.8943 48.0128,124.5313 48.4008,124.3073 C48.7878,124.0833 49.4168,124.0833 49.8048,124.3073" id="Fill-47" fill="#16110D"></path>
                <path d="M53.4786,122.1862 C53.8666,122.4102 53.8666,122.7732 53.4786,122.9972 C53.0906,123.2212 52.4616,123.2212 52.0736,122.9972 C51.6856,122.7732 51.6856,122.4102 52.0736,122.1862 C52.4616,121.9622 53.0906,121.9622 53.4786,122.1862" id="Fill-49" fill="#16110D"></path>
                <path d="M57.1515,120.0656 C57.5405,120.2896 57.5405,120.6526 57.1515,120.8766 C56.7635,121.1006 56.1345,121.1006 55.7475,120.8766 C55.3595,120.6526 55.3595,120.2896 55.7475,120.0656 C56.1345,119.8416 56.7635,119.8416 57.1515,120.0656" id="Fill-51" fill="#16110D"></path>
                <path d="M60.8253,117.9445 C61.2133,118.1685 61.2133,118.5315 60.8253,118.7565 C60.4373,118.9795 59.8083,118.9795 59.4203,118.7565 C59.0323,118.5315 59.0323,118.1685 59.4203,117.9445 C59.8083,117.7205 60.4373,117.7205 60.8253,117.9445" id="Fill-53" fill="#16110D"></path>
                <path d="M64.4991,115.8239 C64.8871,116.0479 64.8871,116.4109 64.4991,116.6349 C64.1101,116.8589 63.4811,116.8589 63.0941,116.6349 C62.7051,116.4109 62.7051,116.0479 63.0941,115.8239 C63.4811,115.5999 64.1101,115.5999 64.4991,115.8239" id="Fill-55" fill="#16110D"></path>
                <path d="M68.172,113.7028 C68.56,113.9268 68.56,114.2898 68.172,114.5148 C67.784,114.7378 67.155,114.7378 66.767,114.5148 C66.379,114.2898 66.379,113.9268 66.767,113.7028 C67.155,113.4788 67.784,113.4788 68.172,113.7028" id="Fill-57" fill="#16110D"></path>
                <path d="M71.8448,111.5822 C72.2338,111.8062 72.2338,112.1692 71.8448,112.3942 C71.4568,112.6172 70.8278,112.6172 70.4408,112.3942 C70.0518,112.1692 70.0518,111.8062 70.4408,111.5822 C70.8278,111.3582 71.4568,111.3582 71.8448,111.5822" id="Fill-59" fill="#16110D"></path>
                <path d="M79.1925,107.3405 C79.5805,107.5645 79.5805,107.9275 79.1915,108.1515 C78.8035,108.3755 78.1745,108.3755 77.7875,108.1515 C77.3995,107.9275 77.3995,107.5645 77.7875,107.3405 C78.1745,107.1165 78.8035,107.1165 79.1925,107.3405" id="Fill-61" fill="#16110D"></path>
                <path d="M82.8653,105.2199 C83.2533,105.4439 83.2533,105.8069 82.8653,106.0309 C82.4773,106.2549 81.8483,106.2549 81.4603,106.0309 C81.0723,105.8069 81.0723,105.4439 81.4603,105.2199 C81.8483,104.9959 82.4773,104.9959 82.8653,105.2199" id="Fill-63" fill="#16110D"></path>
                <path d="M75.5187,109.4616 C75.9067,109.6856 75.9067,110.0486 75.5187,110.2726 C75.1307,110.4966 74.5017,110.4966 74.1137,110.2726 C73.7257,110.0486 73.7257,109.6856 74.1137,109.4616 C74.5017,109.2376 75.1307,109.2376 75.5187,109.4616" id="Fill-65" fill="#16110D"></path>
                <path d="M38.7853,126.4279 C39.1733,126.6519 39.1733,127.0149 38.7853,127.2389 C38.3973,127.4629 37.7683,127.4629 37.3803,127.2389 C36.9923,127.0149 36.9923,126.6519 37.3803,126.4279 C37.7683,126.2039 38.3973,126.2039 38.7853,126.4279" id="Fill-67" fill="#16110D"></path>
                <path d="M42.4591,124.3073 C42.8471,124.5313 42.8471,124.8943 42.4591,125.1183 C42.0701,125.3423 41.4411,125.3423 41.0541,125.1183 C40.6651,124.8943 40.6651,124.5313 41.0541,124.3073 C41.4411,124.0833 42.0701,124.0833 42.4591,124.3073" id="Fill-69" fill="#16110D"></path>
                <path d="M46.1319,122.1862 C46.5199,122.4102 46.5199,122.7732 46.1319,122.9972 C45.7439,123.2212 45.1149,123.2212 44.7269,122.9972 C44.3389,122.7732 44.3389,122.4102 44.7269,122.1862 C45.1149,121.9622 45.7439,121.9622 46.1319,122.1862" id="Fill-71" fill="#16110D"></path>
                <path d="M49.8048,120.0656 C50.1938,120.2896 50.1938,120.6526 49.8048,120.8766 C49.4168,121.1006 48.7878,121.1006 48.4008,120.8766 C48.0128,120.6526 48.0128,120.2896 48.4008,120.0656 C48.7878,119.8416 49.4168,119.8416 49.8048,120.0656" id="Fill-73" fill="#16110D"></path>
                <path d="M53.4786,117.945 C53.8666,118.169 53.8666,118.532 53.4786,118.756 C53.0906,118.98 52.4616,118.98 52.0736,118.756 C51.6856,118.532 51.6856,118.169 52.0736,117.945 C52.4616,117.721 53.0906,117.721 53.4786,117.945" id="Fill-75" fill="#16110D"></path>
                <path d="M57.1524,115.8239 C57.5404,116.0479 57.5404,116.4109 57.1514,116.6349 C56.7634,116.8589 56.1344,116.8589 55.7474,116.6349 C55.3594,116.4109 55.3594,116.0479 55.7474,115.8239 C56.1344,115.5999 56.7634,115.5999 57.1524,115.8239" id="Fill-77" fill="#16110D"></path>
                <path d="M60.8253,113.7028 C61.2133,113.9268 61.2133,114.2898 60.8253,114.5148 C60.4373,114.7378 59.8083,114.7378 59.4203,114.5148 C59.0323,114.2898 59.0323,113.9268 59.4203,113.7028 C59.8083,113.4788 60.4373,113.4788 60.8253,113.7028" id="Fill-79" fill="#16110D"></path>
                <path d="M64.4991,111.5822 C64.8871,111.8062 64.8871,112.1692 64.4991,112.3942 C64.1101,112.6172 63.4811,112.6172 63.0941,112.3942 C62.7061,112.1692 62.7061,111.8062 63.0941,111.5822 C63.4811,111.3582 64.1101,111.3582 64.4991,111.5822" id="Fill-81" fill="#16110D"></path>
                <path d="M68.172,109.4616 C68.56,109.6856 68.56,110.0486 68.172,110.2726 C67.784,110.4966 67.155,110.4966 66.767,110.2726 C66.379,110.0486 66.379,109.6856 66.767,109.4616 C67.155,109.2376 67.784,109.2376 68.172,109.4616" id="Fill-83" fill="#16110D"></path>
                <path d="M75.5187,105.2199 C75.9067,105.4439 75.9067,105.8069 75.5187,106.0309 C75.1307,106.2549 74.5017,106.2549 74.1137,106.0309 C73.7257,105.8069 73.7257,105.4439 74.1137,105.2199 C74.5017,104.9959 75.1307,104.9959 75.5187,105.2199" id="Fill-85" fill="#16110D"></path>
                <path d="M79.1925,103.0993 C79.5805,103.3233 79.5805,103.6863 79.1925,103.9103 C78.8035,104.1343 78.1745,104.1343 77.7875,103.9103 C77.3995,103.6863 77.3995,103.3233 77.7875,103.0993 C78.1745,102.8753 78.8035,102.8753 79.1925,103.0993" id="Fill-87" fill="#16110D"></path>
                <path d="M71.8448,107.3405 C72.2338,107.5645 72.2338,107.9275 71.8448,108.1515 C71.4568,108.3755 70.8278,108.3755 70.4408,108.1515 C70.0518,107.9275 70.0518,107.5645 70.4408,107.3405 C70.8278,107.1165 71.4568,107.1165 71.8448,107.3405" id="Fill-89" fill="#16110D"></path>
                <path d="M35.0802,124.2848 C35.4682,124.5088 35.4682,124.8718 35.0802,125.0958 C34.6922,125.3198 34.0632,125.3198 33.6752,125.0958 C33.2872,124.8718 33.2872,124.5088 33.6752,124.2848 C34.0632,124.0608 34.6922,124.0608 35.0802,124.2848" id="Fill-91" fill="#16110D"></path>
                <path d="M38.754,122.1637 C39.142,122.3877 39.142,122.7507 38.754,122.9757 C38.365,123.1987 37.736,123.1987 37.349,122.9757 C36.96,122.7507 36.96,122.3877 37.349,122.1637 C37.736,121.9397 38.365,121.9397 38.754,122.1637" id="Fill-93" fill="#16110D"></path>
                <path d="M42.4269,120.0431 C42.8149,120.2671 42.8149,120.6301 42.4269,120.8541 C42.0389,121.0781 41.4099,121.0781 41.0219,120.8541 C40.6339,120.6301 40.6339,120.2671 41.0219,120.0431 C41.4099,119.8191 42.0389,119.8191 42.4269,120.0431" id="Fill-95" fill="#16110D"></path>
                <path d="M44.6954,117.9225 C45.0834,117.6985 45.7124,117.6985 46.0994,117.9225 C46.4884,118.1465 46.4884,118.5095 46.0994,118.7335 C45.7124,118.9575 45.0834,118.9575 44.6954,118.7335 C44.3074,118.5095 44.3074,118.1465 44.6954,117.9225 C45.0834,117.6985 44.3074,118.1465 44.6954,117.9225" id="Fill-97" fill="#16110D"></path>
                <path d="M49.7735,115.8014 C50.1615,116.0254 50.1615,116.3884 49.7735,116.6134 C49.3855,116.8364 48.7555,116.8364 48.3685,116.6134 C47.9805,116.3884 47.9805,116.0254 48.3685,115.8014 C48.7555,115.5774 49.3855,115.5774 49.7735,115.8014" id="Fill-99" fill="#16110D"></path>
                <path d="M41.6954,114.9225 C42.0834,114.6985 42.7124,114.6985 43.0994,114.9225 C43.4884,115.1465 43.4884,115.5095 43.0994,115.7335 C42.7124,115.9575 42.0834,115.9575 41.6954,115.7335 C41.3074,115.5095 41.3074,115.1465 41.6954,114.9225 C42.0834,114.6985 41.3074,115.1465 41.6954,114.9225" id="Fill-101" fill="#16110D"></path>
                <path d="M46.7735,112.8014 C47.1615,113.0254 47.1615,113.3884 46.7735,113.6134 C46.3855,113.8364 45.7555,113.8364 45.3685,113.6134 C44.9805,113.3884 44.9805,113.0254 45.3685,112.8014 C45.7555,112.5774 46.3855,112.5774 46.7735,112.8014" id="Fill-103" fill="#16110D"></path>
                <path d="M53.4464,113.6808 C53.8354,113.9048 53.8354,114.2678 53.4464,114.4918 C53.0584,114.7158 52.4294,114.7158 52.0424,114.4918 C51.6534,114.2678 51.6534,113.9048 52.0424,113.6808 C52.4294,113.4568 53.0584,113.4568 53.4464,113.6808" id="Fill-105" fill="#16110D"></path>
                <path d="M57.1202,111.5597 C57.5082,111.7837 57.5082,112.1467 57.1202,112.3717 C56.7322,112.5947 56.1032,112.5947 55.7152,112.3717 C55.3272,112.1467 55.3272,111.7837 55.7152,111.5597 C56.1032,111.3357 56.7322,111.3357 57.1202,111.5597" id="Fill-107" fill="#16110D"></path>
                <path d="M60.794,109.4391 C61.182,109.6631 61.182,110.0261 60.794,110.2501 C60.405,110.4741 59.776,110.4741 59.389,110.2501 C59.001,110.0261 59.001,109.6631 59.389,109.4391 C59.776,109.2151 60.405,109.2151 60.794,109.4391" id="Fill-109" fill="#16110D"></path>
                <path d="M64.4669,107.318 C64.8549,107.542 64.8549,107.905 64.4669,108.13 C64.0789,108.353 63.4499,108.353 63.0619,108.13 C62.6739,107.905 62.6739,107.542 63.0619,107.318 C63.4499,107.094 64.0789,107.094 64.4669,107.318" id="Fill-111" fill="#16110D"></path>
                <path d="M71.8136,103.0768 C72.2016,103.3008 72.2016,103.6638 71.8136,103.8878 C71.4256,104.1118 70.7956,104.1118 70.4086,103.8878 C70.0206,103.6638 70.0206,103.3008 70.4086,103.0768 C70.7956,102.8528 71.4256,102.8528 71.8136,103.0768" id="Fill-113" fill="#16110D"></path>
                <path d="M75.4864,100.9557 C75.8754,101.1797 75.8754,101.5427 75.4864,101.7667 C75.0984,101.9907 74.4694,101.9907 74.0824,101.7677 C73.6934,101.5427 73.6934,101.1797 74.0824,100.9557 C74.4694,100.7317 75.0984,100.7317 75.4864,100.9557" id="Fill-115" fill="#16110D"></path>
                <path d="M68.1397,105.1974 C68.5287,105.4214 68.5287,105.7844 68.1397,106.0094 C67.7517,106.2324 67.1227,106.2324 66.7357,106.0094 C66.3467,105.7844 66.3467,105.4214 66.7357,105.1974 C67.1227,104.9734 67.7517,104.9734 68.1397,105.1974" id="Fill-117" fill="#16110D"></path>
                <path d="M31.4063,122.1637 C31.7953,122.3877 31.7953,122.7507 31.4063,122.9757 C31.0183,123.1987 30.3893,123.1987 30.0023,122.9757 C29.6143,122.7507 29.6143,122.3877 30.0023,122.1637 C30.3893,121.9397 31.0183,121.9397 31.4063,122.1637" id="Fill-119" fill="#16110D"></path>
                <path d="M35.0802,120.0431 C35.4682,120.2671 35.4682,120.6301 35.0802,120.8541 C34.6922,121.0781 34.0632,121.0781 33.6752,120.8541 C33.2872,120.6301 33.2872,120.2671 33.6752,120.0431 C34.0632,119.8191 34.6922,119.8191 35.0802,120.0431" id="Fill-121" fill="#16110D"></path>
                <path d="M38.754,117.9225 C39.142,118.1465 39.142,118.5095 38.754,118.7335 C38.365,118.9575 37.736,118.9575 37.349,118.7335 C36.961,118.5095 36.961,118.1465 37.349,117.9225 C37.736,117.6985 38.365,117.6985 38.754,117.9225" id="Fill-123" fill="#16110D"></path>
                <path d="M49.7735,111.5597 C50.1615,111.7837 50.1615,112.1467 49.7735,112.3717 C49.3855,112.5947 48.7555,112.5947 48.3685,112.3717 C47.9805,112.1467 49.3855,111.3357 49.7735,111.5597" id="Fill-125" fill="#16110D"></path>
                <path d="M53.4464,109.4391 C53.8354,109.6631 53.8354,110.0261 53.4464,110.2501 C53.0584,110.4741 52.4294,110.4741 52.0424,110.2501 C51.6534,110.0261 51.6534,109.6631 52.0424,109.4391 C52.4294,109.2151 53.0584,109.2151 53.4464,109.4391" id="Fill-127" fill="#16110D"></path>
                <path d="M57.1202,107.318 C57.5082,107.542 57.5082,107.905 57.1202,108.13 C56.7322,108.353 56.1032,108.353 55.7152,108.13 C55.3272,107.905 55.3272,107.542 55.7152,107.318 C56.1032,107.094 56.7322,107.094 57.1202,107.318" id="Fill-129" fill="#16110D"></path>
                <path d="M60.794,105.1974 C61.182,105.4214 61.182,105.7844 60.794,106.0094 C60.405,106.2324 59.776,106.2324 59.389,106.0094 C59.001,105.7844 59.001,105.4214 59.389,105.1974 C59.776,104.9734 60.405,104.9734 60.794,105.1974" id="Fill-131" fill="#16110D"></path>
                <path d="M68.1407,100.9557 C68.5287,101.1797 68.5287,101.5427 68.1407,101.7677 C67.7517,101.9907 67.1227,101.9907 66.7357,101.7677 C66.3467,101.5427 66.3467,101.1797 66.7357,100.9557 C67.1227,100.7317 67.7517,100.7317 68.1407,100.9557" id="Fill-133" fill="#16110D"></path>
                <path d="M71.8136,98.8351 C72.2016,99.0591 72.2016,99.4221 71.8136,99.6461 C71.4256,99.8701 70.7966,99.8701 70.4086,99.6461 C70.0206,99.4221 70.0206,99.0591 70.4086,98.8351 C70.7966,98.6111 71.4256,98.6111 71.8136,98.8351" id="Fill-135" fill="#16110D"></path>
                <path d="M64.4669,103.0768 C64.8549,103.3008 64.8549,103.6638 64.4669,103.8878 C64.0789,104.1118 63.4499,104.1118 63.0619,103.8878 C62.6739,103.6638 62.6739,103.3008 63.0619,103.0768 C63.4499,102.8528 64.0789,102.8528 64.4669,103.0768" id="Fill-137" fill="#16110D"></path>
                <path d="M27.7335,120.0431 C28.1215,120.2671 28.1215,120.6301 27.7335,120.8541 C27.3455,121.0781 26.7165,121.0781 26.3285,120.8541 C25.9405,120.6301 25.9405,120.2671 26.3285,120.0431 C26.7165,119.8191 27.3455,119.8191 27.7335,120.0431" id="Fill-139" fill="#16110D"></path>
                <path d="M31.4063,117.9225 C31.7953,118.1465 31.7953,118.5095 31.4063,118.7335 C31.0183,118.9575 30.3893,118.9575 30.0023,118.7335 C29.6143,118.5095 29.6143,118.1465 30.0023,117.9225 C30.3893,117.6985 31.0183,117.6985 31.4063,117.9225" id="Fill-141" fill="#16110D"></path>
                <path d="M64.4669,98.8351 C64.8549,99.0591 64.8549,99.4221 64.4669,99.6461 C64.0789,99.8701 63.4499,99.8701 63.0619,99.6461 C62.6739,99.4221 62.6739,99.0591 63.0619,98.8351 C63.4499,98.6111 64.0789,98.6111 64.4669,98.8351" id="Fill-143" fill="#16110D"></path>
                <path d="M68.1407,96.7145 C68.5287,96.9385 68.5287,97.3015 68.1407,97.5255 C67.7517,97.7495 67.1227,97.7495 66.7357,97.5255 C66.3467,97.3015 66.3467,96.9385 66.7357,96.7145 C67.1227,96.4905 67.7517,96.4905 68.1407,96.7145" id="Fill-145" fill="#16110D"></path>
                <path d="M59.3888,100.9557 C59.7768,100.7317 60.4058,100.7317 60.7938,100.9557 C61.1818,101.1797 61.1818,101.5427 60.7938,101.7677 C60.4058,101.9907 59.7768,101.9907 59.3888,101.7677 C59.0008,101.5427 59.0008,101.1797 59.3888,100.9557 C59.7768,100.7317 59.0008,101.1797 59.3888,100.9557" id="Fill-147" fill="#16110D"></path>
                <path d="M24.0606,117.9225 C24.4486,118.1465 24.4486,118.5095 24.0606,118.7335 C23.6716,118.9575 23.0426,118.9575 22.6556,118.7335 C22.2676,118.5095 22.2676,118.1465 22.6556,117.9225 C23.0426,117.6985 23.6716,117.6985 24.0606,117.9225" id="Fill-149" fill="#16110D"></path>
                <path d="M27.7335,115.8019 C28.1215,116.0259 28.1215,116.3889 27.7335,116.6129 C27.3455,116.8369 26.7165,116.8369 26.3285,116.6129 C25.9405,116.3889 25.9405,116.0259 26.3285,115.8019 C26.7165,115.5779 27.3455,115.5779 27.7335,115.8019" id="Fill-151" fill="#16110D"></path>
                <path d="M63.0616,94.5934 C63.4506,94.3694 64.0796,94.3694 64.4666,94.5934 C64.8546,94.8174 64.8546,95.1804 64.4666,95.4054 C64.0796,95.6284 63.4506,95.6284 63.0616,95.4054 C62.6736,95.1804 62.6736,94.8174 63.0616,94.5934" id="Fill-153" fill="#16110D"></path>
                <path d="M20.3868,115.8019 C20.7748,116.0259 20.7748,116.3889 20.3868,116.6129 C19.9988,116.8369 19.3698,116.8369 18.9818,116.6129 C18.5938,116.3889 18.5938,116.0259 18.9818,115.8019 C19.3698,115.5779 19.9988,115.5779 20.3868,115.8019" id="Fill-155" fill="#16110D"></path>
                <path d="M24.0606,113.6808 C24.4486,113.9048 24.4486,114.2678 24.0606,114.4918 C23.6716,114.7158 23.0426,114.7158 22.6556,114.4918 C22.2676,114.2678 22.2676,113.9048 22.6556,113.6808 C23.0426,113.4568 23.6716,113.4568 24.0606,113.6808" id="Fill-157" fill="#16110D"></path>
                <path d="M16.714,113.6808 C17.102,113.9048 17.102,114.2678 16.714,114.4918 C16.325,114.7158 15.696,114.7158 15.309,114.4918 C14.921,114.2678 14.921,113.9048 15.309,113.6808 C15.696,113.4568 16.325,113.4568 16.714,113.6808" id="Fill-159" fill="#16110D"></path>
                <path d="M20.3868,111.5597 C20.7748,111.7837 20.7748,112.1467 20.3868,112.3717 C19.9988,112.5947 19.3698,112.5947 18.9818,112.3717 C18.5938,112.1467 18.5938,111.7837 18.9818,111.5597 C19.3698,111.3357 19.9988,111.3357 20.3868,111.5597" id="Fill-161" fill="#16110D"></path>
                <path d="M13.0401,111.5597 C13.4281,111.7837 13.4281,112.1467 13.0401,112.3717 C12.6521,112.5947 12.0231,112.5947 11.6361,112.3717 C11.2471,112.1467 11.2471,111.7837 11.6361,111.5597 C12.0231,111.3357 12.6521,111.3357 13.0401,111.5597" id="Fill-163" fill="#16110D"></path>
                <path d="M16.714,109.4391 C17.102,109.6631 17.102,110.0261 16.714,110.2511 C16.325,110.4741 15.696,110.4741 15.309,110.2511 C14.921,110.0261 14.921,109.6631 15.309,109.4391 C15.696,109.2151 16.325,109.2151 16.714,109.4391" id="Fill-165" fill="#16110D"></path>
                <path d="M9.3673,109.4391 C9.7553,109.6631 9.7553,110.0261 9.3673,110.2511 C8.9783,110.4741 8.3493,110.4741 7.9623,110.2511 C7.5743,110.0261 7.5743,109.6631 7.9623,109.4391 C8.3493,109.2151 8.9783,109.2151 9.3673,109.4391" id="Fill-167" fill="#16110D"></path>
                <path d="M13.0401,107.3185 C13.4291,107.5425 13.4291,107.9055 13.0401,108.1295 C12.6521,108.3535 12.0231,108.3535 11.6361,108.1295 C11.2471,107.9055 11.2471,107.5425 11.6361,107.3185 C12.0231,107.0945 12.6521,107.0945 13.0401,107.3185" id="Fill-169" fill="#16110D"></path>
                <path d="M5.6622,107.296 C6.0502,107.52 6.0502,107.883 5.6622,108.108 C5.2732,108.331 4.6442,108.331 4.2572,108.108 C3.8692,107.883 3.8692,107.52 4.2572,107.296 C4.6442,107.072 5.2732,107.072 5.6622,107.296" id="Fill-171" fill="#16110D"></path>
                <path d="M9.3351,105.1754 C9.7231,105.3994 9.7231,105.7624 9.3351,105.9864 C8.9471,106.2104 8.3181,106.2104 7.9301,105.9864 C7.5421,105.7624 7.5421,105.3994 7.9301,105.1754 C8.3181,104.9514 8.9471,104.9514 9.3351,105.1754" id="Fill-173" fill="#16110D"></path>
                <path d="M5.6622,103.0544 C6.0502,103.2784 6.0502,103.6414 5.6622,103.8664 C5.2732,104.0894 4.6442,104.0894 4.2572,103.8664 C3.8692,103.6414 3.8692,103.2784 4.2572,103.0544 C4.6442,102.8304 5.2732,102.8304 5.6622,103.0544" id="Fill-175" fill="#16110D"></path>
                <path d="M92.4874,107.3708 C92.8744,107.1458 93.5034,107.1458 93.8914,107.3698 C94.2804,107.5928 94.2814,107.9558 93.8944,108.1808 C93.5074,108.4048 92.8784,108.4058 92.4894,108.1818 C92.1004,107.9578 92.0994,107.5948 92.4874,107.3708" id="Fill-177" fill="#16110D"></path>
                <path d="M97.5704,105.2472 C97.9584,105.4712 97.9584,105.8342 97.5704,106.0582 C97.1814,106.2822 96.5524,106.2822 96.1654,106.0582 C95.7774,105.8342 95.7774,105.4712 96.1654,105.2472 C96.5524,105.0232 97.1814,105.0232 97.5704,105.2472" id="Fill-179" fill="#16110D"></path>
                <path d="M101.2433,103.1266 C101.6313,103.3506 101.6313,103.7136 101.2433,103.9376 C100.8553,104.1616 100.2263,104.1616 99.8383,103.9376 C99.4503,103.7136 99.4503,103.3506 99.8383,103.1266 C100.2263,102.9026 100.8553,102.9026 101.2433,103.1266" id="Fill-181" fill="#16110D"></path>
                <path d="M104.9161,101.0055 C105.3051,101.2295 105.3051,101.5925 104.9161,101.8165 C104.5281,102.0405 103.8991,102.0405 103.5121,101.8165 C103.1241,101.5925 103.1241,101.2295 103.5121,101.0055 C103.8991,100.7815 104.5281,100.7815 104.9161,101.0055" id="Fill-183" fill="#16110D"></path>
                <path d="M108.5899,98.8849 C108.9779,99.1089 108.9779,99.4719 108.5899,99.6959 C108.2019,99.9199 107.5729,99.9199 107.1849,99.6959 C106.7969,99.4719 106.7969,99.1089 107.1849,98.8849 C107.5729,98.6609 108.2019,98.6609 108.5899,98.8849" id="Fill-185" fill="#16110D"></path>
                <path d="M112.2638,96.7643 C112.6518,96.9883 112.6518,97.3513 112.2638,97.5753 C111.8748,97.7993 111.2458,97.7993 110.8588,97.5753 C110.4708,97.3513 110.4708,96.9883 110.8588,96.7643 C111.2458,96.5403 111.8748,96.5403 112.2638,96.7643" id="Fill-187" fill="#16110D"></path>
                <path d="M115.9366,94.6432 C116.3246,94.8672 116.3246,95.2302 115.9366,95.4542 C115.5486,95.6782 114.9196,95.6782 114.5316,95.4542 C114.1436,95.2302 114.1436,94.8672 114.5316,94.6432 C114.9196,94.4192 115.5486,94.4192 115.9366,94.6432" id="Fill-189" fill="#16110D"></path>
                <path d="M119.6104,92.5226 C119.9984,92.7466 119.9984,93.1096 119.6104,93.3336 C119.2214,93.5576 118.5924,93.5576 118.2054,93.3336 C117.8174,93.1096 117.8174,92.7466 118.2054,92.5226 C118.5924,92.2986 119.2214,92.2986 119.6104,92.5226" id="Fill-191" fill="#16110D"></path>
                <path d="M126.9562,88.2809 C127.3452,88.5049 127.3452,88.8679 126.9562,89.0919 C126.5682,89.3159 125.9392,89.3159 125.5522,89.0919 C125.1632,88.8679 125.1632,88.5049 125.5522,88.2809 C125.9392,88.0569 126.5682,88.0569 126.9562,88.2809" id="Fill-193" fill="#16110D"></path>
                <path d="M130.63,86.1598 C131.018,86.3838 131.018,86.7468 130.63,86.9718 C130.242,87.1948 129.613,87.1948 129.225,86.9718 C128.837,86.7468 128.837,86.3838 129.225,86.1598 C129.613,85.9358 130.242,85.9358 130.63,86.1598" id="Fill-195" fill="#16110D"></path>
                <path d="M88.8136,105.2502 C89.2016,105.0252 89.8306,105.0252 90.2186,105.2492 C90.6076,105.4722 90.6086,105.8352 90.2206,106.0602 C89.8346,106.2842 89.2056,106.2852 88.8166,106.0612 C88.4276,105.8372 88.4266,105.4742 88.8136,105.2502" id="Fill-197" fill="#16110D"></path>
                <path d="M93.8966,103.1266 C94.2846,103.3506 94.2846,103.7136 93.8966,103.9376 C93.5086,104.1616 92.8796,104.1616 92.4916,103.9376 C92.1036,103.7136 92.1036,103.3506 92.4916,103.1266 C92.8796,102.9026 93.5086,102.9026 93.8966,103.1266" id="Fill-199" fill="#16110D"></path>
                <path d="M97.5704,101.0055 C97.9584,101.2295 97.9584,101.5925 97.5704,101.8165 C97.1814,102.0405 96.5524,102.0405 96.1654,101.8165 C95.7774,101.5925 95.7774,101.2295 96.1654,101.0055 C96.5524,100.7815 97.1814,100.7815 97.5704,101.0055" id="Fill-201" fill="#16110D"></path>
                <path d="M101.2433,98.8849 C101.6313,99.1089 101.6313,99.4719 101.2433,99.6959 C100.8553,99.9199 100.2263,99.9199 99.8383,99.6959 C99.4503,99.4719 99.4503,99.1089 99.8383,98.8849 C100.2263,98.6609 100.8553,98.6609 101.2433,98.8849" id="Fill-203" fill="#16110D"></path>
                <path d="M123.2833,90.4015 C123.6713,90.6255 123.6713,90.9885 123.2833,91.2125 C122.8953,91.4365 122.2663,91.4365 121.8783,91.2125 C121.4903,90.9885 121.4903,90.6255 121.8783,90.4015 C122.2663,90.1775 122.8953,90.1775 123.2833,90.4015" id="Fill-205" fill="#16110D"></path>
                <path d="M104.9161,96.7643 C105.3051,96.9883 105.3051,97.3513 104.9161,97.5753 C104.5281,97.7993 103.8991,97.7993 103.5121,97.5753 C103.1241,97.3513 103.1241,96.9883 103.5121,96.7643 C103.8991,96.5403 104.5281,96.5403 104.9161,96.7643" id="Fill-207" fill="#16110D"></path>
                <path d="M108.5899,94.6432 C108.9779,94.8672 108.9779,95.2302 108.5899,95.4542 C108.2019,95.6782 107.5729,95.6782 107.1849,95.4542 C106.7969,95.2302 106.7969,94.8672 107.1849,94.6432 C107.5729,94.4192 108.2019,94.4192 108.5899,94.6432" id="Fill-209" fill="#16110D"></path>
                <path d="M112.2638,92.5226 C112.6518,92.7466 112.6518,93.1096 112.2638,93.3336 C111.8748,93.5576 111.2458,93.5576 110.8588,93.3336 C110.4708,93.1096 110.4708,92.7466 110.8588,92.5226 C111.2458,92.2986 111.8748,92.2986 112.2638,92.5226" id="Fill-211" fill="#16110D"></path>
                <path d="M115.9366,90.4015 C116.3246,90.6255 116.3246,90.9885 115.9366,91.2125 C115.5486,91.4365 114.9196,91.4365 114.5316,91.2125 C114.1436,90.9885 114.1436,90.6255 114.5316,90.4015 C114.9196,90.1775 115.5486,90.1775 115.9366,90.4015" id="Fill-213" fill="#16110D"></path>
                <path d="M119.6104,88.2809 C119.9984,88.5049 119.9984,88.8679 119.6104,89.0919 C119.2214,89.3159 118.5924,89.3159 118.2054,89.0919 C117.8174,88.8679 117.8174,88.5049 118.2054,88.2809 C118.5924,88.0569 119.2214,88.0569 119.6104,88.2809" id="Fill-215" fill="#16110D"></path>
                <path d="M123.2833,86.1598 C123.6713,86.3838 123.6713,86.7468 123.2833,86.9718 C122.8953,87.1948 122.2663,87.1948 121.8783,86.9718 C121.4903,86.7468 121.4903,86.3838 121.8783,86.1598 C122.2663,85.9358 122.8953,85.9358 123.2833,86.1598" id="Fill-217" fill="#16110D"></path>
                <path d="M130.63,81.9186 C131.018,82.1426 131.018,82.5056 130.63,82.7296 C130.242,82.9536 129.613,82.9536 129.225,82.7296 C128.837,82.5056 128.837,82.1426 129.225,81.9186 C129.613,81.6946 130.242,81.6946 130.63,81.9186" id="Fill-219" fill="#16110D"></path>
                <path d="M85.1407,103.1291 C85.5277,102.9051 86.1567,102.9041 86.5447,103.1281 C86.9337,103.3511 86.9347,103.7141 86.5477,103.9391 C86.1607,104.1631 85.5317,104.1641 85.1427,103.9411 C84.7537,103.7171 84.7527,103.3541 85.1407,103.1291" id="Fill-221" fill="#16110D"></path>
                <path d="M90.2237,101.0055 C90.6117,101.2295 90.6117,101.5925 90.2237,101.8165 C89.8347,102.0405 89.2057,102.0405 88.8187,101.8165 C88.4307,101.5925 88.4307,101.2295 88.8187,101.0055 C89.2057,100.7815 89.8347,100.7815 90.2237,101.0055" id="Fill-223" fill="#16110D"></path>
                <path d="M93.8966,98.8849 C94.2846,99.1089 94.2846,99.4719 93.8966,99.6959 C93.5086,99.9199 92.8796,99.9199 92.4916,99.6959 C92.1036,99.4719 92.1036,99.1089 92.4916,98.8849 C92.8796,98.6609 93.5086,98.6609 93.8966,98.8849" id="Fill-225" fill="#16110D"></path>
                <path d="M97.5704,96.7643 C97.9584,96.9883 97.9584,97.3513 97.5704,97.5753 C97.1814,97.7993 96.5524,97.7993 96.1654,97.5753 C95.7774,97.3513 95.7774,96.9883 96.1654,96.7643 C96.5524,96.5403 97.1814,96.5403 97.5704,96.7643" id="Fill-227" fill="#16110D"></path>
                <path d="M126.9571,84.0392 C127.3451,84.2632 127.3451,84.6262 126.9571,84.8502 C126.5681,85.0742 125.9391,85.0742 125.5521,84.8502 C125.1631,84.6262 125.1631,84.2632 125.5521,84.0392 C125.9391,83.8152 126.5681,83.8152 126.9571,84.0392" id="Fill-229" fill="#16110D"></path>
                <path d="M101.2433,94.6432 C101.6313,94.8672 101.6313,95.2302 101.2433,95.4542 C100.8553,95.6782 100.2263,95.6782 99.8383,95.4542 C99.4503,95.2302 99.4503,94.8672 99.8383,94.6432 C100.2263,94.4192 100.8553,94.4192 101.2433,94.6432" id="Fill-231" fill="#16110D"></path>
                <path d="M104.9171,92.5226 C105.3051,92.7466 105.3051,93.1096 104.9171,93.3336 C104.5281,93.5576 103.8991,93.5576 103.5121,93.3336 C103.1241,93.1096 103.1241,92.7466 103.5121,92.5226 C103.8991,92.2986 104.5281,92.2986 104.9171,92.5226" id="Fill-233" fill="#16110D"></path>
                <path d="M108.5899,90.4015 C108.9779,90.6255 108.9779,90.9885 108.5899,91.2135 C108.2019,91.4365 107.5729,91.4365 107.1849,91.2135 C106.7969,90.9885 106.7969,90.6255 107.1849,90.4015 C107.5729,90.1775 108.2019,90.1775 108.5899,90.4015" id="Fill-235" fill="#16110D"></path>
                <path d="M112.2638,88.2809 C112.6518,88.5049 112.6518,88.8679 112.2638,89.0919 C111.8748,89.3159 111.2458,89.3159 110.8588,89.0919 C110.4708,88.8679 110.4708,88.5049 110.8588,88.2809 C111.2458,88.0569 111.8748,88.0569 112.2638,88.2809" id="Fill-237" fill="#16110D"></path>
                <path d="M115.9366,86.1598 C116.3246,86.3838 116.3246,86.7468 115.9366,86.9718 C115.5486,87.1948 114.9196,87.1948 114.5316,86.9718 C114.1436,86.7468 114.1436,86.3838 114.5316,86.1598 C114.9196,85.9358 115.5486,85.9358 115.9366,86.1598" id="Fill-239" fill="#16110D"></path>
                <path d="M119.6104,84.0392 C119.9984,84.2632 119.9984,84.6262 119.6104,84.8502 C119.2214,85.0742 118.5924,85.0742 118.2054,84.8502 C117.8174,84.6262 117.8174,84.2632 118.2054,84.0392 C118.5924,83.8152 119.2214,83.8152 119.6104,84.0392" id="Fill-241" fill="#16110D"></path>
                <path d="M123.2833,81.9186 C123.6713,82.1426 123.6713,82.5056 123.2833,82.7296 C122.8953,82.9536 122.2663,82.9536 121.8783,82.7296 C121.4903,82.5056 121.4903,82.1426 121.8783,81.9186 C122.2663,81.6946 122.8953,81.6946 123.2833,81.9186" id="Fill-243" fill="#16110D"></path>
                <path d="M126.9571,79.7975 C127.3451,80.0215 127.3451,80.3845 126.9571,80.6085 C126.5681,80.8325 125.9391,80.8325 125.5521,80.6085 C125.1641,80.3845 125.1641,80.0215 125.5521,79.7975 C125.9391,79.5735 126.5681,79.5735 126.9571,79.7975" id="Fill-245" fill="#16110D"></path>
                <path d="M130.63,77.6769 C131.018,77.9009 131.018,78.2639 130.63,78.4879 C130.242,78.7119 129.613,78.7119 129.225,78.4879 C128.837,78.2639 128.837,77.9009 129.225,77.6769 C129.613,77.4529 130.242,77.4529 130.63,77.6769" id="Fill-247" fill="#16110D"></path>
                <path d="M81.4669,101.0085 C81.8549,100.7835 82.4839,100.7835 82.8719,101.0075 C83.2609,101.2305 83.2619,101.5935 82.8739,101.8185 C82.4879,102.0425 81.8589,102.0435 81.4699,101.8195 C81.0809,101.5955 81.0799,101.2325 81.4669,101.0085" id="Fill-249" fill="#16110D"></path>
                <path d="M86.5499,98.8849 C86.9389,99.1089 86.9389,99.4719 86.5499,99.6959 C86.1619,99.9199 85.5329,99.9199 85.1449,99.6959 C84.7569,99.4719 84.7569,99.1089 85.1449,98.8849 C85.5329,98.6609 86.1619,98.6609 86.5499,98.8849" id="Fill-251" fill="#16110D"></path>
                <path d="M90.2237,96.7643 C90.6117,96.9883 90.6117,97.3513 90.2237,97.5753 C89.8347,97.7993 89.2057,97.7993 88.8187,97.5753 C88.4307,97.3513 88.4307,96.9883 88.8187,96.7643 C89.2057,96.5403 89.8347,96.5403 90.2237,96.7643" id="Fill-253" fill="#16110D"></path>
                <path d="M93.8966,94.6432 C94.2846,94.8672 94.2846,95.2302 93.8966,95.4542 C93.5086,95.6782 92.8796,95.6782 92.4916,95.4542 C92.1036,95.2302 92.1036,94.8672 92.4916,94.6432 C92.8796,94.4192 93.5086,94.4192 93.8966,94.6432" id="Fill-255" fill="#16110D"></path>
                <path d="M97.5704,92.5226 C97.9584,92.7466 97.9584,93.1096 97.5704,93.3336 C97.1814,93.5576 96.5524,93.5576 96.1654,93.3336 C95.7774,93.1096 95.7774,92.7466 96.1654,92.5226 C96.5524,92.2986 97.1814,92.2986 97.5704,92.5226" id="Fill-257" fill="#16110D"></path>
                <path d="M101.2433,90.4015 C101.6313,90.6255 101.6313,90.9885 101.2433,91.2135 C100.8553,91.4365 100.2263,91.4365 99.8383,91.2135 C99.4503,90.9885 99.4503,90.6255 99.8383,90.4015 C100.2263,90.1775 100.8553,90.1775 101.2433,90.4015" id="Fill-259" fill="#16110D"></path>
                <path d="M104.9171,88.2809 C105.3051,88.5049 105.3051,88.8679 104.9171,89.0919 C104.5281,89.3159 103.8991,89.3159 103.5121,89.0919 C103.1241,88.8679 103.1241,88.5049 103.5121,88.2809 C103.8991,88.0569 104.5281,88.0569 104.9171,88.2809" id="Fill-261" fill="#16110D"></path>
                <path d="M108.5899,86.1598 C108.9779,86.3838 108.9779,86.7468 108.5899,86.9718 C108.2019,87.1948 107.5729,87.1948 107.1859,86.9718 C106.7969,86.7468 106.7969,86.3838 107.1859,86.1598 C107.5729,85.9358 108.2019,85.9358 108.5899,86.1598" id="Fill-263" fill="#16110D"></path>
                <path d="M112.2638,84.0392 C112.6518,84.2632 112.6518,84.6262 112.2638,84.8502 C111.8748,85.0742 111.2458,85.0742 110.8588,84.8502 C110.4708,84.6262 110.4708,84.2632 110.8588,84.0392 C111.2458,83.8152 111.8748,83.8152 112.2638,84.0392" id="Fill-265" fill="#16110D"></path>
                <path d="M115.9366,81.9186 C116.3246,82.1426 116.3246,82.5056 115.9366,82.7296 C115.5486,82.9536 114.9196,82.9536 114.5316,82.7296 C114.1436,82.5056 114.1436,82.1426 114.5316,81.9186 C114.9196,81.6946 115.5486,81.6946 115.9366,81.9186" id="Fill-267" fill="#16110D"></path>
                <path d="M119.6104,79.7975 C119.9984,80.0215 119.9984,80.3845 119.6104,80.6085 C119.2214,80.8325 118.5924,80.8325 118.2054,80.6085 C117.8174,80.3845 117.8174,80.0215 118.2054,79.7975 C118.5924,79.5735 119.2214,79.5735 119.6104,79.7975" id="Fill-269" fill="#16110D"></path>
                <path d="M123.2833,77.6769 C123.6713,77.9009 123.6713,78.2639 123.2833,78.4879 C122.8953,78.7119 122.2663,78.7119 121.8783,78.4879 C121.4903,78.2639 121.4903,77.9009 121.8783,77.6769 C122.2663,77.4529 122.8953,77.4529 123.2833,77.6769" id="Fill-271" fill="#16110D"></path>
                <path d="M126.9571,75.5563 C127.3451,75.7803 127.3451,76.1433 126.9571,76.3673 C126.5681,76.5913 125.9391,76.5913 125.5521,76.3673 C125.1641,76.1433 125.1641,75.7803 125.5521,75.5563 C125.9391,75.3323 126.5681,75.3323 126.9571,75.5563" id="Fill-273" fill="#16110D"></path>
                <path d="M130.63,73.4352 C131.018,73.6592 131.018,74.0222 130.63,74.2462 C130.242,74.4702 129.613,74.4702 129.225,74.2462 C128.837,74.0222 128.837,73.6592 129.225,73.4352 C129.613,73.2112 130.242,73.2112 130.63,73.4352" id="Fill-275" fill="#16110D"></path>
                <path d="M134.3028,71.3146 C134.6918,71.5386 134.6918,71.9016 134.3028,72.1256 C133.9148,72.3496 133.2858,72.3496 132.8988,72.1256 C132.5108,71.9016 132.5108,71.5386 132.8988,71.3146 C133.2858,71.0906 133.9148,71.0906 134.3028,71.3146" id="Fill-277" fill="#16110D"></path>
                <path d="M77.7618,98.8654 C78.1498,98.6404 78.7788,98.6404 79.1668,98.8644 C79.5558,99.0874 79.5568,99.4504 79.1688,99.6754 C78.7828,99.8994 78.1538,99.9004 77.7648,99.6764 C77.3758,99.4524 77.3738,99.0894 77.7618,98.8654" id="Fill-279" fill="#16110D"></path>
                <path d="M82.8448,96.7419 C83.2328,96.9659 83.2328,97.3289 82.8448,97.5529 C82.4568,97.7769 81.8278,97.7769 81.4398,97.5529 C81.0518,97.3289 81.0518,96.9659 81.4398,96.7419 C81.8278,96.5179 82.4568,96.5179 82.8448,96.7419" id="Fill-281" fill="#16110D"></path>
                <path d="M86.5177,94.6212 C86.9067,94.8452 86.9067,95.2082 86.5177,95.4322 C86.1297,95.6562 85.5007,95.6562 85.1137,95.4322 C84.7257,95.2082 84.7257,94.8452 85.1137,94.6212 C85.5007,94.3972 86.1297,94.3972 86.5177,94.6212" id="Fill-283" fill="#16110D"></path>
                <path d="M90.1915,92.5002 C90.5795,92.7242 90.5795,93.0872 90.1915,93.3112 C89.8035,93.5352 89.1745,93.5352 88.7865,93.3112 C88.3985,93.0872 88.3985,92.7242 88.7865,92.5002 C89.1745,92.2762 89.8035,92.2762 90.1915,92.5002" id="Fill-285" fill="#16110D"></path>
                <path d="M93.8653,90.3795 C94.2533,90.6035 94.2533,90.9665 93.8653,91.1905 C93.4763,91.4145 92.8473,91.4145 92.4603,91.1905 C92.0723,90.9665 92.0723,90.6035 92.4603,90.3795 C92.8473,90.1555 93.4763,90.1555 93.8653,90.3795" id="Fill-287" fill="#16110D"></path>
                <path d="M97.5382,88.2585 C97.9262,88.4825 97.9262,88.8455 97.5382,89.0695 C97.1502,89.2935 96.5212,89.2935 96.1332,89.0695 C95.7452,88.8455 95.7452,88.4825 96.1332,88.2585 C96.5212,88.0345 97.1502,88.0345 97.5382,88.2585" id="Fill-289" fill="#16110D"></path>
                <path d="M101.212,86.1378 C101.6,86.3618 101.6,86.7248 101.212,86.9488 C100.823,87.1728 100.194,87.1728 99.807,86.9488 C99.419,86.7248 99.419,86.3618 99.807,86.1378 C100.194,85.9138 100.823,85.9138 101.212,86.1378" id="Fill-291" fill="#16110D"></path>
                <path d="M104.8849,84.0172 C105.2729,84.2412 105.2729,84.6042 104.8849,84.8282 C104.4969,85.0522 103.8679,85.0522 103.4799,84.8282 C103.0919,84.6042 103.0919,84.2412 103.4799,84.0172 C103.8679,83.7932 104.4969,83.7932 104.8849,84.0172" id="Fill-293" fill="#16110D"></path>
                <path d="M108.5577,81.8961 C108.9467,82.1201 108.9467,82.4831 108.5577,82.7071 C108.1697,82.9311 107.5407,82.9311 107.1537,82.7071 C106.7657,82.4831 106.7657,82.1201 107.1537,81.8961 C107.5407,81.6721 108.1697,81.6721 108.5577,81.8961" id="Fill-295" fill="#16110D"></path>
                <path d="M112.2315,79.7755 C112.6195,79.9995 112.6195,80.3625 112.2315,80.5865 C111.8435,80.8105 111.2145,80.8105 110.8265,80.5865 C110.4385,80.3625 110.4385,79.9995 110.8265,79.7755 C111.2145,79.5515 111.8435,79.5515 112.2315,79.7755" id="Fill-297" fill="#16110D"></path>
                <path d="M115.9044,77.6544 C116.2934,77.8784 116.2934,78.2414 115.9044,78.4654 C115.5164,78.6894 114.8874,78.6894 114.5004,78.4654 C114.1114,78.2414 114.1114,77.8784 114.5004,77.6544 C114.8874,77.4304 115.5164,77.4304 115.9044,77.6544" id="Fill-299" fill="#16110D"></path>
                <path d="M119.5782,75.5338 C119.9662,75.7578 119.9662,76.1208 119.5782,76.3448 C119.1902,76.5688 118.5612,76.5688 118.1732,76.3448 C117.7852,76.1208 117.7852,75.7578 118.1732,75.5338 C118.5612,75.3098 119.1902,75.3098 119.5782,75.5338" id="Fill-301" fill="#16110D"></path>
                <path d="M123.252,73.4132 C123.64,73.6372 123.64,74.0002 123.252,74.2242 C122.863,74.4482 122.234,74.4482 121.847,74.2242 C121.459,74.0002 121.459,73.6372 121.847,73.4132 C122.234,73.1892 122.863,73.1892 123.252,73.4132" id="Fill-303" fill="#16110D"></path>
                <path d="M126.9249,71.2921 C127.3129,71.5161 127.3129,71.8791 126.9249,72.1031 C126.5369,72.3271 125.9079,72.3271 125.5199,72.1031 C125.1319,71.8791 125.1319,71.5161 125.5199,71.2921 C125.9079,71.0681 126.5369,71.0681 126.9249,71.2921" id="Fill-305" fill="#16110D"></path>
                <path d="M130.5978,69.1715 C130.9868,69.3955 130.9868,69.7585 130.5978,69.9825 C130.2098,70.2065 129.5808,70.2065 129.1938,69.9825 C128.8048,69.7585 128.8048,69.3955 129.1938,69.1715 C129.5808,68.9475 130.2098,68.9475 130.5978,69.1715" id="Fill-307" fill="#16110D"></path>
                <path d="M134.2716,67.0504 C134.6596,67.2744 134.6596,67.6374 134.2716,67.8614 C133.8836,68.0854 133.2536,68.0854 132.8666,67.8614 C132.4786,67.6374 132.4786,67.2744 132.8666,67.0504 C133.2546,66.8264 133.8836,66.8264 134.2716,67.0504" id="Fill-309" fill="#16110D"></path>
                <path d="M74.089,96.7443 C74.476,96.5203 75.105,96.5193 75.493,96.7433 C75.882,96.9663 75.883,97.3293 75.496,97.5543 C75.109,97.7783 74.48,97.7793 74.091,97.5563 C73.702,97.3323 73.701,96.9693 74.089,96.7443" id="Fill-311" fill="#16110D"></path>
                <path d="M79.172,94.6212 C79.56,94.8452 79.56,95.2082 79.172,95.4322 C78.783,95.6562 78.154,95.6562 77.767,95.4322 C77.379,95.2082 77.379,94.8452 77.767,94.6212 C78.154,94.3972 78.783,94.3972 79.172,94.6212" id="Fill-313" fill="#16110D"></path>
                <path d="M82.8448,92.5002 C83.2328,92.7242 83.2328,93.0872 82.8448,93.3112 C82.4568,93.5352 81.8278,93.5352 81.4398,93.3112 C81.0518,93.0872 81.0518,92.7242 81.4398,92.5002 C81.8278,92.2762 82.4568,92.2762 82.8448,92.5002" id="Fill-315" fill="#16110D"></path>
                <path d="M86.5177,90.3795 C86.9067,90.6035 86.9067,90.9665 86.5177,91.1905 C86.1297,91.4145 85.5007,91.4145 85.1137,91.1905 C84.7257,90.9665 84.7257,90.6035 85.1137,90.3795 C85.5007,90.1555 86.1297,90.1555 86.5177,90.3795" id="Fill-317" fill="#16110D"></path>
                <path d="M90.1915,88.2585 C90.5795,88.4825 90.5795,88.8455 90.1915,89.0705 C89.8035,89.2935 89.1745,89.2935 88.7865,89.0705 C88.3985,88.8455 88.3985,88.4825 88.7865,88.2585 C89.1745,88.0345 89.8035,88.0345 90.1915,88.2585" id="Fill-319" fill="#16110D"></path>
                <path d="M93.8653,86.1378 C94.2533,86.3618 94.2533,86.7248 93.8653,86.9488 C93.4763,87.1728 92.8473,87.1728 92.4603,86.9488 C92.0723,86.7248 92.0723,86.3618 92.4603,86.1378 C92.8473,85.9138 93.4763,85.9138 93.8653,86.1378" id="Fill-321" fill="#16110D"></path>
                <path d="M97.5382,84.0172 C97.9262,84.2412 97.9262,84.6042 97.5382,84.8282 C97.1502,85.0522 96.5212,85.0522 96.1332,84.8282 C95.7452,84.6042 95.7452,84.2412 96.1332,84.0172 C96.5212,83.7932 97.1502,83.7932 97.5382,84.0172" id="Fill-323" fill="#16110D"></path>
                <path d="M101.212,81.8961 C101.6,82.1201 101.6,82.4831 101.212,82.7071 C100.823,82.9311 100.194,82.9311 99.807,82.7071 C99.419,82.4831 99.419,82.1201 99.807,81.8961 C100.194,81.6721 100.823,81.6721 101.212,81.8961" id="Fill-325" fill="#16110D"></path>
                <path d="M104.8849,79.7755 C105.2729,79.9995 105.2729,80.3625 104.8849,80.5865 C104.4969,80.8105 103.8679,80.8105 103.4799,80.5865 C103.0919,80.3625 103.0919,79.9995 103.4799,79.7755 C103.8679,79.5515 104.4969,79.5515 104.8849,79.7755" id="Fill-327" fill="#16110D"></path>
                <path d="M108.5577,77.6544 C108.9467,77.8784 108.9467,78.2414 108.5577,78.4654 C108.1697,78.6894 107.5407,78.6894 107.1537,78.4654 C106.7657,78.2414 106.7657,77.8784 107.1537,77.6544 C107.5407,77.4304 108.1697,77.4304 108.5577,77.6544" id="Fill-329" fill="#16110D"></path>
                <path d="M112.2315,75.5338 C112.6195,75.7578 112.6195,76.1208 112.2315,76.3448 C111.8435,76.5688 111.2145,76.5688 110.8265,76.3448 C110.4385,76.1208 110.4385,75.7578 110.8265,75.5338 C111.2145,75.3098 111.8435,75.3098 112.2315,75.5338" id="Fill-331" fill="#16110D"></path>
                <path d="M115.9044,73.4132 C116.2934,73.6372 116.2934,74.0002 115.9044,74.2242 C115.5164,74.4482 114.8874,74.4482 114.5004,74.2242 C114.1124,74.0002 114.1124,73.6372 114.5004,73.4132 C114.8874,73.1892 115.5164,73.1892 115.9044,73.4132" id="Fill-333" fill="#16110D"></path>
                <path d="M119.5782,71.2921 C119.9662,71.5161 119.9662,71.8791 119.5782,72.1031 C119.1902,72.3271 118.5612,72.3271 118.1732,72.1031 C117.7852,71.8791 117.7852,71.5161 118.1732,71.2921 C118.5612,71.0681 119.1902,71.0681 119.5782,71.2921" id="Fill-335" fill="#16110D"></path>
                <path d="M123.252,69.1715 C123.64,69.3955 123.64,69.7585 123.252,69.9825 C122.863,70.2065 122.234,70.2065 121.847,69.9825 C121.459,69.7585 121.459,69.3955 121.847,69.1715 C122.234,68.9475 122.863,68.9475 123.252,69.1715" id="Fill-337" fill="#16110D"></path>
                <path d="M126.9249,67.0504 C127.3129,67.2744 127.3129,67.6374 126.9249,67.8614 C126.5369,68.0854 125.9079,68.0854 125.5199,67.8614 C125.1319,67.6374 125.1319,67.2744 125.5199,67.0504 C125.9079,66.8264 126.5369,66.8264 126.9249,67.0504" id="Fill-339" fill="#16110D"></path>
                <path d="M130.5987,64.9298 C130.9867,65.1538 130.9867,65.5168 130.5987,65.7408 C130.2097,65.9648 129.5807,65.9648 129.1937,65.7408 C128.8047,65.5168 128.8047,65.1538 129.1937,64.9298 C129.5807,64.7058 130.2097,64.7058 130.5987,64.9298" id="Fill-341" fill="#16110D"></path>
                <path d="M70.4151,94.6237 C70.8031,94.3997 71.4321,94.3987 71.8201,94.6227 C72.2091,94.8457 72.2101,95.2087 71.8221,95.4337 C71.4361,95.6577 70.8071,95.6587 70.4181,95.4347 C70.0291,95.2107 70.0281,94.8487 70.4151,94.6237" id="Fill-343" fill="#16110D"></path>
                <path d="M75.4981,92.5002 C75.8861,92.7242 75.8861,93.0872 75.4981,93.3112 C75.1101,93.5352 74.4811,93.5352 74.0931,93.3112 C73.7051,93.0872 73.7051,92.7242 74.0931,92.5002 C74.4811,92.2762 75.1101,92.2762 75.4981,92.5002" id="Fill-345" fill="#16110D"></path>
                <path d="M79.172,90.3795 C79.56,90.6035 79.56,90.9665 79.172,91.1905 C78.783,91.4145 78.154,91.4145 77.767,91.1905 C77.379,90.9665 77.379,90.6035 77.767,90.3795 C78.154,90.1555 78.783,90.1555 79.172,90.3795" id="Fill-347" fill="#16110D"></path>
                <path d="M82.8448,88.2585 C83.2328,88.4825 83.2328,88.8455 82.8448,89.0705 C82.4568,89.2935 81.8278,89.2935 81.4398,89.0705 C81.0518,88.8455 81.0518,88.4825 81.4398,88.2585 C81.8278,88.0345 82.4568,88.0345 82.8448,88.2585" id="Fill-349" fill="#16110D"></path>
                <path d="M86.5177,86.1378 C86.9067,86.3618 86.9067,86.7248 86.5177,86.9488 C86.1297,87.1728 85.5007,87.1728 85.1137,86.9488 C84.7257,86.7248 84.7257,86.3618 85.1137,86.1378 C85.5007,85.9138 86.1297,85.9138 86.5177,86.1378" id="Fill-351" fill="#16110D"></path>
                <path d="M90.1915,84.0172 C90.5795,84.2412 90.5795,84.6042 90.1915,84.8282 C89.8035,85.0522 89.1745,85.0522 88.7865,84.8282 C88.3985,84.6042 88.3985,84.2412 88.7865,84.0172 C89.1745,83.7932 89.8035,83.7932 90.1915,84.0172" id="Fill-353" fill="#16110D"></path>
                <path d="M93.8653,81.8961 C94.2533,82.1201 94.2533,82.4831 93.8653,82.7071 C93.4763,82.9311 92.8473,82.9311 92.4603,82.7071 C92.0723,82.4831 92.0723,82.1201 92.4603,81.8961 C92.8473,81.6721 93.4763,81.6721 93.8653,81.8961" id="Fill-355" fill="#16110D"></path>
                <path d="M97.5382,79.7755 C97.9262,79.9995 97.9262,80.3625 97.5382,80.5865 C97.1502,80.8105 96.5212,80.8105 96.1342,80.5865 C95.7452,80.3625 95.7452,79.9995 96.1342,79.7755 C96.5212,79.5515 97.1502,79.5515 97.5382,79.7755" id="Fill-357" fill="#16110D"></path>
                <path d="M101.212,77.6544 C101.6,77.8784 101.6,78.2414 101.212,78.4654 C100.823,78.6894 100.194,78.6894 99.807,78.4654 C99.419,78.2414 99.419,77.8784 99.807,77.6544 C100.194,77.4304 100.823,77.4304 101.212,77.6544" id="Fill-359" fill="#16110D"></path>
                <path d="M104.8849,75.5338 C105.2729,75.7578 105.2729,76.1208 104.8849,76.3448 C104.4969,76.5688 103.8679,76.5688 103.4799,76.3448 C103.0919,76.1208 103.0919,75.7578 103.4799,75.5338 C103.8679,75.3098 104.4969,75.3098 104.8849,75.5338" id="Fill-361" fill="#16110D"></path>
                <path d="M108.5587,73.4132 C108.9467,73.6372 108.9467,74.0002 108.5587,74.2242 C108.1697,74.4482 107.5407,74.4482 107.1537,74.2242 C106.7657,74.0002 106.7657,73.6372 107.1537,73.4132 C107.5407,73.1892 108.1697,73.1892 108.5587,73.4132" id="Fill-363" fill="#16110D"></path>
                <path d="M112.2315,71.2921 C112.6195,71.5161 112.6195,71.8791 112.2315,72.1031 C111.8435,72.3271 111.2145,72.3271 110.8265,72.1031 C110.4385,71.8791 110.4385,71.5161 110.8265,71.2921 C111.2145,71.0681 111.8435,71.0681 112.2315,71.2921" id="Fill-365" fill="#16110D"></path>
                <path d="M115.9044,69.1715 C116.2934,69.3955 116.2934,69.7585 115.9044,69.9825 C115.5164,70.2065 114.8874,70.2065 114.5004,69.9825 C114.1124,69.7585 114.1124,69.3955 114.5004,69.1715 C114.8874,68.9475 115.5164,68.9475 115.9044,69.1715" id="Fill-367" fill="#16110D"></path>
                <path d="M119.5782,67.0504 C119.9662,67.2744 119.9662,67.6374 119.5782,67.8614 C119.1902,68.0854 118.5612,68.0854 118.1732,67.8614 C117.7852,67.6374 117.7852,67.2744 118.1732,67.0504 C118.5612,66.8264 119.1902,66.8264 119.5782,67.0504" id="Fill-369" fill="#16110D"></path>
                <path d="M123.252,64.9298 C123.64,65.1538 123.64,65.5168 123.252,65.7408 C122.863,65.9648 122.234,65.9648 121.847,65.7408 C121.459,65.5168 121.459,65.1538 121.847,64.9298 C122.234,64.7058 122.863,64.7058 123.252,64.9298" id="Fill-371" fill="#16110D"></path>
                <path d="M126.9249,62.8092 C127.3129,63.0332 127.3129,63.3962 126.9249,63.6202 C126.5369,63.8442 125.9079,63.8442 125.5199,63.6202 C125.1319,63.3962 125.1319,63.0332 125.5199,62.8092 C125.9079,62.5852 126.5369,62.5852 126.9249,62.8092" id="Fill-373" fill="#16110D"></path>
                <path d="M66.7423,92.5031 C67.1293,92.2781 67.7583,92.2781 68.1463,92.5021 C68.5353,92.7251 68.5373,93.0881 68.1493,93.3131 C67.7623,93.5371 67.1333,93.5381 66.7443,93.3141 C66.3553,93.0901 66.3543,92.7271 66.7423,92.5031" id="Fill-375" fill="#16110D"></path>
                <path d="M71.8253,90.3795 C72.2133,90.6035 72.2133,90.9665 71.8253,91.1905 C71.4373,91.4145 70.8073,91.4145 70.4203,91.1905 C70.0323,90.9665 70.0323,90.6035 70.4203,90.3795 C70.8073,90.1555 71.4373,90.1555 71.8253,90.3795" id="Fill-377" fill="#16110D"></path>
                <path d="M75.4981,88.2585 C75.8861,88.4825 75.8861,88.8455 75.4981,89.0705 C75.1101,89.2935 74.4811,89.2935 74.0941,89.0705 C73.7051,88.8455 73.7051,88.4825 74.0941,88.2585 C74.4811,88.0345 75.1101,88.0345 75.4981,88.2585" id="Fill-379" fill="#16110D"></path>
                <path d="M79.172,86.1378 C79.56,86.3618 79.56,86.7248 79.172,86.9488 C78.783,87.1728 78.154,87.1728 77.767,86.9488 C77.379,86.7248 77.379,86.3618 77.767,86.1378 C78.154,85.9138 78.783,85.9138 79.172,86.1378" id="Fill-381" fill="#16110D"></path>
                <path d="M82.8448,84.0172 C83.2328,84.2412 83.2328,84.6042 82.8448,84.8282 C82.4568,85.0522 81.8278,85.0522 81.4398,84.8282 C81.0518,84.6042 81.0518,84.2412 81.4398,84.0172 C81.8278,83.7932 82.4568,83.7932 82.8448,84.0172" id="Fill-383" fill="#16110D"></path>
                <path d="M86.5187,81.8961 C86.9067,82.1201 86.9067,82.4831 86.5187,82.7081 C86.1297,82.9311 85.5007,82.9311 85.1137,82.7081 C84.7257,82.4831 84.7257,82.1201 85.1137,81.8961 C85.5007,81.6721 86.1297,81.6721 86.5187,81.8961" id="Fill-385" fill="#16110D"></path>
                <path d="M90.1915,79.7755 C90.5795,79.9995 90.5795,80.3625 90.1915,80.5865 C89.8035,80.8105 89.1745,80.8105 88.7865,80.5865 C88.3985,80.3625 88.3985,79.9995 88.7865,79.7755 C89.1745,79.5515 89.8035,79.5515 90.1915,79.7755" id="Fill-387" fill="#16110D"></path>
                <path d="M93.8653,77.6544 C94.2533,77.8784 94.2533,78.2414 93.8653,78.4654 C93.4763,78.6894 92.8473,78.6894 92.4603,78.4654 C92.0723,78.2414 92.0723,77.8784 92.4603,77.6544 C92.8473,77.4304 93.4763,77.4304 93.8653,77.6544" id="Fill-389" fill="#16110D"></path>
                <path d="M97.5382,75.5338 C97.9262,75.7578 97.9262,76.1208 97.5382,76.3448 C97.1502,76.5688 96.5212,76.5688 96.1342,76.3448 C95.7452,76.1208 95.7452,75.7578 96.1342,75.5338 C96.5212,75.3098 97.1502,75.3098 97.5382,75.5338" id="Fill-391" fill="#16110D"></path>
                <path d="M101.212,73.4132 C101.6,73.6372 101.6,74.0002 101.212,74.2242 C100.823,74.4482 100.194,74.4482 99.807,74.2242 C99.419,74.0002 99.419,73.6372 99.807,73.4132 C100.194,73.1892 100.823,73.1892 101.212,73.4132" id="Fill-393" fill="#16110D"></path>
                <path d="M104.8849,71.2921 C105.2729,71.5161 105.2729,71.8791 104.8849,72.1031 C104.4969,72.3271 103.8679,72.3271 103.4799,72.1031 C103.0919,71.8791 103.0919,71.5161 103.4799,71.2921 C103.8679,71.0681 104.4969,71.0681 104.8849,71.2921" id="Fill-395" fill="#16110D"></path>
                <path d="M108.5587,69.1715 C108.9467,69.3955 108.9467,69.7585 108.5587,69.9825 C108.1697,70.2065 107.5407,70.2065 107.1537,69.9825 C106.7657,69.7585 106.7657,69.3955 107.1537,69.1715 C107.5407,68.9475 108.1697,68.9475 108.5587,69.1715" id="Fill-397" fill="#16110D"></path>
                <path d="M112.2315,67.0504 C112.6195,67.2744 112.6195,67.6374 112.2315,67.8624 C111.8435,68.0854 111.2145,68.0854 110.8265,67.8624 C110.4385,67.6374 110.4385,67.2744 110.8265,67.0504 C111.2145,66.8264 111.8435,66.8264 112.2315,67.0504" id="Fill-399" fill="#16110D"></path>
                <path d="M115.9044,64.9298 C116.2934,65.1538 116.2934,65.5168 115.9044,65.7408 C115.5164,65.9648 114.8874,65.9648 114.5004,65.7408 C114.1124,65.5168 114.1124,65.1538 114.5004,64.9298 C114.8874,64.7058 115.5164,64.7058 115.9044,64.9298" id="Fill-401" fill="#16110D"></path>
                <path d="M119.5782,62.8092 C119.9662,63.0332 119.9662,63.3962 119.5782,63.6202 C119.1902,63.8442 118.5612,63.8442 118.1732,63.6202 C117.7852,63.3962 117.7852,63.0332 118.1732,62.8092 C118.5612,62.5852 119.1902,62.5852 119.5782,62.8092" id="Fill-403" fill="#16110D"></path>
                <path d="M123.252,60.6881 C123.64,60.9121 123.64,61.2751 123.252,61.4991 C122.863,61.7231 122.234,61.7231 121.847,61.4991 C121.459,61.2751 121.459,60.9121 121.847,60.6881 C122.234,60.4641 122.863,60.4641 123.252,60.6881" id="Fill-405" fill="#16110D"></path>
                <path d="M70.42,86.1378 C70.808,85.9138 71.438,85.9138 71.825,86.1378 C72.213,86.3618 72.213,86.7248 71.825,86.9488 C71.438,87.1728 70.808,87.1728 70.42,86.9488 C70.032,86.7248 70.032,86.3618 70.42,86.1378" id="Fill-407" fill="#16110D"></path>
                <path d="M74.0938,84.0172 C74.4818,83.7932 75.1108,83.7932 75.4978,84.0172 C75.8858,84.2412 75.8858,84.6042 75.4978,84.8282 C75.1108,85.0522 74.4818,85.0522 74.0938,84.8282 C73.7048,84.6042 73.7048,84.2412 74.0938,84.0172 C74.4818,83.7932 73.7048,84.2412 74.0938,84.0172" id="Fill-409" fill="#16110D"></path>
                <path d="M77.7667,81.8961 C78.1547,81.6721 78.7837,81.6721 79.1717,81.8961 C79.5597,82.1201 79.5597,82.4831 79.1717,82.7081 C78.7837,82.9311 78.1547,82.9311 77.7667,82.7081 C77.3787,82.4831 77.3787,82.1201 77.7667,81.8961 C78.1547,81.6721 77.3787,82.1201 77.7667,81.8961" id="Fill-411" fill="#16110D"></path>
                <path d="M82.8448,79.7755 C83.2328,79.9995 83.2328,80.3625 82.8448,80.5865 C82.4568,80.8105 81.8278,80.8105 81.4398,80.5865 C81.0518,80.3625 81.0518,79.9995 81.4398,79.7755 C81.8278,79.5515 82.4568,79.5515 82.8448,79.7755" id="Fill-413" fill="#16110D"></path>
                <path d="M86.5187,77.6544 C86.9067,77.8784 86.9067,78.2414 86.5187,78.4654 C86.1297,78.6894 85.5007,78.6894 85.1137,78.4654 C84.7257,78.2414 86.1297,77.4304 86.5187,77.6544" id="Fill-415" fill="#16110D"></path>
                <path d="M90.1915,75.5338 C90.5795,75.7578 90.5795,76.1208 90.1915,76.3448 C89.8035,76.5688 89.1745,76.5688 88.7865,76.3448 C88.3985,76.1208 89.8035,75.3098 90.1915,75.5338" id="Fill-417" fill="#16110D"></path>
                <path d="M93.8653,73.4132 C94.2533,73.6372 94.2533,74.0002 93.8653,74.2242 C93.4763,74.4482 92.8473,74.4482 92.4603,74.2242 C92.0723,74.0002 93.4763,73.1892 93.8653,73.4132" id="Fill-419" fill="#16110D"></path>
                <path d="M97.5382,71.2921 C97.9262,71.5161 97.9262,71.8791 97.5382,72.1031 C97.1502,72.3271 96.5212,72.3271 96.1342,72.1031 C95.7452,71.8791 97.1502,71.0681 97.5382,71.2921" id="Fill-421" fill="#16110D"></path>
                <path d="M99.8067,69.1715 C100.1947,68.9475 100.8237,68.9475 101.2117,69.1715 C101.5997,69.3955 101.5997,69.7585 101.2117,69.9825 C100.8237,70.2065 100.1947,70.2065 99.8067,69.9825 C99.4187,69.7585 99.4187,69.3955 99.8067,69.1715" id="Fill-423" fill="#16110D"></path>
                <path d="M103.4796,67.0504 C103.8686,66.8264 104.4976,66.8264 104.8846,67.0504 C105.2726,67.2744 105.2726,67.6374 104.8846,67.8624 C104.4976,68.0854 103.8686,68.0854 103.4796,67.8624 C103.0916,67.6374 103.0916,67.2744 103.4796,67.0504 C103.8686,66.8264 103.0916,67.2744 103.4796,67.0504" id="Fill-425" fill="#16110D"></path>
                <path d="M108.5587,64.9298 C108.9467,65.1538 108.9467,65.5168 108.5587,65.7408 C108.1697,65.9648 107.5407,65.9648 107.1537,65.7408 C106.7657,65.5168 106.7657,65.1538 107.1537,64.9298 C107.5407,64.7058 108.1697,64.7058 108.5587,64.9298" id="Fill-427" fill="#16110D"></path>
                <path d="M112.2315,62.8092 C112.6195,63.0332 112.6195,63.3962 112.2315,63.6202 C111.8435,63.8442 111.2145,63.8442 110.8265,63.6202 C110.4385,63.3962 110.4385,63.0332 110.8265,62.8092 C111.2145,62.5852 111.8435,62.5852 112.2315,62.8092" id="Fill-429" fill="#16110D"></path>
                <path d="M115.9044,60.6881 C116.2934,60.9121 116.2934,61.2751 115.9044,61.5001 C115.5164,61.7231 114.8874,61.7231 114.5004,61.5001 C114.1124,61.2751 114.1124,60.9121 114.5004,60.6881 C114.8874,60.4641 115.5164,60.4641 115.9044,60.6881" id="Fill-431" fill="#16110D"></path>
                <path d="M119.5782,58.5675 C119.9662,58.7915 119.9662,59.1545 119.5782,59.3785 C119.1902,59.6025 118.5612,59.6025 118.1732,59.3785 C117.7852,59.1545 117.7852,58.7915 118.1732,58.5675 C118.5612,58.3435 119.1902,58.3435 119.5782,58.5675" id="Fill-433" fill="#16110D"></path>
                <path d="M112.2315,58.5675 C112.6195,58.7915 112.6195,59.1545 112.2315,59.3785 C111.8435,59.6025 111.2145,59.6025 110.8265,59.3785 C110.4385,59.1545 111.8435,58.3435 112.2315,58.5675" id="Fill-435" fill="#16110D"></path>
                <path d="M114.5001,56.4464 C114.8881,56.2224 115.5171,56.2224 115.9051,56.4464 C116.2931,56.6704 116.2931,57.0334 115.9051,57.2574 C115.5171,57.4814 114.8881,57.4814 114.5001,57.2574 C114.1121,57.0334 114.1121,56.6704 114.5001,56.4464 C114.8881,56.2224 114.1121,56.6704 114.5001,56.4464" id="Fill-437" fill="#16110D"></path>
                <polygon id="Fill-439" fill="#15100C" points="124.9649 67.2775 37.4009 117.6465 37.4019 71.0775 123.4409 21.5895 124.9659 33.7395"></polygon>
                <polygon id="Fill-441" fill="#D1C900" points="0.3145 96.4196 37.4005 117.6466 37.4015 71.0776 0.3155 49.8506"></polygon>
                <polygon id="Fill-443" fill="#FEBD33" points="86.3546 0.3625 123.4406 21.5895 37.4016 71.0775 0.3156 49.8505"></polygon>
                <polygon id="Fill-445" fill="#FEEDCC" points="86.3546 1.0334 122.7206 21.8484 37.4016 70.9204 37.4016 71.7484 0.3156 50.5214"></polygon>
                <path d="M0.628,96.237 L0.629,50.392 L37.088,71.259 L37.086,117.105 L0.628,96.237 Z M86.355,0.725 L122.811,21.591 L37.44,70.693 L37.401,70.715 L0.945,49.849 L86.355,0.725 Z M124.65,67.096 L37.715,117.102 L37.716,71.259 L123.188,22.098 L124.651,33.739 L124.65,67.096 Z M37.715,117.828 L125.279,67.459 L125.277,33.7 L123.733,21.395 L86.354,0 L-6.82121026e-13,49.669 L-6.82121026e-13,96.602 L37.086,117.829 L37.401,118.009 L37.715,117.828 Z" id="Fill-447" fill="#16110D"></path>
            </g>
        </g>
    </g>
</svg>