<?xml version="1.0" encoding="UTF-8"?>
<svg width="102px" height="151px" viewBox="0 0 102 151" version="1.1" xmlns="http://www.w3.org/2000/svg" xmlns:xlink="http://www.w3.org/1999/xlink">
    <!-- Generator: Sketch 58 (84663) - https://sketch.com -->
    <title>Group 3 Copy</title>
    <desc>Created with Sketch.</desc>
    <defs>
        <polygon id="path-1" points="0.36505 0.81575 2.41655 0.81575 2.41655 2 0.36505 2"></polygon>
    </defs>
    <g id="Dashboards" stroke="none" stroke-width="1" fill="none" fill-rule="evenodd">
        <g id="Mapa-Flujo-Celulosa" transform="translate(-1944.000000, -765.000000)">
            <g id="Group-3-Copy" transform="translate(1943.000000, 765.000000)">
                <path d="M7.1783,141.5573 C7.5783,141.7883 7.5783,142.1633 7.1783,142.3953 C6.7783,142.6263 6.1283,142.6263 5.7283,142.3953 C5.3263,142.1633 5.3263,141.7883 5.7283,141.5573 C6.1283,141.3263 6.7783,141.3263 7.1783,141.5573" id="Fill-205" fill="#16110D"></path>
                <path d="M10.9712,139.3679 C11.3712,139.5989 11.3712,139.9739 10.9712,140.2049 C10.5712,140.4359 9.9212,140.4359 9.5202,140.2049 C9.1192,139.9739 9.1192,139.5989 9.5202,139.3679 C9.9212,139.1369 10.5712,139.1369 10.9712,139.3679" id="Fill-207" fill="#16110D"></path>
                <path d="M14.7642,137.1784 C15.1642,137.4084 15.1642,137.7834 14.7642,138.0154 C14.3642,138.2464 13.7132,138.2464 13.3132,138.0154 C12.9122,137.7834 12.9122,137.4084 13.3132,137.1784 C13.7132,136.9474 14.3642,136.9474 14.7642,137.1784" id="Fill-209" fill="#16110D"></path>
                <path d="M1.9302,139.3708 C2.3292,139.1388 2.9802,139.1388 3.3802,139.3688 C3.7822,139.5998 3.7842,139.9748 3.3832,140.2068 C2.9842,140.4378 2.3342,140.4388 1.9332,140.2078 C1.5322,139.9768 1.5302,139.6018 1.9302,139.3708" id="Fill-211" fill="#16110D"></path>
                <path d="M7.1783,137.1784 C7.5783,137.4094 7.5783,137.7834 7.1783,138.0154 C6.7783,138.2464 6.1283,138.2464 5.7283,138.0154 C5.3273,137.7834 5.3273,137.4094 5.7283,137.1784 C6.1283,136.9474 6.7783,136.9474 7.1783,137.1784" id="Fill-213" fill="#16110D"></path>
                <path d="M10.9712,134.988 C11.3712,135.219 11.3712,135.594 10.9712,135.826 C10.5712,136.057 9.9212,136.057 9.5212,135.826 C9.1192,135.594 9.1192,135.219 9.5212,134.988 C9.9212,134.758 10.5712,134.758 10.9712,134.988" id="Fill-215" fill="#16110D"></path>
                <path d="M3.3853,134.988 C3.7863,135.219 3.7863,135.594 3.3853,135.826 C2.9853,136.057 2.3353,136.057 1.9353,135.826 C1.5343,135.594 1.5343,135.219 1.9353,134.988 C2.3353,134.758 2.9853,134.758 3.3853,134.988" id="Fill-217" fill="#16110D"></path>
                <path d="M7.1783,132.7985 C7.5783,133.0295 7.5783,133.4045 7.1783,133.6365 C6.7783,133.8675 6.1283,133.8675 5.7283,133.6365 C5.3273,133.4045 5.3273,133.0295 5.7283,132.7985 C6.1283,132.5675 6.7783,132.5675 7.1783,132.7985" id="Fill-219" fill="#16110D"></path>
                <path d="M3.3863,130.6091 C3.7863,130.8401 3.7863,131.2151 3.3853,131.4461 C2.9853,131.6771 2.3353,131.6771 1.9353,131.4461 C1.5343,131.2151 1.5343,130.8401 1.9353,130.6091 C2.3353,130.3781 2.9853,130.3781 3.3863,130.6091" id="Fill-221" fill="#16110D"></path>
                <g id="Group-225" transform="translate(28.000000, 149.000000)">
                    <mask id="mask-2" fill="white">
                        <use xlink:href="#path-1"></use>
                    </mask>
                    <g id="Clip-224"></g>
                    <path d="M2.1158,0.989 C2.5168,1.22 2.5168,1.595 2.1158,1.827 C1.7158,2.058 1.0658,2.058 0.6658,1.827 C0.2648,1.595 0.2648,1.22 0.6658,0.989 C1.0658,0.758 1.7158,0.758 2.1158,0.989" id="Fill-223" fill="#16110D" mask="url(#mask-2)"></path>
                </g>
                <path d="M33.9087,147.7995 C34.3087,148.0305 34.3087,148.4055 33.9087,148.6365 C33.5087,148.8675 32.8587,148.8675 32.4587,148.6365 C32.0567,148.4055 32.0567,148.0305 32.4587,147.7995 C32.8587,147.5685 33.5087,147.5685 33.9087,147.7995" id="Fill-226" fill="#16110D"></path>
                <path d="M37.7017,145.6101 C38.1017,145.8401 38.1017,146.2151 37.7017,146.4471 C37.3017,146.6781 36.6517,146.6781 36.2507,146.4471 C35.8497,146.2151 35.8497,145.8401 36.2507,145.6101 C36.6517,145.3791 37.3017,145.3791 37.7017,145.6101" id="Fill-228" fill="#16110D"></path>
                <path d="M41.4947,143.4196 C41.8947,143.6506 41.8947,144.0256 41.4947,144.2576 C41.0937,144.4886 40.4437,144.4886 40.0437,144.2576 C39.6427,144.0256 39.6427,143.6506 40.0437,143.4196 C40.4437,143.1886 41.0937,143.1886 41.4947,143.4196" id="Fill-230" fill="#16110D"></path>
                <path d="M45.2867,141.2302 C45.6877,141.4612 45.6877,141.8362 45.2867,142.0672 C44.8867,142.2982 44.2367,142.2982 43.8367,142.0672 C43.4357,141.8362 43.4357,141.4612 43.8367,141.2302 C44.2367,140.9992 44.8867,140.9992 45.2867,141.2302" id="Fill-232" fill="#16110D"></path>
                <path d="M49.0796,139.0407 C49.4796,139.2707 49.4796,139.6457 49.0796,139.8777 C48.6796,140.1087 48.0296,140.1087 47.6296,139.8777 C47.2286,139.6457 47.2286,139.2707 47.6296,139.0407 C48.0296,138.8097 48.6796,138.8097 49.0796,139.0407" id="Fill-234" fill="#16110D"></path>
                <path d="M52.8726,136.8503 C53.2726,137.0813 53.2726,137.4563 52.8726,137.6883 C52.4726,137.9193 51.8226,137.9193 51.4226,137.6883 C51.0206,137.4563 51.0206,137.0813 51.4226,136.8503 C51.8226,136.6193 52.4726,136.6193 52.8726,136.8503" id="Fill-236" fill="#16110D"></path>
                <path d="M56.6656,134.6608 C57.0656,134.8918 57.0656,135.2668 56.6656,135.4988 C56.2656,135.7288 55.6156,135.7288 55.2146,135.4988 C54.8136,135.2668 54.8136,134.8918 55.2146,134.6608 C55.6156,134.4298 56.2656,134.4298 56.6656,134.6608" id="Fill-238" fill="#16110D"></path>
                <path d="M60.4576,132.4714 C60.8586,132.7024 60.8586,133.0764 60.4576,133.3084 C60.0576,133.5394 59.4076,133.5394 59.0076,133.3084 C58.6066,133.0764 58.6066,132.7024 59.0076,132.4714 C59.4076,132.2404 60.0576,132.2404 60.4576,132.4714" id="Fill-240" fill="#16110D"></path>
                <path d="M64.2505,130.281 C64.6505,130.512 64.6505,130.887 64.2505,131.119 C63.8505,131.35 63.2005,131.35 62.8005,131.119 C62.3995,130.887 62.3995,130.512 62.8005,130.281 C63.2005,130.051 63.8505,130.051 64.2505,130.281" id="Fill-242" fill="#16110D"></path>
                <path d="M68.0435,128.0915 C68.4435,128.3225 68.4435,128.6975 68.0435,128.9295 C67.6435,129.1605 66.9935,129.1605 66.5935,128.9295 C66.1915,128.6975 66.1915,128.3225 66.5935,128.0915 C66.9935,127.8605 67.6435,127.8605 68.0435,128.0915" id="Fill-244" fill="#16110D"></path>
                <path d="M71.8365,125.9021 C72.2365,126.1331 72.2365,126.5081 71.8365,126.7391 C71.4365,126.9701 70.7865,126.9701 70.3855,126.7391 C69.9845,126.5081 69.9845,126.1331 70.3855,125.9021 C70.7865,125.6711 71.4365,125.6711 71.8365,125.9021" id="Fill-246" fill="#16110D"></path>
                <path d="M75.6294,123.7116 C76.0294,123.9426 76.0294,124.3176 75.6294,124.5496 C75.2284,124.7806 74.5784,124.7806 74.1784,124.5496 C73.7774,124.3176 73.7774,123.9426 74.1784,123.7116 C74.5784,123.4816 75.2284,123.4816 75.6294,123.7116" id="Fill-248" fill="#16110D"></path>
                <path d="M79.4214,121.5222 C79.8224,121.7532 79.8224,122.1282 79.4214,122.3602 C79.0214,122.5912 78.3714,122.5912 77.9714,122.3602 C77.5704,122.1282 77.5704,121.7532 77.9714,121.5222 C78.3714,121.2912 79.0214,121.2912 79.4214,121.5222" id="Fill-250" fill="#16110D"></path>
                <path d="M83.2144,119.3327 C83.6144,119.5637 83.6144,119.9387 83.2144,120.1697 C82.8144,120.4007 82.1644,120.4007 81.7644,120.1697 C81.3624,119.9387 81.3624,119.5637 81.7644,119.3327 C82.1644,119.1017 82.8144,119.1017 83.2144,119.3327" id="Fill-252" fill="#16110D"></path>
                <path d="M87.0074,117.1433 C87.4074,117.3743 87.4074,117.7483 87.0074,117.9803 C86.6074,118.2113 85.9574,118.2113 85.5564,117.9803 C85.1554,117.7483 85.1554,117.3743 85.5564,117.1433 C85.9574,116.9123 86.6074,116.9123 87.0074,117.1433" id="Fill-254" fill="#16110D"></path>
                <path d="M21.0425,149.9685 C21.4415,149.7375 22.0915,149.7365 22.4925,149.9675 C22.8945,150.1975 22.8955,150.5725 22.4955,150.8045 C22.0955,151.0365 21.4465,151.0365 21.0455,150.8065 C20.6445,150.5755 20.6425,150.2005 21.0425,149.9685" id="Fill-256" fill="#16110D"></path>
                <path d="M26.2906,147.7761 C26.6906,148.0071 26.6906,148.3821 26.2906,148.6141 C25.8906,148.8451 25.2406,148.8451 24.8406,148.6141 C24.4386,148.3821 24.4386,148.0071 24.8406,147.7761 C25.2406,147.5451 25.8906,147.5451 26.2906,147.7761" id="Fill-258" fill="#16110D"></path>
                <path d="M30.0835,145.5866 C30.4835,145.8176 30.4835,146.1926 30.0835,146.4236 C29.6835,146.6546 29.0335,146.6546 28.6325,146.4236 C28.2315,146.1926 28.2315,145.8176 28.6325,145.5866 C29.0335,145.3556 29.6835,145.3556 30.0835,145.5866" id="Fill-260" fill="#16110D"></path>
                <path d="M33.8755,143.3972 C34.2765,143.6272 34.2765,144.0022 33.8755,144.2342 C33.4755,144.4652 32.8255,144.4652 32.4255,144.2342 C32.0245,144.0022 32.0245,143.6272 32.4255,143.3972 C32.8255,143.1662 33.4755,143.1662 33.8755,143.3972" id="Fill-262" fill="#16110D"></path>
                <path d="M37.6685,141.2067 C38.0685,141.4377 38.0685,141.8127 37.6685,142.0447 C37.2685,142.2757 36.6185,142.2757 36.2185,142.0447 C35.8175,141.8127 35.8175,141.4377 36.2185,141.2067 C36.6185,140.9757 37.2685,140.9757 37.6685,141.2067" id="Fill-264" fill="#16110D"></path>
                <path d="M41.4615,139.0173 C41.8615,139.2483 41.8615,139.6233 41.4615,139.8553 C41.0615,140.0863 40.4115,140.0863 40.0115,139.8553 C39.6095,139.6233 39.6095,139.2483 40.0115,139.0173 C40.4115,138.7863 41.0615,138.7863 41.4615,139.0173" id="Fill-266" fill="#16110D"></path>
                <path d="M45.2544,136.8278 C45.6544,137.0588 45.6544,137.4338 45.2544,137.6648 C44.8544,137.8958 44.2034,137.8958 43.8034,137.6648 C43.4024,137.4338 43.4024,137.0588 43.8034,136.8278 C44.2044,136.5968 44.8544,136.5968 45.2544,136.8278" id="Fill-268" fill="#16110D"></path>
                <path d="M49.0474,134.6374 C49.4474,134.8684 49.4474,135.2434 49.0474,135.4754 C48.6464,135.7064 47.9964,135.7064 47.5964,135.4754 C47.1954,135.2434 47.1954,134.8684 47.5964,134.6374 C47.9964,134.4074 48.6464,134.4074 49.0474,134.6374" id="Fill-270" fill="#16110D"></path>
                <path d="M52.8394,132.448 C53.2404,132.679 53.2404,133.054 52.8394,133.286 C52.4394,133.516 51.7894,133.516 51.3894,133.286 C50.9884,133.054 50.9884,132.679 51.3894,132.448 C51.7894,132.217 52.4394,132.217 52.8394,132.448" id="Fill-272" fill="#16110D"></path>
                <path d="M56.6324,130.2585 C57.0324,130.4895 57.0324,130.8645 56.6324,131.0955 C56.2324,131.3265 55.5824,131.3265 55.1824,131.0955 C54.7804,130.8645 54.7804,130.4895 55.1824,130.2585 C55.5824,130.0275 56.2324,130.0275 56.6324,130.2585" id="Fill-274" fill="#16110D"></path>
                <path d="M60.4253,128.069 C60.8253,128.299 60.8253,128.674 60.4253,128.906 C60.0253,129.137 59.3753,129.137 58.9743,128.906 C58.5733,128.674 58.5733,128.299 58.9743,128.069 C59.3753,127.838 60.0253,127.838 60.4253,128.069" id="Fill-276" fill="#16110D"></path>
                <path d="M64.2183,125.8786 C64.6183,126.1096 64.6183,126.4846 64.2183,126.7166 C63.8173,126.9476 63.1673,126.9476 62.7673,126.7166 C62.3663,126.4846 62.3663,126.1096 62.7673,125.8786 C63.1673,125.6476 63.8173,125.6476 64.2183,125.8786" id="Fill-278" fill="#16110D"></path>
                <path d="M68.0103,123.6892 C68.4113,123.9202 68.4113,124.2952 68.0103,124.5272 C67.6103,124.7572 66.9603,124.7572 66.5603,124.5272 C66.1593,124.2952 66.1593,123.9202 66.5603,123.6892 C66.9603,123.4582 67.6103,123.4582 68.0103,123.6892" id="Fill-280" fill="#16110D"></path>
                <path d="M71.8033,121.4997 C72.2033,121.7307 72.2033,122.1047 71.8033,122.3367 C71.4033,122.5677 70.7533,122.5677 70.3533,122.3367 C69.9523,122.1047 69.9523,121.7307 70.3533,121.4997 C70.7533,121.2687 71.4033,121.2687 71.8033,121.4997" id="Fill-282" fill="#16110D"></path>
                <path d="M75.5962,119.3093 C75.9962,119.5403 75.9962,119.9153 75.5962,120.1473 C75.1962,120.3783 74.5462,120.3783 74.1462,120.1473 C73.7442,119.9153 73.7442,119.5403 74.1462,119.3093 C74.5462,119.0793 75.1962,119.0793 75.5962,119.3093" id="Fill-284" fill="#16110D"></path>
                <path d="M79.3892,117.1198 C79.7892,117.3508 79.7892,117.7258 79.3892,117.9578 C78.9882,118.1878 78.3382,118.1878 77.9382,117.9578 C77.5372,117.7258 77.5372,117.3508 77.9382,117.1198 C78.3382,116.8888 78.9882,116.8888 79.3892,117.1198" id="Fill-286" fill="#16110D"></path>
                <path d="M83.1812,114.9304 C83.5822,115.1614 83.5822,115.5364 83.1812,115.7674 C82.7812,115.9984 82.1312,115.9984 81.7312,115.7674 C81.3302,115.5364 81.3302,115.1614 81.7312,114.9304 C82.1312,114.6994 82.7812,114.6994 83.1812,114.9304" id="Fill-288" fill="#16110D"></path>
                <path d="M17.2495,147.779 C17.6495,147.548 18.2995,147.547 18.6995,147.777 C19.1015,148.008 19.1035,148.383 18.7025,148.615 C18.3035,148.846 17.6535,148.847 17.2525,148.617 C16.8515,148.385 16.8505,148.01 17.2495,147.779" id="Fill-290" fill="#16110D"></path>
                <path d="M22.4976,145.5866 C22.8976,145.8176 22.8976,146.1926 22.4976,146.4236 C22.0976,146.6546 21.4476,146.6546 21.0476,146.4236 C20.6466,146.1926 20.6466,145.8176 21.0476,145.5866 C21.4476,145.3556 22.0976,145.3556 22.4976,145.5866" id="Fill-292" fill="#16110D"></path>
                <path d="M26.2906,143.3972 C26.6906,143.6272 26.6906,144.0022 26.2906,144.2342 C25.8906,144.4652 25.2406,144.4652 24.8406,144.2342 C24.4386,144.0022 24.4386,143.6272 24.8406,143.3972 C25.2406,143.1662 25.8906,143.1662 26.2906,143.3972" id="Fill-294" fill="#16110D"></path>
                <path d="M30.0835,141.2067 C30.4835,141.4377 30.4835,141.8127 30.0835,142.0447 C29.6835,142.2757 29.0335,142.2757 28.6325,142.0447 C28.2315,141.8127 28.2315,141.4377 28.6325,141.2067 C29.0335,140.9757 29.6835,140.9757 30.0835,141.2067" id="Fill-296" fill="#16110D"></path>
                <path d="M33.8755,139.0173 C34.2765,139.2483 34.2765,139.6233 33.8755,139.8553 C33.4755,140.0863 32.8255,140.0863 32.4255,139.8553 C32.0245,139.6233 32.0245,139.2483 32.4255,139.0173 C32.8255,138.7863 33.4755,138.7863 33.8755,139.0173" id="Fill-298" fill="#16110D"></path>
                <path d="M37.6685,136.8278 C38.0685,137.0588 38.0685,137.4338 37.6685,137.6648 C37.2685,137.8958 36.6185,137.8958 36.2185,137.6648 C35.8175,137.4338 35.8175,137.0588 36.2185,136.8278 C36.6185,136.5968 37.2685,136.5968 37.6685,136.8278" id="Fill-300" fill="#16110D"></path>
                <path d="M41.4615,134.6384 C41.8615,134.8684 41.8615,135.2434 41.4615,135.4754 C41.0615,135.7064 40.4115,135.7064 40.0115,135.4754 C39.6095,135.2434 39.6095,134.8684 40.0115,134.6384 C40.4115,134.4074 41.0615,134.4074 41.4615,134.6384" id="Fill-302" fill="#16110D"></path>
                <path d="M45.2544,132.448 C45.6544,132.679 45.6544,133.054 45.2544,133.286 C44.8544,133.517 44.2044,133.517 43.8034,133.286 C43.4024,133.054 43.4024,132.679 43.8034,132.448 C44.2044,132.217 44.8544,132.217 45.2544,132.448" id="Fill-304" fill="#16110D"></path>
                <path d="M49.0474,130.2585 C49.4474,130.4895 49.4474,130.8645 49.0474,131.0955 C48.6464,131.3265 47.9964,131.3265 47.5964,131.0955 C47.1954,130.8645 47.1954,130.4895 47.5964,130.2585 C47.9964,130.0275 48.6464,130.0275 49.0474,130.2585" id="Fill-306" fill="#16110D"></path>
                <path d="M52.8394,128.069 C53.2404,128.299 53.2404,128.674 52.8394,128.906 C52.4394,129.137 51.7894,129.137 51.3894,128.906 C50.9884,128.674 50.9884,128.299 51.3894,128.069 C51.7894,127.838 52.4394,127.838 52.8394,128.069" id="Fill-308" fill="#16110D"></path>
                <path d="M56.6324,125.8786 C57.0324,126.1096 57.0324,126.4846 56.6324,126.7166 C56.2324,126.9476 55.5824,126.9476 55.1824,126.7166 C54.7804,126.4846 54.7804,126.1096 55.1824,125.8786 C55.5824,125.6476 56.2324,125.6476 56.6324,125.8786" id="Fill-310" fill="#16110D"></path>
                <path d="M60.4253,123.6892 C60.8253,123.9202 60.8253,124.2952 60.4253,124.5272 C60.0253,124.7572 59.3753,124.7572 58.9743,124.5272 C58.5733,124.2952 58.5733,123.9202 58.9743,123.6892 C59.3753,123.4582 60.0253,123.4582 60.4253,123.6892" id="Fill-312" fill="#16110D"></path>
                <path d="M64.2183,121.4997 C64.6183,121.7307 64.6183,122.1047 64.2183,122.3367 C63.8173,122.5677 63.1673,122.5677 62.7673,122.3367 C62.3663,122.1047 62.3663,121.7307 62.7673,121.4997 C63.1673,121.2687 63.8183,121.2687 64.2183,121.4997" id="Fill-314" fill="#16110D"></path>
                <path d="M68.0103,119.3093 C68.4113,119.5403 68.4113,119.9153 68.0103,120.1473 C67.6103,120.3783 66.9603,120.3783 66.5603,120.1473 C66.1593,119.9153 66.1593,119.5403 66.5603,119.3093 C66.9603,119.0793 67.6103,119.0793 68.0103,119.3093" id="Fill-316" fill="#16110D"></path>
                <path d="M71.8033,117.1198 C72.2033,117.3508 72.2033,117.7258 71.8033,117.9578 C71.4033,118.1888 70.7533,118.1888 70.3533,117.9578 C69.9523,117.7258 69.9523,117.3508 70.3533,117.1198 C70.7533,116.8888 71.4033,116.8888 71.8033,117.1198" id="Fill-318" fill="#16110D"></path>
                <path d="M75.5962,114.9304 C75.9962,115.1614 75.9962,115.5364 75.5962,115.7674 C75.1962,115.9984 74.5462,115.9984 74.1462,115.7674 C73.7442,115.5364 73.7442,115.1614 74.1462,114.9304 C74.5462,114.6994 75.1962,114.6994 75.5962,114.9304" id="Fill-320" fill="#16110D"></path>
                <path d="M79.3892,112.7399 C79.7892,112.9709 79.7892,113.3459 79.3892,113.5779 C78.9882,113.8089 78.3382,113.8089 77.9382,113.5779 C77.5372,113.3459 77.5372,112.9709 77.9382,112.7399 C78.3382,112.5099 78.9882,112.5099 79.3892,112.7399" id="Fill-322" fill="#16110D"></path>
                <path d="M13.4566,145.5896 C13.8566,145.3586 14.5066,145.3576 14.9076,145.5876 C15.3096,145.8186 15.3106,146.1936 14.9096,146.4256 C14.5106,146.6566 13.8606,146.6576 13.4596,146.4266 C13.0586,146.1956 13.0576,145.8206 13.4566,145.5896" id="Fill-324" fill="#16110D"></path>
                <path d="M18.7056,143.3972 C19.1056,143.6272 19.1056,144.0022 18.7056,144.2342 C18.3046,144.4652 17.6546,144.4652 17.2546,144.2342 C16.8536,144.0022 16.8536,143.6272 17.2546,143.3972 C17.6546,143.1662 18.3046,143.1662 18.7056,143.3972" id="Fill-326" fill="#16110D"></path>
                <path d="M22.4976,141.2067 C22.8976,141.4377 22.8976,141.8127 22.4976,142.0447 C22.0976,142.2757 21.4476,142.2757 21.0476,142.0447 C20.6466,141.8127 20.6466,141.4377 21.0476,141.2067 C21.4476,140.9757 22.0976,140.9757 22.4976,141.2067" id="Fill-328" fill="#16110D"></path>
                <path d="M9.6646,143.3991 C10.0636,143.1681 10.7136,143.1671 11.1146,143.3981 C11.5166,143.6281 11.5176,144.0031 11.1176,144.2361 C10.7176,144.4671 10.0676,144.4671 9.6666,144.2371 C9.2656,144.0061 9.2646,143.6311 9.6646,143.3991" id="Fill-330" fill="#16110D"></path>
                <path d="M14.9126,141.2067 C15.3126,141.4377 15.3126,141.8127 14.9126,142.0447 C14.5126,142.2757 13.8616,142.2757 13.4616,142.0447 C13.0606,141.8127 13.0606,141.4377 13.4616,141.2067 C13.8626,140.9757 14.5126,140.9757 14.9126,141.2067" id="Fill-332" fill="#16110D"></path>
                <path d="M18.7056,139.0173 C19.1056,139.2483 19.1056,139.6233 18.7056,139.8553 C18.3046,140.0863 17.6546,140.0863 17.2546,139.8553 C16.8536,139.6233 16.8536,139.2483 17.2546,139.0173 C17.6546,138.7863 18.3046,138.7863 18.7056,139.0173" id="Fill-334" fill="#16110D"></path>
                <path d="M89.3755,114.9743 C89.7745,114.7433 90.4245,114.7423 90.8255,114.9733 C91.2275,115.2033 91.2285,115.5783 90.8285,115.8103 C90.4285,116.0413 89.7785,116.0423 89.3775,115.8123 C88.9765,115.5803 88.9755,115.2053 89.3755,114.9743" id="Fill-336" fill="#16110D"></path>
                <path d="M94.6236,112.7819 C95.0236,113.0129 95.0236,113.3879 94.6236,113.6199 C94.2236,113.8499 93.5736,113.8499 93.1726,113.6199 C92.7716,113.3879 92.7716,113.0129 93.1726,112.7819 C93.5736,112.5509 94.2236,112.5509 94.6236,112.7819" id="Fill-338" fill="#16110D"></path>
                <path d="M98.4165,110.5925 C98.8165,110.8235 98.8165,111.1985 98.4165,111.4295 C98.0155,111.6605 97.3655,111.6605 96.9655,111.4295 C96.5645,111.1985 96.5645,110.8235 96.9655,110.5925 C97.3655,110.3615 98.0155,110.3615 98.4165,110.5925" id="Fill-340" fill="#16110D"></path>
                <path d="M102.2085,108.4021 C102.6095,108.6331 102.6095,109.0081 102.2085,109.2401 C101.8085,109.4711 101.1585,109.4711 100.7585,109.2401 C100.3575,109.0081 100.3575,108.6331 100.7585,108.4021 C101.1585,108.1721 101.8085,108.1721 102.2085,108.4021" id="Fill-342" fill="#16110D"></path>
                <path d="M85.5493,112.7614 C85.9493,112.5304 86.5993,112.5294 87.0003,112.7604 C87.4023,112.9904 87.4033,113.3654 87.0023,113.5974 C86.6033,113.8294 85.9533,113.8294 85.5523,113.5994 C85.1513,113.3674 85.1503,112.9934 85.5493,112.7614" id="Fill-344" fill="#16110D"></path>
                <path d="M90.7974,110.569 C91.1984,110.8 91.1984,111.175 90.7974,111.407 C90.3974,111.638 89.7474,111.638 89.3474,111.407 C88.9464,111.175 88.9464,110.8 89.3474,110.569 C89.7474,110.338 90.3974,110.338 90.7974,110.569" id="Fill-346" fill="#16110D"></path>
                <path d="M94.5904,108.3796 C94.9904,108.6106 94.9904,108.9856 94.5904,109.2176 C94.1904,109.4476 93.5404,109.4476 93.1404,109.2176 C92.7384,108.9856 92.7384,108.6106 93.1404,108.3796 C93.5404,108.1486 94.1904,108.1486 94.5904,108.3796" id="Fill-348" fill="#16110D"></path>
                <path d="M98.3833,106.1901 C98.7833,106.4201 98.7833,106.7951 98.3833,107.0271 C97.9833,107.2581 97.3333,107.2581 96.9323,107.0271 C96.5313,106.7951 96.5313,106.4201 96.9323,106.1901 C97.3333,105.9591 97.9833,105.9591 98.3833,106.1901" id="Fill-350" fill="#16110D"></path>
                <path d="M102.1763,103.9997 C102.5763,104.2307 102.5763,104.6057 102.1763,104.8377 C101.7763,105.0687 101.1253,105.0687 100.7253,104.8377 C100.3243,104.6057 100.3243,104.2307 100.7253,103.9997 C101.1253,103.7697 101.7763,103.7697 102.1763,103.9997" id="Fill-352" fill="#16110D"></path>
                <path d="M81.7574,110.572 C82.1564,110.341 82.8064,110.34 83.2074,110.571 C83.6094,110.801 83.6104,111.176 83.2104,111.408 C82.8104,111.639 82.1604,111.64 81.7594,111.41 C81.3584,111.178 81.3574,110.803 81.7574,110.572" id="Fill-354" fill="#16110D"></path>
                <path d="M87.0054,108.3796 C87.4054,108.6106 87.4054,108.9856 87.0054,109.2176 C86.6044,109.4476 85.9544,109.4476 85.5544,109.2176 C85.1534,108.9856 85.1534,108.6106 85.5544,108.3796 C85.9544,108.1486 86.6044,108.1486 87.0054,108.3796" id="Fill-356" fill="#16110D"></path>
                <path d="M90.7974,106.1901 C91.1984,106.4201 91.1984,106.7951 90.7974,107.0271 C90.3974,107.2581 89.7474,107.2581 89.3474,107.0271 C88.9464,106.7951 88.9464,106.4201 89.3474,106.1901 C89.7474,105.9591 90.3974,105.9591 90.7974,106.1901" id="Fill-358" fill="#16110D"></path>
                <path d="M94.5904,103.9997 C94.9904,104.2307 94.9904,104.6057 94.5904,104.8377 C94.1904,105.0687 93.5404,105.0687 93.1404,104.8377 C92.7394,104.6057 92.7394,104.2307 93.1404,103.9997 C93.5404,103.7697 94.1904,103.7697 94.5904,103.9997" id="Fill-360" fill="#16110D"></path>
                <path d="M98.3833,101.8103 C98.7833,102.0413 98.7833,102.4163 98.3833,102.6483 C97.9833,102.8783 97.3333,102.8783 96.9333,102.6483 C96.5313,102.4163 96.5313,102.0413 96.9333,101.8103 C97.3333,101.5793 97.9833,101.5793 98.3833,101.8103" id="Fill-362" fill="#16110D"></path>
                <path d="M102.1763,99.6208 C102.5763,99.8508 102.5763,100.2268 102.1763,100.4578 C101.7763,100.6888 101.1263,100.6888 100.7253,100.4578 C100.3243,100.2268 100.3243,99.8508 100.7253,99.6208 C101.1263,99.3898 101.7763,99.3898 102.1763,99.6208" id="Fill-364" fill="#16110D"></path>
                <path d="M19.3902,73.8679 C19.3902,73.8679 23.1852,26.0149 31.1742,21.4029 C39.1622,16.7909 43.7562,68.7949 43.7562,68.7949 L35.5682,97.5069 L23.5842,103.7329 L19.3902,73.8679 Z" id="Fill-366" fill="#F28905"></path>
                <path d="M20.3296,73.8395 L24.3256,102.2955 L34.7796,96.8635 L42.8106,68.7055 C41.2586,51.2585 37.2796,24.5915 32.6206,22.1685 C32.2826,21.9935 31.9996,22.0055 31.6416,22.2115 C25.4526,25.7845 21.3876,60.5885 20.3296,73.8395 L20.3296,73.8395 Z M22.8436,105.1705 L18.4506,73.8965 L18.4596,73.7945 C18.8506,68.8465 22.5286,25.3165 30.7076,20.5935 C31.6146,20.0695 32.5746,20.0375 33.4816,20.5125 C40.5586,24.1925 44.2856,64.1665 44.6866,68.7125 L44.7026,68.8855 L36.3556,98.1505 L22.8436,105.1705 Z" id="Fill-368" fill="#16110D"></path>
                <polygon id="Fill-370" fill="#16110D" points="24.105 42.2067 22.869 41.5507 33.297 21.8987 34.534 22.5567"></polygon>
                <polygon id="Fill-372" fill="#16110D" points="22.0054 55.3581 20.7664 54.7021 35.6314 26.6461 36.8694 27.3031"></polygon>
                <polygon id="Fill-374" fill="#16110D" points="24.6519 59.5602 23.4129 58.9052 37.4219 32.3672 38.6599 33.0222"></polygon>
                <polygon id="Fill-376" fill="#16110D" points="28.23 61.8386 26.994 61.1796 39.29 38.0856 40.526 38.7436"></polygon>
                <polygon id="Fill-378" fill="#16110D" points="32.024 63.8806 30.788 63.2226 39.601 46.6466 40.837 47.3046"></polygon>
                <polygon id="Fill-380" fill="#16110D" points="35.5806 66.8044 34.3516 66.1354 38.2626 58.9564 39.4916 59.6254"></polygon>
                <path d="M67.1382,15.0739 C67.7482,11.4689 68.3522,7.7529 68.3522,7.7529 L59.8692,2.3449 C59.8692,2.3449 59.6742,2.2659 59.3082,2.0579 C57.9992,1.5089 56.6022,1.5869 55.1052,2.4519 C37.9282,12.3679 36.1312,99.8869 36.1312,99.8869 C36.1312,99.8869 35.7062,94.7759 34.7082,88.1489 L35.3162,87.0149 L32.6312,64.3689 L28.3122,61.6899 C27.0682,60.9179 25.9122,60.0159 24.7052,59.1869 C23.1752,58.1359 21.4642,58.0109 19.5542,59.1829 C6.9722,66.9089 1.9792,126.7549 1.9792,126.7549 L11.0062,132.3579 L19.3212,116.8489 L76.6742,84.0899 C76.6742,84.0899 74.4812,38.4039 67.1382,15.0739" id="Fill-382" fill="#F28905"></path>
                <path d="M52.982,80.4001 L76.633,66.1801 C75.219,51.1341 72.74,31.5061 68.694,18.6541 C69.305,15.0481 69.909,11.3331 69.909,11.3331 L61.426,5.9231 C61.426,5.9231 61.231,5.8461 60.865,5.6381 C59.556,5.0881 58.159,5.1671 56.662,6.0311 C46.444,11.9301 41.669,45.2881 39.476,71.3501 L52.982,80.4001 Z" id="Fill-384" fill="#FFEECC"></path>
                <path d="M14.6929,125.8493 L33.6819,81.4903 L35.2859,77.2123 L34.1879,67.9493 L29.8679,65.2693 C28.6239,64.4973 27.4679,63.5963 26.2619,62.7673 C24.7319,61.7163 23.0209,61.5903 21.1109,62.7633 C11.8689,68.4383 6.7249,102.2123 4.6429,119.7553 L14.6929,125.8493 Z" id="Fill-386" fill="#FFEECC"></path>
                <g id="Group-390" fill="#16110D">
                    <path d="M2.9585,126.2634 L10.6535,131.0394 L18.6255,116.1704 L75.7125,83.5634 C75.4275,78.2234 73.0285,36.9014 66.2465,15.3544 L66.1795,15.1394 L66.2165,14.9174 C66.6785,12.1934 67.1355,9.4064 67.3315,8.2094 L59.4095,3.1584 C59.3735,3.1474 59.1625,3.0494 58.8475,2.8704 C57.8575,2.4604 56.7575,2.5754 55.5715,3.2604 C39.0435,12.8034 37.0825,99.0354 37.0655,99.9074 L35.2015,99.9644 C35.1965,99.9134 34.7665,94.8044 33.7835,88.2884 L33.7385,87.9814 L34.3545,86.8324 L31.7565,64.9254 L27.8185,62.4834 C27.0065,61.9784 26.2295,61.4204 25.4525,60.8624 C25.0295,60.5574 24.6065,60.2534 24.1775,59.9574 C22.8575,59.0524 21.5435,59.0604 20.0435,59.9794 C8.6405,66.9804 3.5125,120.1514 2.9585,126.2634 L2.9585,126.2634 Z M10.9785,133.4594 L0.9995,127.2464 L1.0485,126.6764 C1.2535,124.2134 6.2275,66.2694 19.0655,58.3874 C21.1835,57.0894 23.3165,57.1004 25.2345,58.4184 C25.6765,58.7214 26.1105,59.0334 26.5445,59.3464 C27.2865,59.8804 28.0265,60.4134 28.8035,60.8964 L33.5065,63.8124 L35.8565,83.6484 C37.2945,57.6744 41.6925,9.1174 54.6375,1.6424 C56.3405,0.6604 58.0315,0.5104 59.6705,1.1974 C60.0365,1.3984 60.1915,1.4664 60.2215,1.4784 L69.3725,7.2954 L69.2735,7.9024 C69.2735,7.9024 68.6935,11.4704 68.0965,15.0094 C75.3375,38.2534 77.5855,83.5884 77.6075,84.0454 L77.6355,84.6174 L20.0175,117.5264 L11.7465,132.9974 L10.9785,133.4594 Z" id="Fill-388"></path>
                </g>
                <path d="M11.0064,132.3581 C11.0064,132.3581 15.9994,72.5121 28.5814,64.7871 C41.1644,57.0611 45.1584,105.4911 45.1584,105.4911 C45.1584,105.4911 46.9564,17.9711 64.1324,8.0541 C81.3084,-1.8619 85.7024,89.6931 85.7024,89.6931 L11.0064,132.3581 Z" id="Fill-391" fill="#F28905"></path>
                <path d="M31.231,64.8884 C30.542,64.8884 29.825,65.1194 29.071,65.5824 C18.221,72.2434 13.052,120.7094 12.1,130.6584 L84.743,89.1654 C83.466,63.3984 78.454,14.2014 68.358,8.6924 C67.162,8.0364 65.931,8.0924 64.599,8.8644 C48.071,18.4074 46.161,103.5974 46.143,104.4674 L44.227,105.5674 C43.402,95.5604 39.72,68.8094 32.701,65.2534 C32.221,65.0104 31.732,64.8884 31.231,64.8884 L31.231,64.8884 Z M11.044,133.4154 L10.011,132.8004 C10.216,130.3364 15.255,71.8724 28.093,63.9914 C29.967,62.8404 31.802,62.7034 33.544,63.5874 C39.548,66.6284 42.955,82.2864 44.662,93.5644 C45.836,69.0954 49.963,15.1564 63.666,7.2454 C65.583,6.1394 67.46,6.0754 69.253,7.0524 C82.876,14.4884 86.489,86.5824 86.635,89.6484 L86.663,90.2204 L11.044,133.4154 Z" id="Fill-393" fill="#16110D"></path>
                <path d="M84.4126,74.7575 L85.9786,72.3455 L78.9756,68.7665 C78.9756,68.7665 78.3176,68.3655 78.3006,68.3815 C75.8036,67.1785 72.8366,67.1665 69.3246,69.1945 C53.9396,78.0755 54.5276,99.4075 38.5356,112.1475 C22.5436,124.8865 15.8626,120.5625 15.8626,120.5625 L14.0416,133.5345 L21.9316,137.6005 L44.7326,121.4125 L89.7506,90.2915 C89.7506,90.2915 88.2526,81.4195 84.4126,74.7575" id="Fill-395" fill="#F28905"></path>
                <path d="M86.272,77.7331 L87.838,75.3211 L80.835,71.7421 C80.835,71.7421 80.178,71.3411 80.16,71.3571 C77.663,70.1541 74.696,70.1421 71.185,72.1701 C55.8,81.0521 56.387,102.3831 40.395,115.1231 C24.403,127.8621 17.723,123.5381 17.723,123.5381 L16.559,132.2131 L27.47,130.3521 L45.572,119.6901 L91.611,93.2671 C91.611,93.2671 90.112,84.3951 86.272,77.7331" id="Fill-397" fill="#FFEECC"></path>
                <path d="M15.0581,133.0085 L21.8531,136.5095 L44.1921,120.6525 L88.7211,89.8675 C88.3171,87.8115 86.7581,80.6965 83.6041,75.2235 L83.3181,74.7285 L84.6311,72.7055 L78.5501,69.5975 C78.4961,69.5685 78.1751,69.3715 78.0001,69.2735 L77.8951,69.2225 C75.4191,68.0295 72.7701,68.2835 69.7911,70.0025 C62.1351,74.4235 58.5151,82.1375 54.6831,90.3055 C50.9331,98.2925 47.0571,106.5525 39.1181,112.8765 C26.4641,122.9545 19.3321,122.6125 16.6231,121.8625 L15.0581,133.0085 Z M21.6731,138.5665 L13.0251,134.0605 L15.1411,118.9825 L16.3701,119.7775 C16.4231,119.8075 22.8461,123.4515 37.9541,111.4155 C45.5521,105.3625 49.3331,97.3045 52.9921,89.5115 C56.9531,81.0705 60.6941,73.0985 68.8581,68.3845 C72.3581,66.3625 75.6711,66.0765 78.7051,67.5395 L78.7041,67.5445 C78.9181,67.6385 79.1621,67.7865 79.4601,67.9675 L87.3281,71.9855 L85.5041,74.7925 C89.1751,81.4465 90.6101,89.7765 90.6711,90.1365 L90.7701,90.7225 L45.2631,122.1815 L21.6731,138.5665 Z" id="Fill-399" fill="#16110D"></path>
                <path d="M97.689,94.1823 C97.689,94.1823 92.648,64.2023 77.263,73.0843 C61.878,81.9673 62.465,103.2983 46.473,116.0373 C30.481,128.7773 23.801,124.4533 23.801,124.4533 L21.979,137.4253 L97.689,94.1823 Z" id="Fill-401" fill="#F28905"></path>
                <polygon id="Fill-403" fill="#F28905" points="15.8628 120.5622 23.8008 124.4532 21.9308 137.6002 14.0418 133.5352"></polygon>
                <path d="M47.0552,116.7683 C54.9952,110.4443 58.8712,102.1843 62.6202,94.1973 C66.4522,86.0293 70.0742,78.3143 77.7292,73.8943 C80.6912,72.1833 83.3202,71.9133 85.7742,73.0693 C92.8582,76.4053 96.0192,90.5233 96.6482,93.7023 L23.1682,135.6713 L24.5612,125.7533 C27.2732,126.5043 34.4032,126.8463 47.0552,116.7683 L47.0552,116.7683 Z M16.6092,121.9673 L22.7812,124.9933 L21.1912,136.1683 L15.0582,133.0083 L16.6092,121.9673 Z M22.8132,138.0253 L98.7172,94.6703 L98.6102,94.0283 C98.4832,93.2763 95.4082,75.5423 86.5712,71.3793 C83.5702,69.9653 80.2792,70.2653 76.7952,72.2763 C68.6312,76.9903 64.8902,84.9623 60.9302,93.4033 C57.2722,101.1963 53.4912,109.2543 45.8922,115.3073 C32.2322,126.1873 25.6912,124.2583 24.5202,123.7653 L24.2622,123.6383 L23.0792,122.8733 L15.1172,119.1573 L13.0252,134.0603 L20.9372,138.1383 L21.8192,138.5933 L22.8132,138.0253 Z" id="Fill-405" fill="#16110D"></path>
                <path d="M100.8296,97.654 C100.8296,97.654 95.7886,67.674 80.4036,76.556 C65.0186,85.439 65.6066,106.77 49.6146,119.509 C33.6226,132.249 26.9416,127.925 26.9416,127.925 L25.1206,140.897 L100.8296,97.654 Z" id="Fill-407" fill="#16110D"></path>
            </g>
        </g>
    </g>
</svg>