<?xml version="1.0" encoding="UTF-8"?>
<svg width="102px" height="151px" viewBox="0 0 102 151" version="1.1" xmlns="http://www.w3.org/2000/svg" xmlns:xlink="http://www.w3.org/1999/xlink">
    <!-- Generator: Sketch 58 (84663) - https://sketch.com -->
    <title>Group 3</title>
    <desc>Created with Sketch.</desc>
    <defs>
        <polygon id="path-1" points="0.36505 0.81575 2.41655 0.81575 2.41655 2 0.36505 2"></polygon>
        <polygon id="path-3" points="0 0.774142473 76.6355 0.774142473 76.6355 133.4594 0 133.4594"></polygon>
    </defs>
    <g id="Dashboards" stroke="none" stroke-width="1" fill="none" fill-rule="evenodd">
        <g id="Mapa-Flujo-Celulosa" transform="translate(-1943.000000, -418.000000)">
            <g id="Group-3" transform="translate(1943.000000, 418.000000)">
                <path d="M6.1783,141.5573 C6.5783,141.7883 6.5783,142.1633 6.1783,142.3953 C5.7783,142.6263 5.1283,142.6263 4.7283,142.3953 C4.3263,142.1633 4.3263,141.7883 4.7283,141.5573 C5.1283,141.3263 5.7783,141.3263 6.1783,141.5573" id="Fill-205" fill="#16110D"></path>
                <path d="M9.9712,139.3679 C10.3712,139.5989 10.3712,139.9739 9.9712,140.2049 C9.5712,140.4359 8.9212,140.4359 8.5202,140.2049 C8.1192,139.9739 8.1192,139.5989 8.5202,139.3679 C8.9212,139.1369 9.5712,139.1369 9.9712,139.3679" id="Fill-207" fill="#16110D"></path>
                <path d="M13.7642,137.1784 C14.1642,137.4084 14.1642,137.7834 13.7642,138.0154 C13.3642,138.2464 12.7132,138.2464 12.3132,138.0154 C11.9122,137.7834 11.9122,137.4084 12.3132,137.1784 C12.7132,136.9474 13.3642,136.9474 13.7642,137.1784" id="Fill-209" fill="#16110D"></path>
                <path d="M0.9302,139.3708 C1.3292,139.1388 1.9802,139.1388 2.3802,139.3688 C2.7822,139.5998 2.7842,139.9748 2.3832,140.2068 C1.9842,140.4378 1.3342,140.4388 0.9332,140.2078 C0.5322,139.9768 0.5302,139.6018 0.9302,139.3708" id="Fill-211" fill="#16110D"></path>
                <path d="M6.1783,137.1784 C6.5783,137.4094 6.5783,137.7834 6.1783,138.0154 C5.7783,138.2464 5.1283,138.2464 4.7283,138.0154 C4.3273,137.7834 4.3273,137.4094 4.7283,137.1784 C5.1283,136.9474 5.7783,136.9474 6.1783,137.1784" id="Fill-213" fill="#16110D"></path>
                <path d="M9.9712,134.988 C10.3712,135.219 10.3712,135.594 9.9712,135.826 C9.5712,136.057 8.9212,136.057 8.5212,135.826 C8.1192,135.594 8.1192,135.219 8.5212,134.988 C8.9212,134.758 9.5712,134.758 9.9712,134.988" id="Fill-215" fill="#16110D"></path>
                <path d="M2.3853,134.988 C2.7863,135.219 2.7863,135.594 2.3853,135.826 C1.9853,136.057 1.3353,136.057 0.9353,135.826 C0.5343,135.594 0.5343,135.219 0.9353,134.988 C1.3353,134.758 1.9853,134.758 2.3853,134.988" id="Fill-217" fill="#16110D"></path>
                <path d="M6.1783,132.7985 C6.5783,133.0295 6.5783,133.4045 6.1783,133.6365 C5.7783,133.8675 5.1283,133.8675 4.7283,133.6365 C4.3273,133.4045 4.3273,133.0295 4.7283,132.7985 C5.1283,132.5675 5.7783,132.5675 6.1783,132.7985" id="Fill-219" fill="#16110D"></path>
                <path d="M2.3863,130.6091 C2.7863,130.8401 2.7863,131.2151 2.3853,131.4461 C1.9853,131.6771 1.3353,131.6771 0.9353,131.4461 C0.5343,131.2151 0.5343,130.8401 0.9353,130.6091 C1.3353,130.3781 1.9853,130.3781 2.3863,130.6091" id="Fill-221" fill="#16110D"></path>
                <g id="Group-225" transform="translate(27.000000, 149.000000)">
                    <mask id="mask-2" fill="white">
                        <use xlink:href="#path-1"></use>
                    </mask>
                    <g id="Clip-224"></g>
                    <path d="M2.1158,0.989 C2.5168,1.22 2.5168,1.595 2.1158,1.827 C1.7158,2.058 1.0658,2.058 0.6658,1.827 C0.2648,1.595 0.2648,1.22 0.6658,0.989 C1.0658,0.758 1.7158,0.758 2.1158,0.989" id="Fill-223" fill="#16110D" mask="url(#mask-2)"></path>
                </g>
                <path d="M32.9087,147.7995 C33.3087,148.0305 33.3087,148.4055 32.9087,148.6365 C32.5087,148.8675 31.8587,148.8675 31.4587,148.6365 C31.0567,148.4055 31.0567,148.0305 31.4587,147.7995 C31.8587,147.5685 32.5087,147.5685 32.9087,147.7995" id="Fill-226" fill="#16110D"></path>
                <path d="M36.7017,145.6101 C37.1017,145.8401 37.1017,146.2151 36.7017,146.4471 C36.3017,146.6781 35.6517,146.6781 35.2507,146.4471 C34.8497,146.2151 34.8497,145.8401 35.2507,145.6101 C35.6517,145.3791 36.3017,145.3791 36.7017,145.6101" id="Fill-228" fill="#16110D"></path>
                <path d="M40.4947,143.4196 C40.8947,143.6506 40.8947,144.0256 40.4947,144.2576 C40.0937,144.4886 39.4437,144.4886 39.0437,144.2576 C38.6427,144.0256 38.6427,143.6506 39.0437,143.4196 C39.4437,143.1886 40.0937,143.1886 40.4947,143.4196" id="Fill-230" fill="#16110D"></path>
                <path d="M44.2867,141.2302 C44.6877,141.4612 44.6877,141.8362 44.2867,142.0672 C43.8867,142.2982 43.2367,142.2982 42.8367,142.0672 C42.4357,141.8362 42.4357,141.4612 42.8367,141.2302 C43.2367,140.9992 43.8867,140.9992 44.2867,141.2302" id="Fill-232" fill="#16110D"></path>
                <path d="M48.0796,139.0407 C48.4796,139.2707 48.4796,139.6457 48.0796,139.8777 C47.6796,140.1087 47.0296,140.1087 46.6296,139.8777 C46.2286,139.6457 46.2286,139.2707 46.6296,139.0407 C47.0296,138.8097 47.6796,138.8097 48.0796,139.0407" id="Fill-234" fill="#16110D"></path>
                <path d="M51.8726,136.8503 C52.2726,137.0813 52.2726,137.4563 51.8726,137.6883 C51.4726,137.9193 50.8226,137.9193 50.4226,137.6883 C50.0206,137.4563 50.0206,137.0813 50.4226,136.8503 C50.8226,136.6193 51.4726,136.6193 51.8726,136.8503" id="Fill-236" fill="#16110D"></path>
                <path d="M55.6656,134.6608 C56.0656,134.8918 56.0656,135.2668 55.6656,135.4988 C55.2656,135.7288 54.6156,135.7288 54.2146,135.4988 C53.8136,135.2668 53.8136,134.8918 54.2146,134.6608 C54.6156,134.4298 55.2656,134.4298 55.6656,134.6608" id="Fill-238" fill="#16110D"></path>
                <path d="M59.4576,132.4714 C59.8586,132.7024 59.8586,133.0764 59.4576,133.3084 C59.0576,133.5394 58.4076,133.5394 58.0076,133.3084 C57.6066,133.0764 57.6066,132.7024 58.0076,132.4714 C58.4076,132.2404 59.0576,132.2404 59.4576,132.4714" id="Fill-240" fill="#16110D"></path>
                <path d="M63.2505,130.281 C63.6505,130.512 63.6505,130.887 63.2505,131.119 C62.8505,131.35 62.2005,131.35 61.8005,131.119 C61.3995,130.887 61.3995,130.512 61.8005,130.281 C62.2005,130.051 62.8505,130.051 63.2505,130.281" id="Fill-242" fill="#16110D"></path>
                <path d="M67.0435,128.0915 C67.4435,128.3225 67.4435,128.6975 67.0435,128.9295 C66.6435,129.1605 65.9935,129.1605 65.5935,128.9295 C65.1915,128.6975 65.1915,128.3225 65.5935,128.0915 C65.9935,127.8605 66.6435,127.8605 67.0435,128.0915" id="Fill-244" fill="#16110D"></path>
                <path d="M70.8365,125.9021 C71.2365,126.1331 71.2365,126.5081 70.8365,126.7391 C70.4365,126.9701 69.7865,126.9701 69.3855,126.7391 C68.9845,126.5081 68.9845,126.1331 69.3855,125.9021 C69.7865,125.6711 70.4365,125.6711 70.8365,125.9021" id="Fill-246" fill="#16110D"></path>
                <path d="M74.6294,123.7116 C75.0294,123.9426 75.0294,124.3176 74.6294,124.5496 C74.2284,124.7806 73.5784,124.7806 73.1784,124.5496 C72.7774,124.3176 72.7774,123.9426 73.1784,123.7116 C73.5784,123.4816 74.2284,123.4816 74.6294,123.7116" id="Fill-248" fill="#16110D"></path>
                <path d="M78.4214,121.5222 C78.8224,121.7532 78.8224,122.1282 78.4214,122.3602 C78.0214,122.5912 77.3714,122.5912 76.9714,122.3602 C76.5704,122.1282 76.5704,121.7532 76.9714,121.5222 C77.3714,121.2912 78.0214,121.2912 78.4214,121.5222" id="Fill-250" fill="#16110D"></path>
                <path d="M82.2144,119.3327 C82.6144,119.5637 82.6144,119.9387 82.2144,120.1697 C81.8144,120.4007 81.1644,120.4007 80.7644,120.1697 C80.3624,119.9387 80.3624,119.5637 80.7644,119.3327 C81.1644,119.1017 81.8144,119.1017 82.2144,119.3327" id="Fill-252" fill="#16110D"></path>
                <path d="M86.0074,117.1433 C86.4074,117.3743 86.4074,117.7483 86.0074,117.9803 C85.6074,118.2113 84.9574,118.2113 84.5564,117.9803 C84.1554,117.7483 84.1554,117.3743 84.5564,117.1433 C84.9574,116.9123 85.6074,116.9123 86.0074,117.1433" id="Fill-254" fill="#16110D"></path>
                <path d="M20.0425,149.9685 C20.4415,149.7375 21.0915,149.7365 21.4925,149.9675 C21.8945,150.1975 21.8955,150.5725 21.4955,150.8045 C21.0955,151.0365 20.4465,151.0365 20.0455,150.8065 C19.6445,150.5755 19.6425,150.2005 20.0425,149.9685" id="Fill-256" fill="#16110D"></path>
                <path d="M25.2906,147.7761 C25.6906,148.0071 25.6906,148.3821 25.2906,148.6141 C24.8906,148.8451 24.2406,148.8451 23.8406,148.6141 C23.4386,148.3821 23.4386,148.0071 23.8406,147.7761 C24.2406,147.5451 24.8906,147.5451 25.2906,147.7761" id="Fill-258" fill="#16110D"></path>
                <path d="M29.0835,145.5866 C29.4835,145.8176 29.4835,146.1926 29.0835,146.4236 C28.6835,146.6546 28.0335,146.6546 27.6325,146.4236 C27.2315,146.1926 27.2315,145.8176 27.6325,145.5866 C28.0335,145.3556 28.6835,145.3556 29.0835,145.5866" id="Fill-260" fill="#16110D"></path>
                <path d="M32.8755,143.3972 C33.2765,143.6272 33.2765,144.0022 32.8755,144.2342 C32.4755,144.4652 31.8255,144.4652 31.4255,144.2342 C31.0245,144.0022 31.0245,143.6272 31.4255,143.3972 C31.8255,143.1662 32.4755,143.1662 32.8755,143.3972" id="Fill-262" fill="#16110D"></path>
                <path d="M36.6685,141.2067 C37.0685,141.4377 37.0685,141.8127 36.6685,142.0447 C36.2685,142.2757 35.6185,142.2757 35.2185,142.0447 C34.8175,141.8127 34.8175,141.4377 35.2185,141.2067 C35.6185,140.9757 36.2685,140.9757 36.6685,141.2067" id="Fill-264" fill="#16110D"></path>
                <path d="M40.4615,139.0173 C40.8615,139.2483 40.8615,139.6233 40.4615,139.8553 C40.0615,140.0863 39.4115,140.0863 39.0115,139.8553 C38.6095,139.6233 38.6095,139.2483 39.0115,139.0173 C39.4115,138.7863 40.0615,138.7863 40.4615,139.0173" id="Fill-266" fill="#16110D"></path>
                <path d="M44.2544,136.8278 C44.6544,137.0588 44.6544,137.4338 44.2544,137.6648 C43.8544,137.8958 43.2034,137.8958 42.8034,137.6648 C42.4024,137.4338 42.4024,137.0588 42.8034,136.8278 C43.2044,136.5968 43.8544,136.5968 44.2544,136.8278" id="Fill-268" fill="#16110D"></path>
                <path d="M48.0474,134.6374 C48.4474,134.8684 48.4474,135.2434 48.0474,135.4754 C47.6464,135.7064 46.9964,135.7064 46.5964,135.4754 C46.1954,135.2434 46.1954,134.8684 46.5964,134.6374 C46.9964,134.4074 47.6464,134.4074 48.0474,134.6374" id="Fill-270" fill="#16110D"></path>
                <path d="M51.8394,132.448 C52.2404,132.679 52.2404,133.054 51.8394,133.286 C51.4394,133.516 50.7894,133.516 50.3894,133.286 C49.9884,133.054 49.9884,132.679 50.3894,132.448 C50.7894,132.217 51.4394,132.217 51.8394,132.448" id="Fill-272" fill="#16110D"></path>
                <path d="M55.6324,130.2585 C56.0324,130.4895 56.0324,130.8645 55.6324,131.0955 C55.2324,131.3265 54.5824,131.3265 54.1824,131.0955 C53.7804,130.8645 53.7804,130.4895 54.1824,130.2585 C54.5824,130.0275 55.2324,130.0275 55.6324,130.2585" id="Fill-274" fill="#16110D"></path>
                <path d="M59.4253,128.069 C59.8253,128.299 59.8253,128.674 59.4253,128.906 C59.0253,129.137 58.3753,129.137 57.9743,128.906 C57.5733,128.674 57.5733,128.299 57.9743,128.069 C58.3753,127.838 59.0253,127.838 59.4253,128.069" id="Fill-276" fill="#16110D"></path>
                <path d="M63.2183,125.8786 C63.6183,126.1096 63.6183,126.4846 63.2183,126.7166 C62.8173,126.9476 62.1673,126.9476 61.7673,126.7166 C61.3663,126.4846 61.3663,126.1096 61.7673,125.8786 C62.1673,125.6476 62.8173,125.6476 63.2183,125.8786" id="Fill-278" fill="#16110D"></path>
                <path d="M67.0103,123.6892 C67.4113,123.9202 67.4113,124.2952 67.0103,124.5272 C66.6103,124.7572 65.9603,124.7572 65.5603,124.5272 C65.1593,124.2952 65.1593,123.9202 65.5603,123.6892 C65.9603,123.4582 66.6103,123.4582 67.0103,123.6892" id="Fill-280" fill="#16110D"></path>
                <path d="M70.8033,121.4997 C71.2033,121.7307 71.2033,122.1047 70.8033,122.3367 C70.4033,122.5677 69.7533,122.5677 69.3533,122.3367 C68.9523,122.1047 68.9523,121.7307 69.3533,121.4997 C69.7533,121.2687 70.4033,121.2687 70.8033,121.4997" id="Fill-282" fill="#16110D"></path>
                <path d="M74.5962,119.3093 C74.9962,119.5403 74.9962,119.9153 74.5962,120.1473 C74.1962,120.3783 73.5462,120.3783 73.1462,120.1473 C72.7442,119.9153 72.7442,119.5403 73.1462,119.3093 C73.5462,119.0793 74.1962,119.0793 74.5962,119.3093" id="Fill-284" fill="#16110D"></path>
                <path d="M78.3892,117.1198 C78.7892,117.3508 78.7892,117.7258 78.3892,117.9578 C77.9882,118.1878 77.3382,118.1878 76.9382,117.9578 C76.5372,117.7258 76.5372,117.3508 76.9382,117.1198 C77.3382,116.8888 77.9882,116.8888 78.3892,117.1198" id="Fill-286" fill="#16110D"></path>
                <path d="M82.1812,114.9304 C82.5822,115.1614 82.5822,115.5364 82.1812,115.7674 C81.7812,115.9984 81.1312,115.9984 80.7312,115.7674 C80.3302,115.5364 80.3302,115.1614 80.7312,114.9304 C81.1312,114.6994 81.7812,114.6994 82.1812,114.9304" id="Fill-288" fill="#16110D"></path>
                <path d="M16.2495,147.779 C16.6495,147.548 17.2995,147.547 17.6995,147.777 C18.1015,148.008 18.1035,148.383 17.7025,148.615 C17.3035,148.846 16.6535,148.847 16.2525,148.617 C15.8515,148.385 15.8505,148.01 16.2495,147.779" id="Fill-290" fill="#16110D"></path>
                <path d="M21.4976,145.5866 C21.8976,145.8176 21.8976,146.1926 21.4976,146.4236 C21.0976,146.6546 20.4476,146.6546 20.0476,146.4236 C19.6466,146.1926 19.6466,145.8176 20.0476,145.5866 C20.4476,145.3556 21.0976,145.3556 21.4976,145.5866" id="Fill-292" fill="#16110D"></path>
                <path d="M25.2906,143.3972 C25.6906,143.6272 25.6906,144.0022 25.2906,144.2342 C24.8906,144.4652 24.2406,144.4652 23.8406,144.2342 C23.4386,144.0022 23.4386,143.6272 23.8406,143.3972 C24.2406,143.1662 24.8906,143.1662 25.2906,143.3972" id="Fill-294" fill="#16110D"></path>
                <path d="M29.0835,141.2067 C29.4835,141.4377 29.4835,141.8127 29.0835,142.0447 C28.6835,142.2757 28.0335,142.2757 27.6325,142.0447 C27.2315,141.8127 27.2315,141.4377 27.6325,141.2067 C28.0335,140.9757 28.6835,140.9757 29.0835,141.2067" id="Fill-296" fill="#16110D"></path>
                <path d="M32.8755,139.0173 C33.2765,139.2483 33.2765,139.6233 32.8755,139.8553 C32.4755,140.0863 31.8255,140.0863 31.4255,139.8553 C31.0245,139.6233 31.0245,139.2483 31.4255,139.0173 C31.8255,138.7863 32.4755,138.7863 32.8755,139.0173" id="Fill-298" fill="#16110D"></path>
                <path d="M36.6685,136.8278 C37.0685,137.0588 37.0685,137.4338 36.6685,137.6648 C36.2685,137.8958 35.6185,137.8958 35.2185,137.6648 C34.8175,137.4338 34.8175,137.0588 35.2185,136.8278 C35.6185,136.5968 36.2685,136.5968 36.6685,136.8278" id="Fill-300" fill="#16110D"></path>
                <path d="M40.4615,134.6384 C40.8615,134.8684 40.8615,135.2434 40.4615,135.4754 C40.0615,135.7064 39.4115,135.7064 39.0115,135.4754 C38.6095,135.2434 38.6095,134.8684 39.0115,134.6384 C39.4115,134.4074 40.0615,134.4074 40.4615,134.6384" id="Fill-302" fill="#16110D"></path>
                <path d="M44.2544,132.448 C44.6544,132.679 44.6544,133.054 44.2544,133.286 C43.8544,133.517 43.2044,133.517 42.8034,133.286 C42.4024,133.054 42.4024,132.679 42.8034,132.448 C43.2044,132.217 43.8544,132.217 44.2544,132.448" id="Fill-304" fill="#16110D"></path>
                <path d="M48.0474,130.2585 C48.4474,130.4895 48.4474,130.8645 48.0474,131.0955 C47.6464,131.3265 46.9964,131.3265 46.5964,131.0955 C46.1954,130.8645 46.1954,130.4895 46.5964,130.2585 C46.9964,130.0275 47.6464,130.0275 48.0474,130.2585" id="Fill-306" fill="#16110D"></path>
                <path d="M51.8394,128.069 C52.2404,128.299 52.2404,128.674 51.8394,128.906 C51.4394,129.137 50.7894,129.137 50.3894,128.906 C49.9884,128.674 49.9884,128.299 50.3894,128.069 C50.7894,127.838 51.4394,127.838 51.8394,128.069" id="Fill-308" fill="#16110D"></path>
                <path d="M55.6324,125.8786 C56.0324,126.1096 56.0324,126.4846 55.6324,126.7166 C55.2324,126.9476 54.5824,126.9476 54.1824,126.7166 C53.7804,126.4846 53.7804,126.1096 54.1824,125.8786 C54.5824,125.6476 55.2324,125.6476 55.6324,125.8786" id="Fill-310" fill="#16110D"></path>
                <path d="M59.4253,123.6892 C59.8253,123.9202 59.8253,124.2952 59.4253,124.5272 C59.0253,124.7572 58.3753,124.7572 57.9743,124.5272 C57.5733,124.2952 57.5733,123.9202 57.9743,123.6892 C58.3753,123.4582 59.0253,123.4582 59.4253,123.6892" id="Fill-312" fill="#16110D"></path>
                <path d="M63.2183,121.4997 C63.6183,121.7307 63.6183,122.1047 63.2183,122.3367 C62.8173,122.5677 62.1673,122.5677 61.7673,122.3367 C61.3663,122.1047 61.3663,121.7307 61.7673,121.4997 C62.1673,121.2687 62.8183,121.2687 63.2183,121.4997" id="Fill-314" fill="#16110D"></path>
                <path d="M67.0103,119.3093 C67.4113,119.5403 67.4113,119.9153 67.0103,120.1473 C66.6103,120.3783 65.9603,120.3783 65.5603,120.1473 C65.1593,119.9153 65.1593,119.5403 65.5603,119.3093 C65.9603,119.0793 66.6103,119.0793 67.0103,119.3093" id="Fill-316" fill="#16110D"></path>
                <path d="M70.8033,117.1198 C71.2033,117.3508 71.2033,117.7258 70.8033,117.9578 C70.4033,118.1888 69.7533,118.1888 69.3533,117.9578 C68.9523,117.7258 68.9523,117.3508 69.3533,117.1198 C69.7533,116.8888 70.4033,116.8888 70.8033,117.1198" id="Fill-318" fill="#16110D"></path>
                <path d="M74.5962,114.9304 C74.9962,115.1614 74.9962,115.5364 74.5962,115.7674 C74.1962,115.9984 73.5462,115.9984 73.1462,115.7674 C72.7442,115.5364 72.7442,115.1614 73.1462,114.9304 C73.5462,114.6994 74.1962,114.6994 74.5962,114.9304" id="Fill-320" fill="#16110D"></path>
                <path d="M78.3892,112.7399 C78.7892,112.9709 78.7892,113.3459 78.3892,113.5779 C77.9882,113.8089 77.3382,113.8089 76.9382,113.5779 C76.5372,113.3459 76.5372,112.9709 76.9382,112.7399 C77.3382,112.5099 77.9882,112.5099 78.3892,112.7399" id="Fill-322" fill="#16110D"></path>
                <path d="M12.4566,145.5896 C12.8566,145.3586 13.5066,145.3576 13.9076,145.5876 C14.3096,145.8186 14.3106,146.1936 13.9096,146.4256 C13.5106,146.6566 12.8606,146.6576 12.4596,146.4266 C12.0586,146.1956 12.0576,145.8206 12.4566,145.5896" id="Fill-324" fill="#16110D"></path>
                <path d="M17.7056,143.3972 C18.1056,143.6272 18.1056,144.0022 17.7056,144.2342 C17.3046,144.4652 16.6546,144.4652 16.2546,144.2342 C15.8536,144.0022 15.8536,143.6272 16.2546,143.3972 C16.6546,143.1662 17.3046,143.1662 17.7056,143.3972" id="Fill-326" fill="#16110D"></path>
                <path d="M21.4976,141.2067 C21.8976,141.4377 21.8976,141.8127 21.4976,142.0447 C21.0976,142.2757 20.4476,142.2757 20.0476,142.0447 C19.6466,141.8127 19.6466,141.4377 20.0476,141.2067 C20.4476,140.9757 21.0976,140.9757 21.4976,141.2067" id="Fill-328" fill="#16110D"></path>
                <path d="M8.6646,143.3991 C9.0636,143.1681 9.7136,143.1671 10.1146,143.3981 C10.5166,143.6281 10.5176,144.0031 10.1176,144.2361 C9.7176,144.4671 9.0676,144.4671 8.6666,144.2371 C8.2656,144.0061 8.2646,143.6311 8.6646,143.3991" id="Fill-330" fill="#16110D"></path>
                <path d="M13.9126,141.2067 C14.3126,141.4377 14.3126,141.8127 13.9126,142.0447 C13.5126,142.2757 12.8616,142.2757 12.4616,142.0447 C12.0606,141.8127 12.0606,141.4377 12.4616,141.2067 C12.8626,140.9757 13.5126,140.9757 13.9126,141.2067" id="Fill-332" fill="#16110D"></path>
                <path d="M17.7056,139.0173 C18.1056,139.2483 18.1056,139.6233 17.7056,139.8553 C17.3046,140.0863 16.6546,140.0863 16.2546,139.8553 C15.8536,139.6233 15.8536,139.2483 16.2546,139.0173 C16.6546,138.7863 17.3046,138.7863 17.7056,139.0173" id="Fill-334" fill="#16110D"></path>
                <path d="M88.3755,114.9743 C88.7745,114.7433 89.4245,114.7423 89.8255,114.9733 C90.2275,115.2033 90.2285,115.5783 89.8285,115.8103 C89.4285,116.0413 88.7785,116.0423 88.3775,115.8123 C87.9765,115.5803 87.9755,115.2053 88.3755,114.9743" id="Fill-336" fill="#16110D"></path>
                <path d="M93.6236,112.7819 C94.0236,113.0129 94.0236,113.3879 93.6236,113.6199 C93.2236,113.8499 92.5736,113.8499 92.1726,113.6199 C91.7716,113.3879 91.7716,113.0129 92.1726,112.7819 C92.5736,112.5509 93.2236,112.5509 93.6236,112.7819" id="Fill-338" fill="#16110D"></path>
                <path d="M97.4165,110.5925 C97.8165,110.8235 97.8165,111.1985 97.4165,111.4295 C97.0155,111.6605 96.3655,111.6605 95.9655,111.4295 C95.5645,111.1985 95.5645,110.8235 95.9655,110.5925 C96.3655,110.3615 97.0155,110.3615 97.4165,110.5925" id="Fill-340" fill="#16110D"></path>
                <path d="M101.2085,108.4021 C101.6095,108.6331 101.6095,109.0081 101.2085,109.2401 C100.8085,109.4711 100.1585,109.4711 99.7585,109.2401 C99.3575,109.0081 99.3575,108.6331 99.7585,108.4021 C100.1585,108.1721 100.8085,108.1721 101.2085,108.4021" id="Fill-342" fill="#16110D"></path>
                <path d="M84.5493,112.7614 C84.9493,112.5304 85.5993,112.5294 86.0003,112.7604 C86.4023,112.9904 86.4033,113.3654 86.0023,113.5974 C85.6033,113.8294 84.9533,113.8294 84.5523,113.5994 C84.1513,113.3674 84.1503,112.9934 84.5493,112.7614" id="Fill-344" fill="#16110D"></path>
                <path d="M89.7974,110.569 C90.1984,110.8 90.1984,111.175 89.7974,111.407 C89.3974,111.638 88.7474,111.638 88.3474,111.407 C87.9464,111.175 87.9464,110.8 88.3474,110.569 C88.7474,110.338 89.3974,110.338 89.7974,110.569" id="Fill-346" fill="#16110D"></path>
                <path d="M93.5904,108.3796 C93.9904,108.6106 93.9904,108.9856 93.5904,109.2176 C93.1904,109.4476 92.5404,109.4476 92.1404,109.2176 C91.7384,108.9856 91.7384,108.6106 92.1404,108.3796 C92.5404,108.1486 93.1904,108.1486 93.5904,108.3796" id="Fill-348" fill="#16110D"></path>
                <path d="M97.3833,106.1901 C97.7833,106.4201 97.7833,106.7951 97.3833,107.0271 C96.9833,107.2581 96.3333,107.2581 95.9323,107.0271 C95.5313,106.7951 95.5313,106.4201 95.9323,106.1901 C96.3333,105.9591 96.9833,105.9591 97.3833,106.1901" id="Fill-350" fill="#16110D"></path>
                <path d="M101.1763,103.9997 C101.5763,104.2307 101.5763,104.6057 101.1763,104.8377 C100.7763,105.0687 100.1253,105.0687 99.7253,104.8377 C99.3243,104.6057 99.3243,104.2307 99.7253,103.9997 C100.1253,103.7697 100.7763,103.7697 101.1763,103.9997" id="Fill-352" fill="#16110D"></path>
                <path d="M80.7574,110.572 C81.1564,110.341 81.8064,110.34 82.2074,110.571 C82.6094,110.801 82.6104,111.176 82.2104,111.408 C81.8104,111.639 81.1604,111.64 80.7594,111.41 C80.3584,111.178 80.3574,110.803 80.7574,110.572" id="Fill-354" fill="#16110D"></path>
                <path d="M86.0054,108.3796 C86.4054,108.6106 86.4054,108.9856 86.0054,109.2176 C85.6044,109.4476 84.9544,109.4476 84.5544,109.2176 C84.1534,108.9856 84.1534,108.6106 84.5544,108.3796 C84.9544,108.1486 85.6044,108.1486 86.0054,108.3796" id="Fill-356" fill="#16110D"></path>
                <path d="M89.7974,106.1901 C90.1984,106.4201 90.1984,106.7951 89.7974,107.0271 C89.3974,107.2581 88.7474,107.2581 88.3474,107.0271 C87.9464,106.7951 87.9464,106.4201 88.3474,106.1901 C88.7474,105.9591 89.3974,105.9591 89.7974,106.1901" id="Fill-358" fill="#16110D"></path>
                <path d="M93.5904,103.9997 C93.9904,104.2307 93.9904,104.6057 93.5904,104.8377 C93.1904,105.0687 92.5404,105.0687 92.1404,104.8377 C91.7394,104.6057 91.7394,104.2307 92.1404,103.9997 C92.5404,103.7697 93.1904,103.7697 93.5904,103.9997" id="Fill-360" fill="#16110D"></path>
                <path d="M97.3833,101.8103 C97.7833,102.0413 97.7833,102.4163 97.3833,102.6483 C96.9833,102.8783 96.3333,102.8783 95.9333,102.6483 C95.5313,102.4163 95.5313,102.0413 95.9333,101.8103 C96.3333,101.5793 96.9833,101.5793 97.3833,101.8103" id="Fill-362" fill="#16110D"></path>
                <path d="M101.1763,99.6208 C101.5763,99.8508 101.5763,100.2268 101.1763,100.4578 C100.7763,100.6888 100.1263,100.6888 99.7253,100.4578 C99.3243,100.2268 99.3243,99.8508 99.7253,99.6208 C100.1263,99.3898 100.7763,99.3898 101.1763,99.6208" id="Fill-364" fill="#16110D"></path>
                <path d="M18.3902,73.8679 C18.3902,73.8679 22.1852,26.0149 30.1742,21.4029 C38.1622,16.7909 42.7562,68.7949 42.7562,68.7949 L34.5682,97.5069 L22.5842,103.7329 L18.3902,73.8679 Z" id="Fill-366" fill="#D1C900"></path>
                <path d="M19.3296,73.8395 L23.3256,102.2955 L33.7796,96.8635 L41.8106,68.7055 C40.2586,51.2585 36.2796,24.5915 31.6206,22.1685 C31.2826,21.9935 30.9996,22.0055 30.6416,22.2115 C24.4526,25.7845 20.3876,60.5885 19.3296,73.8395 L19.3296,73.8395 Z M21.8436,105.1705 L17.4506,73.8965 L17.4596,73.7945 C17.8506,68.8465 21.5286,25.3165 29.7076,20.5935 C30.6146,20.0695 31.5746,20.0375 32.4816,20.5125 C39.5586,24.1925 43.2856,64.1665 43.6866,68.7125 L43.7026,68.8855 L35.3556,98.1505 L21.8436,105.1705 Z" id="Fill-368" fill="#16110D"></path>
                <polygon id="Fill-370" fill="#16110D" points="23.105 42.2067 21.869 41.5507 32.297 21.8987 33.534 22.5567"></polygon>
                <polygon id="Fill-372" fill="#16110D" points="21.0054 55.3581 19.7664 54.7021 34.6314 26.6461 35.8694 27.3031"></polygon>
                <polygon id="Fill-374" fill="#16110D" points="23.6519 59.5602 22.4129 58.9052 36.4219 32.3672 37.6599 33.0222"></polygon>
                <polygon id="Fill-376" fill="#16110D" points="27.23 61.8386 25.994 61.1796 38.29 38.0856 39.526 38.7436"></polygon>
                <polygon id="Fill-378" fill="#16110D" points="31.024 63.8806 29.788 63.2226 38.601 46.6466 39.837 47.3046"></polygon>
                <polygon id="Fill-380" fill="#16110D" points="34.5806 66.8044 33.3516 66.1354 37.2626 58.9564 38.4916 59.6254"></polygon>
                <path d="M66.1382,15.0739 C66.7482,11.4689 67.3522,7.7529 67.3522,7.7529 L58.8692,2.3449 C58.8692,2.3449 58.6742,2.2659 58.3082,2.0579 C56.9992,1.5089 55.6022,1.5869 54.1052,2.4519 C36.9282,12.3679 35.1312,99.8869 35.1312,99.8869 C35.1312,99.8869 34.7062,94.7759 33.7082,88.1489 L34.3162,87.0149 L31.6312,64.3689 L27.3122,61.6899 C26.0682,60.9179 24.9122,60.0159 23.7052,59.1869 C22.1752,58.1359 20.4642,58.0109 18.5542,59.1829 C5.9722,66.9089 0.9792,126.7549 0.9792,126.7549 L10.0062,132.3579 L18.3212,116.8489 L75.6742,84.0899 C75.6742,84.0899 73.4812,38.4039 66.1382,15.0739" id="Fill-382" fill="#D1C900"></path>
                <path d="M51.982,80.4001 L75.633,66.1801 C74.219,51.1341 71.74,31.5061 67.694,18.6541 C68.305,15.0481 68.909,11.3331 68.909,11.3331 L60.426,5.9231 C60.426,5.9231 60.231,5.8461 59.865,5.6381 C58.556,5.0881 57.159,5.1671 55.662,6.0311 C45.444,11.9301 40.669,45.2881 38.476,71.3501 L51.982,80.4001 Z" id="Fill-384" fill="#FFEECC"></path>
                <path d="M13.6929,125.8493 L32.6819,81.4903 L34.2859,77.2123 L33.1879,67.9493 L28.8679,65.2693 C27.6239,64.4973 26.4679,63.5963 25.2619,62.7673 C23.7319,61.7163 22.0209,61.5903 20.1109,62.7633 C10.8689,68.4383 5.7249,102.2123 3.6429,119.7553 L13.6929,125.8493 Z" id="Fill-386" fill="#FFEECC"></path>
                <g id="Group-390">
                    <mask id="mask-4" fill="white">
                        <use xlink:href="#path-3"></use>
                    </mask>
                    <g id="Clip-389"></g>
                    <path d="M1.9585,126.2634 L9.6535,131.0394 L17.6255,116.1704 L74.7125,83.5634 C74.4275,78.2234 72.0285,36.9014 65.2465,15.3544 L65.1795,15.1394 L65.2165,14.9174 C65.6785,12.1934 66.1355,9.4064 66.3315,8.2094 L58.4095,3.1584 C58.3735,3.1474 58.1625,3.0494 57.8475,2.8704 C56.8575,2.4604 55.7575,2.5754 54.5715,3.2604 C38.0435,12.8034 36.0825,99.0354 36.0655,99.9074 L34.2015,99.9644 C34.1965,99.9134 33.7665,94.8044 32.7835,88.2884 L32.7385,87.9814 L33.3545,86.8324 L30.7565,64.9254 L26.8185,62.4834 C26.0065,61.9784 25.2295,61.4204 24.4525,60.8624 C24.0295,60.5574 23.6065,60.2534 23.1775,59.9574 C21.8575,59.0524 20.5435,59.0604 19.0435,59.9794 C7.6405,66.9804 2.5125,120.1514 1.9585,126.2634 L1.9585,126.2634 Z M9.9785,133.4594 L-0.0005,127.2464 L0.0485,126.6764 C0.2535,124.2134 5.2275,66.2694 18.0655,58.3874 C20.1835,57.0894 22.3165,57.1004 24.2345,58.4184 C24.6765,58.7214 25.1105,59.0334 25.5445,59.3464 C26.2865,59.8804 27.0265,60.4134 27.8035,60.8964 L32.5065,63.8124 L34.8565,83.6484 C36.2945,57.6744 40.6925,9.1174 53.6375,1.6424 C55.3405,0.6604 57.0315,0.5104 58.6705,1.1974 C59.0365,1.3984 59.1915,1.4664 59.2215,1.4784 L68.3725,7.2954 L68.2735,7.9024 C68.2735,7.9024 67.6935,11.4704 67.0965,15.0094 C74.3375,38.2534 76.5855,83.5884 76.6075,84.0454 L76.6355,84.6174 L19.0175,117.5264 L10.7465,132.9974 L9.9785,133.4594 Z" id="Fill-388" fill="#16110D" mask="url(#mask-4)"></path>
                </g>
                <path d="M10.0064,132.3581 C10.0064,132.3581 14.9994,72.5121 27.5814,64.7871 C40.1644,57.0611 44.1584,105.4911 44.1584,105.4911 C44.1584,105.4911 45.9564,17.9711 63.1324,8.0541 C80.3084,-1.8619 84.7024,89.6931 84.7024,89.6931 L10.0064,132.3581 Z" id="Fill-391" fill="#D1C900"></path>
                <path d="M30.231,64.8884 C29.542,64.8884 28.825,65.1194 28.071,65.5824 C17.221,72.2434 12.052,120.7094 11.1,130.6584 L83.743,89.1654 C82.466,63.3984 77.454,14.2014 67.358,8.6924 C66.162,8.0364 64.931,8.0924 63.599,8.8644 C47.071,18.4074 45.161,103.5974 45.143,104.4674 L43.227,105.5674 C42.402,95.5604 38.72,68.8094 31.701,65.2534 C31.221,65.0104 30.732,64.8884 30.231,64.8884 L30.231,64.8884 Z M10.044,133.4154 L9.011,132.8004 C9.216,130.3364 14.255,71.8724 27.093,63.9914 C28.967,62.8404 30.802,62.7034 32.544,63.5874 C38.548,66.6284 41.955,82.2864 43.662,93.5644 C44.836,69.0954 48.963,15.1564 62.666,7.2454 C64.583,6.1394 66.46,6.0754 68.253,7.0524 C81.876,14.4884 85.489,86.5824 85.635,89.6484 L85.663,90.2204 L10.044,133.4154 Z" id="Fill-393" fill="#16110D"></path>
                <path d="M83.4126,74.7575 L84.9786,72.3455 L77.9756,68.7665 C77.9756,68.7665 77.3176,68.3655 77.3006,68.3815 C74.8036,67.1785 71.8366,67.1665 68.3246,69.1945 C52.9396,78.0755 53.5276,99.4075 37.5356,112.1475 C21.5436,124.8865 14.8626,120.5625 14.8626,120.5625 L13.0416,133.5345 L20.9316,137.6005 L43.7326,121.4125 L88.7506,90.2915 C88.7506,90.2915 87.2526,81.4195 83.4126,74.7575" id="Fill-395" fill="#D1C900"></path>
                <path d="M85.272,77.7331 L86.838,75.3211 L79.835,71.7421 C79.835,71.7421 79.178,71.3411 79.16,71.3571 C76.663,70.1541 73.696,70.1421 70.185,72.1701 C54.8,81.0521 55.387,102.3831 39.395,115.1231 C23.403,127.8621 16.723,123.5381 16.723,123.5381 L15.559,132.2131 L26.47,130.3521 L44.572,119.6901 L90.611,93.2671 C90.611,93.2671 89.112,84.3951 85.272,77.7331" id="Fill-397" fill="#FFEECC"></path>
                <path d="M14.0581,133.0085 L20.8531,136.5095 L43.1921,120.6525 L87.7211,89.8675 C87.3171,87.8115 85.7581,80.6965 82.6041,75.2235 L82.3181,74.7285 L83.6311,72.7055 L77.5501,69.5975 C77.4961,69.5685 77.1751,69.3715 77.0001,69.2735 L76.8951,69.2225 C74.4191,68.0295 71.7701,68.2835 68.7911,70.0025 C61.1351,74.4235 57.5151,82.1375 53.6831,90.3055 C49.9331,98.2925 46.0571,106.5525 38.1181,112.8765 C25.4641,122.9545 18.3321,122.6125 15.6231,121.8625 L14.0581,133.0085 Z M20.6731,138.5665 L12.0251,134.0605 L14.1411,118.9825 L15.3701,119.7775 C15.4231,119.8075 21.8461,123.4515 36.9541,111.4155 C44.5521,105.3625 48.3331,97.3045 51.9921,89.5115 C55.9531,81.0705 59.6941,73.0985 67.8581,68.3845 C71.3581,66.3625 74.6711,66.0765 77.7051,67.5395 L77.7041,67.5445 C77.9181,67.6385 78.1621,67.7865 78.4601,67.9675 L86.3281,71.9855 L84.5041,74.7925 C88.1751,81.4465 89.6101,89.7765 89.6711,90.1365 L89.7701,90.7225 L44.2631,122.1815 L20.6731,138.5665 Z" id="Fill-399" fill="#16110D"></path>
                <path d="M96.689,94.1823 C96.689,94.1823 91.648,64.2023 76.263,73.0843 C60.878,81.9673 61.465,103.2983 45.473,116.0373 C29.481,128.7773 22.801,124.4533 22.801,124.4533 L20.979,137.4253 L96.689,94.1823 Z" id="Fill-401" fill="#D1C900"></path>
                <polygon id="Fill-403" fill="#D1C900" points="14.8628 120.5622 22.8008 124.4532 20.9308 137.6002 13.0418 133.5352"></polygon>
                <path d="M46.0552,116.7683 C53.9952,110.4443 57.8712,102.1843 61.6202,94.1973 C65.4522,86.0293 69.0742,78.3143 76.7292,73.8943 C79.6912,72.1833 82.3202,71.9133 84.7742,73.0693 C91.8582,76.4053 95.0192,90.5233 95.6482,93.7023 L22.1682,135.6713 L23.5612,125.7533 C26.2732,126.5043 33.4032,126.8463 46.0552,116.7683 L46.0552,116.7683 Z M15.6092,121.9673 L21.7812,124.9933 L20.1912,136.1683 L14.0582,133.0083 L15.6092,121.9673 Z M21.8132,138.0253 L97.7172,94.6703 L97.6102,94.0283 C97.4832,93.2763 94.4082,75.5423 85.5712,71.3793 C82.5702,69.9653 79.2792,70.2653 75.7952,72.2763 C67.6312,76.9903 63.8902,84.9623 59.9302,93.4033 C56.2722,101.1963 52.4912,109.2543 44.8922,115.3073 C31.2322,126.1873 24.6912,124.2583 23.5202,123.7653 L23.2622,123.6383 L22.0792,122.8733 L14.1172,119.1573 L12.0252,134.0603 L19.9372,138.1383 L20.8192,138.5933 L21.8132,138.0253 Z" id="Fill-405" fill="#16110D"></path>
                <path d="M99.8296,97.654 C99.8296,97.654 94.7886,67.674 79.4036,76.556 C64.0186,85.439 64.6066,106.77 48.6146,119.509 C32.6226,132.249 25.9416,127.925 25.9416,127.925 L24.1206,140.897 L99.8296,97.654 Z" id="Fill-407" fill="#16110D"></path>
            </g>
        </g>
    </g>
</svg>