<?xml version="1.0" encoding="UTF-8"?>
<svg width="81px" height="60px" viewBox="0 0 81 60" version="1.1" xmlns="http://www.w3.org/2000/svg" xmlns:xlink="http://www.w3.org/1999/xlink">
    <!-- Generator: Sketch 55 (78076) - https://sketchapp.com -->
    <title>alert truck</title>
    <desc>Created with Sketch.</desc>
    <g id="Dashboards" stroke="none" stroke-width="1" fill="none" fill-rule="evenodd" fill-opacity="0.4">
        <g id="Inicio" transform="translate(-1089.000000, -166.000000)" fill="#000000">
            <g id="alert-truck" transform="translate(1089.000000, 166.000000)">
                <path d="M22.2325204,16.9867273 C22.2313656,19.2943306 22.218168,21.6020992 22.2407688,23.9095372 C22.2463778,24.4733388 22.0850377,24.895157 21.6820173,25.2974711 C18.5883452,28.3855702 15.5034165,31.4827603 12.4402637,34.6012727 C11.9217648,35.1292066 11.682724,35.0842479 11.3120377,34.4497025 C5.72336762,24.885405 10.6965367,12.3738347 21.3350866,9.24441322 C22.0035428,9.04771901 22.2643595,9.10523967 22.2495122,9.89912397 C22.2053004,12.2609421 22.2336752,14.6240826 22.2325204,16.9867273 Z M52.7342169,50.9220331 C52.7267933,52.214595 53.7345916,53.2301322 55.0139297,53.2188926 C56.2414674,53.208314 57.2585041,52.1742645 57.248276,50.947157 C57.2380479,49.7061653 56.2521904,48.7231901 54.9923187,48.6977355 C53.7654409,48.6727769 52.7411456,49.6815372 52.7342169,50.9220331 Z M52.5614939,36.5828595 C52.5614939,39.0040165 52.5532454,41.4255041 52.5644633,43.8466612 C52.5720519,45.4835207 53.4858177,46.4605455 54.980276,46.4686446 C56.4518035,46.4764132 57.4148951,45.4531074 57.4163798,43.8569091 C57.4205041,38.9868264 57.4218238,34.1167438 57.4163798,29.2464959 C57.4145652,27.7144298 56.3615652,26.5631901 54.9929786,26.5651736 C53.6097098,26.567157 52.5685876,27.7002149 52.5634735,29.2364132 C52.5552251,31.6851736 52.5613289,34.1340992 52.5614939,36.5828595 Z M54.9707077,59.9025289 C47.6325367,59.9025289 40.2943656,59.9031901 32.9560295,59.8998843 C32.6000255,59.899719 32.2389073,59.8952562 31.8886772,59.8392231 C29.3436935,59.4314545 28.2083737,57.1678182 29.4637912,54.9081488 C31.3352047,51.540876 33.261058,48.2040165 35.1591965,44.8514545 C40.7450621,34.986 46.3286181,25.1190579 51.9139888,15.2531074 C52.0225387,15.0615372 52.1333982,14.8707934 52.2556405,14.6879835 C53.7012678,12.5217025 56.3935692,12.5367438 57.7407098,14.7612066 C58.8377566,16.5727769 59.856443,18.4324463 60.9003697,20.2760826 C64.7646141,27.1002149 68.6248992,33.9264959 72.486669,40.752281 C75.0610173,45.3025289 77.5655835,49.8944298 80.2349542,54.3881488 C81.87772,57.1532727 80.570502,59.9643471 76.985056,59.9304628 C69.6475448,59.8610413 62.3088788,59.9096364 54.9707077,59.9096364 L54.9707077,59.9025289 Z M27.8753004,0.165322314 C36.1429094,0.519867769 43.7905631,4.88697521 48.9399196,13.541686 C49.2596303,14.0792066 49.277612,14.5243306 48.9552617,15.0658182 C48.1812251,16.3659835 47.4584939,17.6967273 46.7063982,19.010281 C46.5889399,19.215405 46.5307057,19.5468099 46.2472882,19.5359008 C45.9483635,19.5244959 45.9503432,19.1755702 45.8706629,18.9623471 C44.4967974,15.2858182 42.2540377,12.2435041 39.2027627,9.79722314 C26.727443,-0.204595041 7.85460794,7.13507438 5.38221079,22.9464793 C3.5434613,34.7053223 11.4806365,45.5010248 23.2404837,47.2273058 C25.5160723,47.5611901 27.7860519,47.4797025 30.0466283,47.0673058 C30.2488809,47.030281 30.4940255,46.8712727 30.6363941,47.1306116 C30.7391701,47.3175537 30.577335,47.4963967 30.4839623,47.6613554 C29.6988727,49.0511074 28.897946,50.4319339 28.1324878,51.832595 C27.8761253,52.3015207 27.5410723,52.482843 27.0130051,52.4932562 C20.3688605,52.6233388 14.4494267,50.6345785 9.35731466,46.3436694 C4.1439501,41.9509421 1.14381568,36.3069752 0.222791242,29.5610248 C-1.20831874,19.0772231 4.36517413,8.27871074 13.7364287,3.31490909 C17.7666324,1.18019835 21.737612,0.17292562 27.8753004,0.165322314 Z" id="Fill-8"></path>
                <path d="M27.974942,17.6498182 C27.974942,19.8790744 27.9866548,22.1084959 27.9670234,24.3375868 C27.9619094,24.9192397 28.1047729,25.3496529 28.5409521,25.7893223 C29.4199094,26.6752727 29.7099257,27.7739504 29.2008299,28.9734545 C28.6937138,30.1683306 27.7923208,30.8795702 26.467946,30.8632066 C25.9306405,30.856595 25.6016914,31.060562 25.2720825,31.425686 C23.3374857,33.5683306 21.3877118,35.6974215 19.4504756,37.8377521 C18.9120153,38.4324628 18.3113615,38.8066777 17.4917933,38.4689917 C16.4483615,38.0389091 16.1985978,36.8894876 17.0094226,35.9504793 C18.2848014,34.4732893 19.6189094,33.0471736 20.9282719,31.599405 C21.3524084,31.1304793 21.7494898,30.6327934 22.2067851,30.1989091 C23.006722,29.4400661 23.6095204,28.6602314 23.4722658,27.4283306 C23.3952251,26.7374215 23.8493859,26.1041983 24.3972495,25.6567603 C24.8095081,25.3202314 24.912779,24.935438 24.9071701,24.4344463 C24.8647729,20.6451901 24.8347485,16.8557686 24.8169318,13.0663471 C24.8129725,12.2420496 24.8717016,11.4172562 24.9051904,10.5929587 C24.9426385,9.66981818 25.5129379,9.04221488 26.349168,8.99808264 C27.1456405,8.95593388 27.8784348,9.5802314 27.9434328,10.468 C28.0095855,11.3718017 27.9772515,12.2832066 27.9795611,13.1911405 C27.9835204,14.6774215 27.9807159,16.1637025 27.9807159,17.6498182 L27.974942,17.6498182 Z" id="Fill-9"></path>
            </g>
        </g>
    </g>
</svg>