<?xml version="1.0" encoding="UTF-8"?>
<svg width="28px" height="25px" viewBox="0 0 28 25" version="1.1" xmlns="http://www.w3.org/2000/svg" xmlns:xlink="http://www.w3.org/1999/xlink">
    <!-- Generator: Sketch 56.2 (81672) - https://sketch.com -->
    <title>update</title>
    <desc>Created with Sketch.</desc>
    <g id="Dashboards" stroke="none" stroke-width="1" fill="none" fill-rule="evenodd">
        <g id="Bitacora-+-SOP" transform="translate(-1099.000000, -437.000000)" fill="#53A543">
            <g id="update" transform="translate(1099.000000, 437.046004)">
                <path d="M7.05204348,16.9187105 C7.05204348,15.026876 7.06750815,13.1348179 7.03992403,11.243319 C7.03401087,10.8212832 7.17222283,10.6136769 7.55490217,10.4472899 C8.27540761,10.133923 8.97086141,9.76624964 9.65883967,9.38599237 C11.2550109,8.50394539 12.1580109,7.12156283 12.6831821,5.44784919 C13.0922826,4.14421384 13.3960408,2.82128319 13.5590761,1.46647335 C13.6709239,0.536831291 14.5524674,-0.110372288 15.490163,0.0156903516 C17.2006359,0.24566798 18.0965027,1.32754717 18.5332799,2.84756955 C19.1107799,4.85741295 18.7956658,6.79482905 17.9359212,8.67050019 C17.7873234,8.99460534 17.7837853,8.99460534 18.1608723,8.9947172 C20.538038,8.99527648 22.9152038,8.9939342 25.2924837,8.99550019 C26.8342717,8.99650691 27.896769,9.94684248 27.9934946,11.4481288 C28.0318995,12.0448291 27.8878098,12.622178 27.5041033,13.105847 C27.3451766,13.3061825 27.3641223,13.438621 27.5061576,13.6381176 C28.2900625,14.7396277 28.1208641,16.2282742 27.1281005,17.1250304 C26.8714212,17.3569096 26.5750815,17.5272675 26.2404511,17.6119991 C26.005,17.6716188 25.9663668,17.7746389 26.0365,17.9895159 C26.2515788,18.6484085 26.1908043,19.2965628 25.8981739,19.9211154 C25.5967554,20.564404 25.1049674,21.0099857 24.4053478,21.2065181 C24.1807962,21.2696053 24.1348016,21.3490796 24.2020245,21.5759812 C24.7317609,23.3650192 23.5179837,24.9452765 21.6231902,24.9468425 C19.4837011,24.9485763 17.3439837,24.9644599 15.2047228,24.9423682 C13.5153071,24.9248626 11.8549375,24.6740796 10.2308614,24.2089789 C9.26360598,23.9319655 8.315125,23.5986881 7.35728533,23.2936546 C7.10996467,23.2149074 7.04473913,23.0840349 7.04565217,22.8458917 C7.05307065,20.8701646 7.04981793,18.8944376 7.04981793,16.9187105 L7.05204348,16.9187105 Z" id="Fill-1"></path>
                <path d="M5.99957676,16.9530277 C5.9996302,18.9681918 6.00080602,20.9834115 5.99898885,22.9985756 C5.99840094,23.6468721 5.70701137,23.9502613 5.07832181,23.9518775 C3.69790915,23.9552769 2.31744305,23.9539957 0.936976956,23.9523233 C0.310211462,23.9515988 0.00326900229,23.6348346 0.00252075322,22.9761725 C-0.000365350359,20.4687533 0.00086391598,17.9613342 0.000596684167,15.4539151 C0.000489791442,13.977317 -0.000953260347,12.5007189 0.00107770143,11.0241209 C0.00214662868,10.2518271 0.277395396,9.95852484 1.01474141,9.95635141 C2.38628197,9.95239464 3.75787597,9.95367641 5.12936308,9.95830193 C5.69562729,9.96025245 5.99840094,10.2842057 5.99888195,10.8795596 C6.00048534,12.9040861 5.99952331,14.9285569 5.99957676,16.9530277" id="Fill-4"></path>
            </g>
        </g>
    </g>
</svg>