<?xml version="1.0" encoding="UTF-8"?>
<svg width="28px" height="26px" viewBox="0 0 28 26" version="1.1" xmlns="http://www.w3.org/2000/svg" xmlns:xlink="http://www.w3.org/1999/xlink">
    <!-- Generator: Sketch 55 (78076) - https://sketchapp.com -->
    <title>alerta-red</title>
    <desc>Created with Sketch.</desc>
    <g id="Dashboards" stroke="none" stroke-width="1" fill="none" fill-rule="evenodd">
        <g id="Inicio" transform="translate(-1099.000000, -316.000000)" fill="#F24141">
            <g id="alerta-red" transform="translate(1099.000000, 316.000000)">
                <path d="M12.3443473,20.9218735 C12.3396394,21.9845126 13.0888252,22.7487857 14.1417987,22.7555077 C15.2210376,22.7624199 15.9499048,22.0114004 15.9946925,20.9394394 C16.0388606,19.8821272 15.1160995,19.0314199 14.1995332,19.0394101 C13.106542,19.0489857 12.3493031,19.8034296 12.3443473,20.9218735 M15.9897987,8.22892719 C15.9930818,7.77411744 15.9931438,7.32006866 15.9129225,6.87071256 C15.8149845,6.32198573 15.6863827,5.78461012 15.1732146,5.47064427 C14.4457102,5.02547354 13.2719402,5.26239061 12.7568518,5.95107354 C12.4343562,6.38229305 12.3392057,6.88054183 12.3403827,7.41227354 C12.3432942,8.77543451 12.4619225,10.1323809 12.5424535,11.491293 C12.6166659,12.7446833 12.7027102,13.9975028 12.7979845,15.2494345 C12.8364535,15.7547223 12.9143827,16.2577272 13.1129225,16.7287711 C13.283896,17.1341809 13.5852677,17.355054 14.0242854,17.3719857 C14.4875863,17.3899955 14.848427,17.2260687 15.0714358,16.7901565 C15.2963031,16.3505028 15.3820995,15.8759711 15.4229225,15.3888833 C15.5111349,14.3376589 15.5957544,13.2861809 15.6880553,12.235337 C15.8053208,10.901093 15.9542411,9.56944915 15.9897987,8.22892719 M13.9496394,25.9554101 C10.3475509,25.9552833 6.74546237,25.9582004 3.14331193,25.9542687 C0.652426972,25.9515418 -0.780776568,23.4323321 0.446887149,21.2145321 C2.87353317,16.8308052 5.30538272,12.4501223 7.73376325,8.06741012 C8.9098252,5.94498573 10.0830995,3.82097597 11.2573031,1.69747354 C11.8610376,0.605727194 12.7663296,-0.00977524502 13.9993208,0.000117437911 C15.2049933,0.0097564623 16.0848252,0.61948817 16.678896,1.69151256 C19.3008606,6.42300524 21.9298252,11.1504394 24.5547013,15.8802199 C25.5281969,17.6343955 26.4744358,19.4048052 27.4753119,21.1423662 C28.4279314,22.796093 27.8632854,24.6400004 26.5002057,25.4992052 C26.0037633,25.812093 25.4590641,25.9544589 24.8797987,25.9547126 C21.2363916,25.9564248 17.5929845,25.9556004 13.9496394,25.9554101" id="Fill-1"></path>
            </g>
        </g>
    </g>
</svg>