<?xml version="1.0" encoding="UTF-8"?>
<svg width="123px" height="20px" viewBox="0 0 123 20" version="1.1" xmlns="http://www.w3.org/2000/svg" xmlns:xlink="http://www.w3.org/1999/xlink">
    <!-- Generator: Sketch 55 (78076) - https://sketchapp.com -->
    <title>arauco</title>
    <desc>Created with Sketch.</desc>
    <g id="Dashboards" stroke="none" stroke-width="1" fill="none" fill-rule="evenodd">
        <g id="Inicio" transform="translate(-51.000000, -28.000000)" fill="#FFFFFF">
            <g id="arauco" transform="translate(51.000000, 28.000000)">
                <path d="M91.8465597,20.0000952 C90.318496,19.5941905 88.7864412,19.1892381 87.4894877,18.2233333 C84.1515049,15.7368571 82.6057659,12.4206667 83.3139208,8.29095238 C84.0007892,4.286 86.4778107,1.70257143 90.2977797,0.399714286 C90.7440351,0.24752381 91.2032145,0.13247619 91.656502,9.52380953e-05 L94.6974246,9.52380953e-05 C96.9372542,0.490761905 98.9493947,1.40161905 100.576858,3.08314286 C101.07785,3.60085714 101.144941,3.9667619 100.58085,4.48809524 C99.6275205,5.3692381 98.7080215,6.29133333 97.8282445,7.24638095 C97.2808785,7.84066667 96.9547395,7.99 96.4436745,7.16657143 C95.532538,5.69838095 94.0654829,5.33266667 92.4585453,5.58066667 C90.947777,5.814 89.9978688,6.79647619 89.4541138,8.19133333 C89.1956353,8.85495238 89.1895535,9.55533333 89.2034277,10.2562857 C89.2423895,12.2225714 90.3424433,13.7818095 92.0672166,14.3090476 C93.8071945,14.8408571 95.4498629,14.2501905 96.5995217,12.5985714 C96.966333,12.0713333 97.2050455,12.0964762 97.6091081,12.5181905 C98.4864142,13.4330476 99.3945098,14.3181905 100.289681,15.2159048 C101.262206,16.1913333 101.259166,16.2351429 100.233994,17.2191429 C98.6236359,18.7650476 96.646656,19.549619 94.507367,20.0000952 L91.8465597,20.0000952 Z" id="Fill-10"></path>
                <path d="M79.6936745,9.72651738 C79.693487,12.5408518 79.6723012,15.355376 79.706236,18.1691407 C79.7167351,19.0303422 79.4218215,19.318802 78.5620164,19.3102565 C74.7223281,19.2717065 70.8820773,19.2840501 67.0423891,19.3030402 C66.4328761,19.3062685 65.971851,19.1190261 65.5507602,18.6778858 C64.5312179,17.6093123 63.4912399,16.5602986 62.4392628,15.5245779 C62.0307334,15.1225573 61.8468109,14.6810372 61.8488732,14.0978509 C61.8640595,9.76582691 61.8728713,5.43361299 61.8436236,1.10177887 C61.8379991,0.275709063 62.1087271,-0.0281327057 62.9278481,0.00699899879 C64.1433119,0.0592218028 65.3645878,0.0666279459 66.5791142,0.00491008663 C67.4691044,-0.0404762776 67.776392,0.260896777 67.7655179,1.18400605 C67.7225838,4.8515661 67.7690801,8.52007566 67.732708,12.1878256 C67.7244587,13.0330754 67.9425035,13.3889501 68.8328687,13.3426142 C70.1096401,13.2765286 71.3933483,13.2903914 72.6716196,13.3384364 C73.4534311,13.3676812 73.7027858,13.0691566 73.6967863,12.2920813 C73.6686636,8.65585495 73.6829125,5.01924878 73.6859122,1.38283251 C73.6870371,0.0237102961 73.6917242,0.0221910872 75.0470517,0.0201021751 C76.201958,0.0180132629 77.3596765,0.0675774514 78.5113955,0.00491008663 C79.4056979,-0.0438944975 79.7225471,0.273240349 79.7090482,1.18894348 C79.6668642,4.03423174 79.6936745,6.88065941 79.6936745,9.72651738" id="Fill-12"></path>
                <path d="M29.6317326,3.99254431 C30.5096974,3.0876511 31.3964532,2.19092719 32.2614224,1.27368503 C32.6335159,0.879088514 33.044596,0.6765657 33.6030228,0.691384442 C34.6849032,0.71969204 35.7690769,0.725961508 36.8507662,0.691004475 C37.5622731,0.667826442 37.8049843,0.965151211 37.7889309,1.64833324 C37.7577798,2.97708048 37.7499442,4.30829752 37.7919887,5.63647481 C37.8160687,6.3920407 37.4984419,6.64129955 36.7779528,6.63389018 C34.7080277,6.612422 32.637147,6.66238776 30.5685596,6.61223201 C29.6697637,6.59019388 29.3423903,6.85845112 29.3540481,7.79146195 C29.3997236,11.4630904 29.3473592,15.1358587 29.389977,18.8076771 C29.4006792,19.7226395 29.1050302,20.0406725 28.1876966,19.9960263 C26.8850828,19.9327617 25.5769268,19.9606893 24.2716375,19.9859572 C23.6197572,19.9983061 23.3619483,19.7412579 23.3630949,19.0911331 C23.3747527,13.2662274 23.3736061,7.44113167 23.3634772,1.61622596 C23.3623305,0.993838777 23.5631883,0.67998541 24.2429708,0.693094297 C25.6755402,0.720451976 27.1090651,0.715702379 28.5418256,0.695754072 C29.1652302,0.687204797 29.3926525,0.96458126 29.3746881,1.55752094 C29.3519459,2.31384676 29.3691459,3.07150247 29.3691459,3.82877821 C29.4566748,3.88330358 29.5442037,3.93782896 29.6317326,3.99254431" id="Fill-14"></path>
                <path d="M117.176921,10.0148762 C117.183312,7.91011429 116.191456,6.2804 114.560419,5.71678095 C112.382131,4.96382857 110.142558,6.08173333 109.43664,8.27430476 C108.625069,10.7956381 109.719759,13.5270667 111.827549,14.2390667 C114.662124,15.1969714 117.166769,13.2190667 117.176921,10.0148762 M123.000038,7.80954286 L123.000038,12.1904952 C122.443387,13.8859238 121.729386,15.4743048 120.494828,16.8133524 C118.860032,18.5864952 116.802436,19.4706857 114.540303,20.000019 L111.908386,20.000019 C111.548941,19.900781 111.189309,19.800781 110.829676,19.7023048 C106.886688,18.6221143 104.314741,16.0983048 103.472151,12.0499238 C102.603806,7.87849524 104.022598,4.4604 107.351973,1.86287619 C108.644433,0.854495238 110.173013,0.401733333 111.720392,1.90476191e-05 L114.728298,1.90476191e-05 C115.912284,0.375447619 117.122966,0.660590476 118.2154,1.30706667 C120.725497,2.79220952 122.200311,5.04173333 123.000038,7.80954286" id="Fill-7"></path>
                <path d="M52.2421393,10.0166476 C52.2421393,9.4456 52.2425225,8.87474286 52.2421393,8.30388571 C52.240798,6.6343619 51.4636304,5.77264762 49.7709533,5.56331429 C46.9272786,5.21188571 44.9180628,6.90064762 44.7023107,9.82350476 C44.4693137,12.9827429 47.5992527,15.3414095 50.5496537,14.2296 C51.8428254,13.7423619 52.2396484,13.1789333 52.2419477,11.8244571 C52.2429057,11.2217905 52.2421393,10.6193143 52.2421393,10.0166476 L52.2421393,10.0166476 Z M48.0608397,7.61904763e-05 C49.212412,0.461219048 50.3858277,0.88312381 51.3176241,1.74769524 C51.6035053,2.01302857 51.8665849,1.91550476 52.0488054,1.65721905 C53.5650104,-0.491352381 55.8056903,0.539695238 57.7648961,0.381409524 C58.3052345,0.337790476 58.2538832,0.871314286 58.256949,1.23969524 C58.2684455,2.53874286 58.2634637,3.83798095 58.2634637,5.13702857 C58.2636553,9.5728381 58.2383629,14.0090286 58.2830078,18.4444571 C58.2927799,19.4069333 57.9944441,19.7810286 57.0294994,19.6764571 C56.4939512,19.6183619 55.9423078,19.6208381 55.4059932,19.6753143 C54.0921277,19.8086476 52.9436212,19.5920762 52.1323471,18.4254095 C51.9196607,18.1196952 51.6297558,17.9473143 51.2545846,18.2842667 C50.2333067,19.2017905 48.9822891,19.6593143 47.6776209,20.0000762 L45.7615272,20.0000762 C44.4909655,19.6581714 43.2734796,19.2115048 42.2571835,18.3353143 C36.1984953,13.1122667 38.0797161,1.71398095 45.5699179,7.61904763e-05 L48.0608397,7.61904763e-05 Z" id="Fill-4"></path>
                <path d="M13.0822312,10.0198095 C13.0822312,9.38533333 13.0839124,8.75085714 13.0820444,8.11638095 C13.0775612,6.75942857 12.5257591,6.02419048 11.2392793,5.65714286 C8.76140001,4.95009524 6.42679503,6.34647619 5.92318685,8.91428571 C5.5802252,10.6630476 5.88339882,12.3051429 7.30362619,13.4929524 C8.6422227,14.6125714 10.181067,14.7801905 11.7753904,14.0784762 C12.6413872,13.6971429 13.1853438,13.0819048 13.0926919,12.0175238 C13.0353448,11.3565714 13.0820444,10.6860952 13.0822312,10.0198095 M8.77951944,20 L6.7247383,20 C3.88951391,19.2375238 1.95372327,17.4245714 0.83592233,14.6929524 C0.503794977,13.8815238 0.27571427,13.0259048 -4.4941828e-13,12.1904762 L-4.4941828e-13,7.80952381 C0.914004014,4.10495238 2.67084189,1.13409524 6.53794001,-5.32907052e-15 L8.96631773,-5.32907052e-15 C10.0633841,0.363428571 11.1445725,0.776 12.0219641,1.56571429 C12.4755103,1.97390476 12.8334158,1.9807619 13.1692792,1.4832381 C13.8697727,0.445142857 14.8584961,0.210857143 16.0175794,0.323428571 C16.6332666,0.383047619 17.264458,0.386857143 17.8792112,0.322095238 C18.850749,0.219619048 19.0909716,0.658285714 19.0853677,1.58380952 C19.0524912,6.81028571 19.0806977,12.0371429 19.0651935,17.263619 C19.0569743,20.0748571 19.3917169,19.5887619 16.6814605,19.6788571 C15.2481573,19.7266667 13.8847166,19.7352381 12.9750089,18.328 C12.7609381,17.9967619 12.4557097,18.0384762 12.1749519,18.288381 C11.1910853,19.164 9.9937083,19.5994286 8.77951944,20" id="Fill-1"></path>
            </g>
        </g>
    </g>
</svg>