<?xml version="1.0" encoding="UTF-8"?>
<svg width="490px" height="444px" viewBox="0 0 490 444" version="1.1" xmlns="http://www.w3.org/2000/svg" xmlns:xlink="http://www.w3.org/1999/xlink">
    <!-- Generator: Sketch 56.2 (81672) - https://sketch.com -->
    <title>crane copy 2</title>
    <desc>Created with Sketch.</desc>
    <g id="crane-copy-2" stroke="none" stroke-width="1" fill="none" fill-rule="evenodd">
        <path d="M0,406.384323 L0,67.9178106 C0.688105469,65.802873 1.35515625,63.6812425 2.06814453,61.5749099 C7.98738281,44.0874734 24.7306445,31.0096628 42.4098828,30.4331224 C52.1285352,30.1166467 61.8682422,30.4350346 71.5935938,30.2591085 C75.4580859,30.1893118 76.9950781,31.5804665 76.9204297,35.5321109 C76.7529492,44.4527113 76.7194531,53.382873 76.9816797,62.299649 C77.4678516,78.8988499 89.1292773,91.5875196 104.470488,92.5350346 C121.681738,93.5982402 134.676309,83.1631455 137.021035,65.77897 C138.320684,56.1412794 137.511035,46.3630393 137.394277,36.6545958 C137.33877,32.0470531 138.587695,30.1300323 143.572871,30.2061291 C160.316133,30.4704111 177.067051,30.445552 193.81127,30.246679 C198.359082,30.1921801 199.556328,32.0107206 199.453926,36.1899215 C199.242422,44.7892656 199.20127,53.4029515 199.440527,62.0013395 C199.900859,78.5766374 211.645547,91.62194 226.669023,92.561806 C244.044883,93.6489145 256.851875,83.5867067 259.457871,66.0782356 C260.961367,55.9835196 259.878965,45.715746 259.936387,35.5292425 C259.958398,31.5881155 261.34418,30.23903 265.254609,30.2696259 C282.319434,30.4006143 299.387129,30.4149561 316.450996,30.2294688 C320.706914,30.1835751 322.015176,31.7879446 321.926172,35.851455 C321.737637,44.6114273 321.662988,53.3857413 321.969238,62.1399769 C322.557813,78.9495242 334.278574,91.8303741 349.284824,92.5436397 C367.119102,93.3907621 379.904082,83.1220323 382.041133,65.5370716 C382.882363,58.6204988 382.47084,51.5394734 382.453613,44.5339815 C382.420117,30.1539353 382.371309,30.1539353 396.953594,30.2973533 C425.147734,30.5736721 444.47498,50.3385866 444.415645,78.541261 C444.32377,121.723469 444.398418,164.904721 444.401289,208.086928 C444.402246,233.741543 444.315156,259.396157 444.477852,285.048859 C444.506562,289.61242 443.02125,291.324831 438.423672,291.102055 C432.377148,290.809483 426.304785,291.054249 420.244863,291.032259 C413.197285,291.006443 413.137949,290.989233 413.134121,283.804947 C413.104453,237.435991 413.103496,191.067035 413.093926,144.699035 C413.092969,138.053044 413.075742,138.027229 406.415762,138.027229 C288.54875,138.027229 170.682695,138.029141 52.8166406,138.030097 C46.4303711,138.030097 46.2542773,138.188813 46.2542773,144.363436 C46.2494922,199.496189 46.2648047,254.627986 46.2159961,309.760739 C46.212168,313.775487 46.6342188,317.713746 47.3787891,321.625233 C50.9781836,340.525815 70.438457,354.075949 89.3675781,350.906411 C107.960781,347.792328 119.398262,335.58363 121.988945,316.085473 C123.194805,307.014762 124.640879,305.690536 133.881973,305.688624 C249.355449,305.67237 364.828926,305.690536 480.303359,305.608309 C484.342988,305.605441 487.379648,307.007113 490,309.816194 L490,324.157995 C489.405684,326.465113 488.815195,328.772231 488.217051,331.077436 C480.407676,361.161755 452.890156,382.813095 422.494844,382.810226 C311.673496,382.800665 200.852148,382.702185 90.0308008,382.906794 C75.8294141,382.933566 62.4271484,380.878864 49.9570312,373.975677 C47.1825977,372.440148 46.2351367,373.180185 46.2667188,376.18527 C46.3442383,383.353303 46.0676563,390.534721 46.4131445,397.686499 C46.8380664,406.474199 52.6252344,412.049335 61.4012109,412.694716 C63.1458789,412.822836 64.9068164,412.751127 66.6610547,412.751127 C145.272559,412.754952 223.884062,412.759732 302.495566,412.75782 C333.429688,412.756864 364.363809,412.754952 395.29793,412.715751 C404.934277,412.703321 409.392129,409.694411 412.529277,400.796758 C413.457598,398.165515 414.965879,397.423566 417.482871,397.467547 C424.682617,397.594711 431.791445,396.674924 438.848594,395.342092 C444.185,394.333386 444.422344,394.502619 444.382148,400.143727 C444.221367,423.065751 423.07002,443.966536 399.721328,443.974185 C281.72416,444.016254 163.726992,443.97036 45.7298242,444.000002 C35.0943359,444.000002 25.755625,440.616291 17.3538477,434.238014 C8.01130859,427.144559 3.03378906,417.379704 0,406.384323" id="Fill-1" fill="#313131"></path>
        <path d="M91.4998801,214.936161 C84.3274653,214.936161 77.154093,215.029735 69.9845511,214.907221 C63.9622125,214.804001 61.1459145,212.014159 61.0817554,206.036066 C60.9754619,196.243646 60.9678011,186.447367 61.0884586,176.654948 C61.1583633,170.941175 63.9986012,168.107923 69.736533,168.071266 C84.5582466,167.978657 99.3809179,167.97094 114.202632,168.079948 C119.945351,168.122394 122.796123,170.959504 122.879434,176.672312 C123.024989,186.623903 123.046056,196.582247 122.902416,206.533839 C122.825808,211.854023 119.785432,214.82233 114.449692,214.924585 C106.801351,215.069286 99.1501366,214.961243 91.4998801,214.961243 L91.4998801,214.936161 Z" id="Fill-4" fill="#313131"></path>
        <path d="M183.950678,214.972759 C176.617601,214.966004 169.283566,215.058644 161.952405,214.93609 C155.948784,214.836695 153.179724,212.059439 153.101182,206.007955 C152.977623,196.373444 152.970919,186.734107 153.060954,177.098631 C153.118423,170.955472 156.088626,168.063382 162.333618,168.038292 C176.67986,167.980392 191.028017,167.986182 205.375216,168.069172 C212.250455,168.108737 214.900745,170.830023 214.95151,177.749038 C215.017599,186.903947 215.013768,196.058855 214.954383,205.213764 C214.90745,212.383678 212.294514,214.92065 204.994003,214.969864 C197.979881,215.016184 190.964801,214.979514 183.950678,214.972759" id="Fill-6" fill="#313131"></path>
        <path d="M275.897854,214.969357 C268.570249,214.969357 261.241687,215.053306 253.915997,214.943305 C247.971953,214.852602 245.169406,212.044682 245.094722,205.997522 C244.976952,196.366645 244.96259,186.732873 245.08802,177.102961 C245.167491,171.018169 247.917377,168.14367 253.861421,168.094459 C268.674615,167.971914 283.489723,167.965159 298.302917,168.094459 C303.954929,168.14367 306.865672,171.161943 306.925994,176.788397 C307.031317,186.579451 307.027487,196.373399 306.893439,206.164453 C306.813011,212.063015 303.891735,214.857427 297.87971,214.94427 C290.55402,215.050411 283.225458,214.969357 275.897854,214.969357" id="Fill-8" fill="#313131"></path>
        <path d="M368.483005,168.026045 C375.649978,168.026045 382.817909,167.954672 389.982968,168.048229 C395.88428,168.125389 398.82249,170.960071 398.905782,176.940005 C399.042688,186.724913 399.026413,196.515608 398.882805,206.300516 C398.799513,211.962163 395.889067,214.860502 390.200294,214.905833 C375.38957,215.022539 360.576932,215.026397 345.765251,214.94152 C340.165515,214.909691 337.188052,211.970843 337.103802,206.2928 C336.955408,196.347784 336.968811,186.396981 337.126779,176.451965 C337.211986,171.048805 340.120518,168.209301 345.54984,168.105135 C353.191675,167.957565 360.838298,168.067519 368.483005,168.067519 L368.483005,168.026045 Z" id="Fill-10" fill="#313131"></path>
        <path d="M92.1925465,229.034463 C99.5204916,229.032533 106.849394,228.946646 114.175424,229.059553 C119.899514,229.148335 122.802732,231.923723 122.886037,237.614427 C123.032538,247.56568 123.044986,257.522722 122.881249,267.473975 C122.792199,272.925355 119.926324,275.837775 114.506728,275.889886 C99.533897,276.031744 84.5581932,276.037534 69.5863195,275.901467 C63.9857509,275.851286 61.1189186,272.772882 61.0652972,267.105339 C60.9733747,257.313314 60.9705021,247.517429 61.1083858,237.726369 C61.1878605,232.02505 64.0566078,229.169565 69.7318634,229.069203 C77.2158852,228.936031 84.7056522,229.036393 92.1925465,229.034463" id="Fill-12" fill="#313131"></path>
        <path d="M183.739075,229.030363 C191.071616,229.029398 198.404158,228.955097 205.735742,229.051592 C212.05703,229.135542 214.829357,231.858623 214.903095,238.154903 C215.016094,247.7899 215.036205,257.428758 214.931823,267.06472 C214.86862,272.934494 211.864548,275.919075 205.968445,275.948989 C191.304319,276.024254 176.638279,276.020395 161.975111,275.909426 C155.96122,275.863108 153.142927,273.011689 153.079724,267.031912 C152.975343,257.234803 152.968639,247.435765 153.088343,237.639621 C153.158249,231.925204 155.99761,229.148086 161.742408,229.058346 C169.073992,228.945447 176.406533,229.031328 183.739075,229.030363" id="Fill-14" fill="#313131"></path>
        <path d="M276.248394,275.969013 C268.91569,275.969978 261.582986,276.046208 254.25124,275.946819 C247.934599,275.860939 245.166999,273.131108 245.095176,266.833874 C244.985046,257.197928 244.963978,247.559087 245.066446,237.924106 C245.129651,232.036009 248.108891,229.079416 254.025235,229.049503 C268.689685,228.976167 283.355094,228.980026 298.018586,229.09003 C304.042187,229.134418 306.853839,231.971357 306.918001,237.960774 C307.0243,247.756901 307.032919,257.556888 306.91034,267.352049 C306.839474,273.045228 303.971321,275.84936 298.244591,275.940064 C290.913802,276.055858 283.580141,275.968048 276.248394,275.969013" id="Fill-16" fill="#313131"></path>
        <path d="M366.936828,275.972908 C359.608358,275.970013 352.27893,276.052023 344.952375,275.943963 C339.000925,275.857129 336.173149,273.051421 336.097499,267.03285 C335.975884,257.403907 335.962478,247.771106 336.08888,238.142164 C336.171233,231.865019 338.9473,229.125884 345.307642,229.080538 C359.803707,228.978266 374.301687,228.970548 388.79871,229.073784 C395.046056,229.118166 397.899688,232.054125 397.948525,238.238646 C398.023217,247.708392 398.019387,257.180068 397.918839,266.649815 C397.849893,273.160446 395.045098,275.885109 388.443442,275.957471 C381.275848,276.036586 374.10538,275.975802 366.936828,275.972908" id="Fill-18" fill="#313131"></path>
        <path d="M244.95497,38.8160137 C244.95497,46.2862773 245.024038,53.7574963 244.936994,61.2258491 C244.831973,70.2696546 238.541151,76.8647728 230.04679,76.9975733 C220.961097,77.1399277 214.270061,71.0072225 214.148957,61.788579 C213.945538,46.2155778 213.952161,30.6358887 214.158418,15.0628875 C214.276684,6.13468524 220.923252,-0.0238157389 229.722267,0 C238.320702,0.0229988047 244.671131,6.43468048 244.926586,15.4517348 C245.03823,19.4233278 244.986193,23.3987424 244.995654,27.3722463 C245.004169,31.1871539 244.997546,35.0011061 244.997546,38.8160137 L244.95497,38.8160137 Z" id="Fill-20" fill="#313131"></path>
        <path d="M92.0260949,38.5269911 C92.0279901,31.0587965 91.9540776,23.5886906 92.0469421,16.1204961 C92.169182,6.35689477 98.3645689,-0.0276232095 107.524986,0 C116.583062,0.0268473076 122.921536,6.60535678 122.960387,16.2428158 C123.020086,31.0215272 123.015348,45.8002385 122.925326,60.5789499 C122.866575,70.2269208 116.51673,76.9315725 107.612165,77 C98.3541453,77.0710935 92.1066406,70.4744272 92.0336757,60.4575858 C91.9806103,53.147069 92.0232521,45.8375078 92.0260949,38.5269911" id="Fill-22" fill="#313131"></path>
        <path d="M367.943487,38.5952724 C367.94917,46.0633035 368.055249,53.5332453 367.92265,60.9984103 C367.753113,70.5242819 361.246297,77.0512857 352.206842,77 C343.457211,76.9490624 337.133191,70.3933979 337.071628,60.9945889 C336.973126,45.8999373 336.98165,30.8052857 337.06405,15.7106341 C337.114249,6.67963783 343.472365,0.112509027 352.001314,0.00168753457 C361.094755,-0.11677682 367.647981,6.0118428 367.894236,15.2405981 C368.102606,23.0200759 367.937805,30.8100625 367.943487,38.5952724" id="Fill-24" fill="#313131"></path>
    </g>
</svg>