<?xml version="1.0" encoding="UTF-8"?>
<svg width="55px" height="55px" viewBox="0 0 55 55" version="1.1" xmlns="http://www.w3.org/2000/svg" xmlns:xlink="http://www.w3.org/1999/xlink">
    <!-- Generator: Sketch 55.2 (78181) - https://sketchapp.com -->
    <title>STOCK Copy 2</title>
    <desc>Created with Sketch.</desc>
    <g id="Dashboards" stroke="none" stroke-width="1" fill="none" fill-rule="evenodd">
        <g id="Bitacora-+-SOP-Copy" transform="translate(-910.000000, -369.000000)" fill="#7C6E62">
            <g id="Group-3" transform="translate(170.000000, 71.000000)">
                <g id="Group-7" transform="translate(87.000000, 290.000000)">
                    <g id="Group-6" transform="translate(653.000000, 0.000000)">
                        <g id="condiciones" transform="translate(0.000000, 8.000000)">
                            <path d="M34.7485596,40.3931758 C37.9593994,40.3819668 40.3974463,37.9201797 40.3932622,34.6934414 C40.3890674,31.5406094 37.88646,29.0955801 34.6813135,29.1128901 C31.5749951,29.1297402 29.1028955,31.626332 29.112642,34.7364102 C29.122876,37.9422012 31.5757471,40.4042031 34.7485596,40.3931758 M25.8880954,20.261957 C25.8949561,17.1356582 23.4221045,14.6145742 20.3018213,14.5669863 C17.1890576,14.5195059 14.5999756,17.0840957 14.5658154,20.2488516 C14.5328369,23.3108047 17.0956006,25.8718496 20.2089014,25.8880447 C23.3956787,25.9043984 25.8810986,23.4422891 25.8880954,20.261957 M37.3202541,19.8932852 C37.323999,18.9277773 36.6137256,18.017377 35.6228662,17.7664395 C34.6890479,17.5301113 33.9594385,17.881918 33.3057764,18.5371914 C28.4514893,23.4030801 23.5886084,28.2604824 18.7289502,33.121 C18.5519189,33.2981387 18.3674756,33.4703359 18.2089209,33.6631582 C17.8167236,34.1400039 17.6248682,34.6910781 17.7079053,35.3085391 C17.8306885,36.220873 18.32021,36.8700234 19.1947314,37.178002 C20.0985791,37.4964004 20.888667,37.248041 21.5522119,36.5865371 C23.8594189,34.2867422 26.1611475,31.9814688 28.4647021,29.6781289 C31.1353174,27.0076211 33.801958,24.3332461 36.4795557,21.6698281 C36.9716553,21.1801992 37.2823193,20.625043 37.3202541,19.8932852 M25.3515088,4.296875e-05 L29.6483838,4.296875e-05 C29.7529053,0.0222792969 29.8563525,0.0563320312 29.9619482,0.065140625 C33.2041553,0.335306641 36.3101514,1.14311914 39.2284814,2.57311914 C47.160835,6.46007227 52.1996729,12.7081582 54.3468213,21.2803164 C54.6818701,22.6177188 54.8281787,23.9870254 54.9999463,25.3516055 L54.9999463,29.6484805 C54.9059521,30.3558535 54.8227002,31.0650527 54.71646,31.770707 C53.0770947,42.657377 44.7720947,51.6889785 34.0332373,54.2776309 C32.5880908,54.6258926 31.1195264,54.8166738 29.6483838,55.000043 L25.3515088,55.000043 C25.2649268,54.9789883 25.1793115,54.9461172 25.0915479,54.9385977 C20.5465283,54.5535977 16.3502002,53.1295059 12.540376,50.6286172 C6.45557129,46.6343496 2.53059082,41.0837539 0.72644043,34.0329043 C0.357875977,32.5924844 0.181274414,31.1200527 -5.37109375e-05,29.6484805 L-5.37109375e-05,25.3516055 C0.0230419922,25.2291445 0.0564501953,25.1077578 0.0676220703,24.9842227 C0.484956055,20.3673379 1.95652832,16.11225 4.54700684,12.2712734 C8.59197754,6.27358789 14.1439697,2.40758203 21.1765576,0.678304687 C22.5509131,0.340355469 23.9523389,0.1794375 25.3515088,4.296875e-05" id="Fill-1"></path>
                            <path d="M18,20.4953334 C17.9921089,19.1508164 19.1557737,17.9889171 20.499217,18.0000798 C21.843052,18.0112425 22.9711723,19.1168387 22.9994708,20.4503889 C23.0283567,21.808027 21.8708609,22.9862787 20.4951044,22.9998893 C19.159005,23.0130104 18.0081676,21.8577695 18,20.4953334" id="Fill-4"></path>
                            <path d="M37,34.528126 C36.9916318,35.8548758 35.8552695,36.9914327 34.5284204,36.9999488 C33.1526281,37.0088564 31.9949266,35.8545822 32,34.4791829 C32.004911,33.173185 33.1726948,32.0052067 34.4788899,32 C35.8541927,31.994635 37.0085661,33.1522374 37,34.528126" id="Fill-6"></path>
                        </g>
                    </g>
                </g>
            </g>
        </g>
    </g>
</svg>