<?xml version="1.0" encoding="UTF-8"?>
<svg width="490px" height="512px" viewBox="0 0 490 512" version="1.1" xmlns="http://www.w3.org/2000/svg" xmlns:xlink="http://www.w3.org/1999/xlink">
    <!-- Generator: Sketch 56.2 (81672) - https://sketch.com -->
    <title>crane</title>
    <desc>Created with Sketch.</desc>
    <g id="crane" stroke="none" stroke-width="1" fill="none" fill-rule="evenodd">
        <path d="M191.9785,383.6172 L191.9785,383.6452 C197.3035,383.6452 202.6325,383.5122 207.9505,383.6942 C211.2895,383.8072 212.9125,382.7972 212.7005,379.1862 C212.4775,375.3722 212.5045,371.5302 212.6655,367.7102 C212.7985,364.5612 211.7085,363.1842 208.3925,363.2242 C197.4115,363.3562 186.4285,363.3432 175.4465,363.2682 C172.5645,363.2492 171.0945,364.1692 171.1865,367.2692 C171.3055,371.2592 171.2875,375.2592 171.1425,379.2482 C171.0285,382.4082 172.2095,383.7732 175.5065,383.6662 C180.9915,383.4872 186.4875,383.6172 191.9785,383.6172 L191.9785,383.6172 Z M126.9685,448.1112 C127.0585,436.4962 118.2375,427.4042 106.7615,427.2842 C95.2315,427.1632 86.1745,436.0482 86.0585,447.5952 C85.9395,459.3762 94.6415,468.5942 105.9845,468.7042 C117.8855,468.8192 126.8755,459.9962 126.9685,448.1112 L126.9685,448.1112 Z M256.2885,447.7942 C256.1395,459.1382 265.2735,468.5202 276.6485,468.7052 C287.9935,468.8882 297.4945,459.7372 297.6865,448.4402 C297.8805,437.0422 288.7705,427.4842 277.5285,427.2902 C265.7445,427.0872 256.4425,436.0662 256.2885,447.7942 L256.2885,447.7942 Z M-0.0005,292.0002 C3.5925,279.4122 9.8315,268.7302 21.5425,261.9532 C28.9115,257.6892 36.7545,255.5282 45.3445,255.5772 C70.3325,255.7202 95.3215,255.6502 120.3105,255.6402 C126.9155,255.6382 126.8785,255.6002 127.0185,248.9482 C127.2925,235.8012 126.2625,222.6302 127.6045,209.5062 C129.9565,186.5172 148.0105,170.2002 171.3875,169.8722 C176.3835,169.8022 181.3955,170.1122 186.3755,169.8192 C191.0215,169.5452 192.3845,171.4012 192.3635,175.9192 C192.2205,207.2382 192.2985,238.5572 192.3035,269.8762 C192.3045,271.0422 192.2895,272.2092 192.2885,273.3752 C192.2745,290.3722 199.9245,297.9132 217.0595,297.8942 C241.8805,297.8692 266.7025,297.8822 291.5245,297.8962 C298.9125,297.9012 299.0595,298.0832 299.0615,305.4682 C299.0635,316.4622 299.0915,327.4572 299.0785,338.4522 C299.0595,354.0812 289.7575,363.3352 274.1695,363.2832 C269.5055,363.2662 264.8395,363.3352 260.1765,363.2632 C257.4465,363.2212 256.2135,364.4022 256.2645,367.1492 C256.3355,370.9792 256.4685,374.8252 256.2125,378.6402 C255.9405,382.7002 257.7415,383.7342 261.5225,383.7082 C281.0135,383.5732 300.5045,383.5452 319.9965,383.6682 C352.2505,383.8722 379.6335,407.8842 383.3565,439.0642 C387.3635,472.6292 367.3275,502.4152 335.2785,510.5512 C333.5105,511.0002 331.7585,511.5152 329.9995,512.0002 L52.9995,512.0002 C41.8065,509.1812 31.3375,504.9442 22.3805,497.3502 C10.3735,487.1702 3.5705,474.0532 -0.0005,459.0002 L-0.0005,437.0002 C0.5115,435.2462 1.0685,433.5052 1.5275,431.7372 C9.6395,400.5252 38.4375,382.7592 64.4115,383.5552 C80.7145,384.0562 97.0455,383.6732 113.3645,383.6352 C126.9225,383.6032 126.9225,383.5702 126.9975,369.9992 C127.0345,363.3622 126.9375,363.2652 120.4015,363.2652 C89.2635,363.2642 58.1185,362.9102 26.9885,363.4322 C14.3895,363.6442 5.3135,359.5972 -0.0005,348.0002 L-0.0005,292.0002 Z" id="Fill-1" fill="#313131"></path>
        <path d="M490,245 C486.386,262.31 478.228,276.919 463.498,287.056 C442.006,301.846 419.099,303.796 395.999,291.521 C373.711,279.679 362.337,260.364 361.771,235.103 C361.49,222.529 370.958,213.074 383.192,212.76 C395.14,212.454 404.656,221.8 405.332,234.501 C405.961,246.318 413.156,254.002 424.869,255.365 C433.957,256.422 443.4,249.525 446.071,239.879 C449.453,227.667 440.522,215.062 427.87,214.191 C412.183,213.111 404.017,204.434 403.994,188.646 C403.951,159.154 403.99,129.662 403.935,100.17 C403.932,98.27 404.5,96.207 402.991,94.112 C395.939,99.304 390.021,105.605 383.706,111.413 C355.136,137.691 326.75,164.169 298.2,190.47 C295.387,193.063 294.134,195.275 296.089,199.017 C298.196,203.05 298.749,207.679 298.839,212.137 C299.107,225.46 298.967,238.792 299.032,252.12 C299.048,255.365 297.451,256.395 294.358,256.381 C275.697,256.303 257.034,256.288 238.373,256.389 C234.87,256.408 233.707,254.984 233.716,251.631 C233.782,225.971 233.785,200.311 233.710957,174.651 C233.702,171.205 235.12,169.812 238.473,169.897 C241.97,169.985 245.511,169.534 248.961,169.938 C254.846,170.627 258.909,168.061 263.058,164.197 C302.071,127.865 341.231,91.69 380.383,55.506 C382.427,53.618 383.938,51.891 383.557,48.722 C380.896,26.638 392.256,8.661 413.27,1.391 C414.523,0.957 415.757,0.465 417,0 L435,0 C435.613,0.248 436.211,0.545 436.842,0.736 C453.526,5.779 464.558,16.508 468.18,33.662 C471.99,51.708 465.704,66.368 451.179,77.508 C448.945,79.22 448.103,81.117 448.109,83.843 C448.175,112.462 448.205,141.082 448.116,169.701 C448.105,173.023 449.293,174.76 452.343,176.075 C461.172,179.883 468.609,185.622 474.982,192.875 C482.906,201.891 487.181,212.571 490,224 L490,245 Z" id="Fill-4" fill="#313131"></path>
    </g>
</svg>