<?xml version="1.0" encoding="UTF-8"?>
<svg width="490px" height="490px" viewBox="0 0 490 490" version="1.1" xmlns="http://www.w3.org/2000/svg" xmlns:xlink="http://www.w3.org/1999/xlink">
    <!-- Generator: Sketch 56.2 (81672) - https://sketch.com -->
    <title>crane copy</title>
    <desc>Created with Sketch.</desc>
    <g id="crane-copy" stroke="none" stroke-width="1" fill="none" fill-rule="evenodd">
        <path d="M387.86773,409.861587 C377.018824,409.818678 367.837066,418.609967 367.949996,428.93442 C368.063883,439.402428 377.141324,448.442545 387.611246,448.513365 C398.594137,448.588014 407.444762,439.867545 407.497637,428.917193 C407.549078,418.025221 399.186539,409.906725 387.86773,409.861587 M101.790035,409.861701 C90.8693516,409.883756 82.4876719,418.081686 82.4895856,428.739186 C82.492457,439.835006 91.2263242,448.624381 102.140309,448.515279 C112.982516,448.406178 122.159488,439.246432 122.040816,428.65401 C121.924059,418.295104 112.812164,409.839732 101.790035,409.861701 M101.684762,284.995006 L101.684762,285.035201 C109.325699,285.035201 116.966637,285.013189 124.606617,285.046808 C127.533219,285.05817 128.93527,284.264791 127.31693,281.096061 C122.470523,271.601354 117.984918,261.908541 112.825563,252.588971 C107.882496,243.657955 96.0239219,243.86276 91.1794297,252.858854 C86.2009531,262.104732 81.726832,271.621451 76.8966953,280.949635 C75.0926914,284.435143 76.5961875,285.050514 79.7180234,285.018932 C87.0402695,284.94524 94.3625156,284.995006 101.684762,284.995006 M0.00019140625,414.394244 L0.00019140625,300.507525 C3.91253516,290.225182 11.4769102,284.985436 22.3707969,285.123248 C26.754957,285.178756 28.9054063,283.481939 30.7323789,279.709322 C38.1656406,264.359498 45.8285898,249.119732 53.5183359,233.894322 C60.1476914,220.770553 70.3601719,211.555299 84.3806797,206.961549 C88.1676523,205.721236 90.5439609,203.588014 92.5862656,200.309225 C123.183512,151.182896 153.967379,102.172369 184.453609,52.9771348 C189.996734,44.0327207 197.419469,39.816041 207.73818,39.9863926 C215.230777,40.1098496 222.726246,40.0189316 230.220758,40.0189316 C268.649391,40.0208457 307.078023,39.9825645 345.505699,40.0849668 C349.057242,40.0935801 351.022027,38.8800645 352.439391,35.6299863 C353.957242,32.1473496 355.908629,28.7967832 358.062906,25.6577207 C367.786344,11.4927012 381.656598,3.69193945 398.125191,-0.000287109375 L414.394723,-0.000287109375 C426.256168,5.9352207 431.115973,14.4355723 428.727223,25.0681895 C426.550934,34.7504746 418.83152,40.8084824 407.845758,41.4544785 C397.095426,42.0870762 389.007555,50.0869004 388.742457,60.3501035 C388.43525,72.2402598 396.280992,80.2946348 408.924332,81.067916 C421.163805,81.8172715 429.378961,90.8506895 429.102379,103.252857 C428.857379,114.282643 419.67275,123.018424 407.993141,122.823189 C382.169566,122.391568 364.008941,109.757799 352.49777,87.0857285 C350.955035,84.0471543 349.398902,82.3704355 345.742086,82.3790488 C303.805934,82.4833652 261.869781,82.4718809 219.933629,82.4211582 C216.877828,82.4173301 214.932184,83.5542832 213.320543,86.1420957 C187.522809,127.550924 161.677223,168.930084 135.76273,210.265221 C134.10898,212.902799 134.004664,214.530709 136.670953,216.594068 C143.346246,221.755338 148.058668,228.505279 151.767164,236.072525 C158.782203,250.388756 166.181969,264.519322 173.014215,278.920729 C175.281422,283.7011 178.246305,285.209381 183.380777,285.160572 C208.094195,284.927057 232.810484,285.05817 257.525816,285.052428 C264.741832,285.050514 264.790641,285.001705 264.791598,277.906275 C264.79734,240.593541 264.778199,203.280807 264.805953,165.968072 C264.817438,150.575182 273.073746,142.314088 288.464723,142.306432 C334.546734,142.281549 380.629703,142.333229 426.712672,142.269107 C436.854332,142.253795 443.981344,146.575748 448.453551,155.729752 C455.312594,169.767486 462.391754,183.697076 469.405836,197.659205 C472.804254,204.421588 472.504703,204.939342 464.861852,204.983365 C464.223512,204.987193 463.586129,204.972838 462.947789,204.972838 C438.710973,204.973795 414.465543,205.361393 390.240211,204.826412 C376.503941,204.523033 367.725094,213.85983 367.833238,227.531021 C368.038043,253.202428 367.831324,278.876705 367.915543,304.548111 C367.958609,317.758971 376.328805,325.991354 389.562633,326.029635 C405.50773,326.074615 421.453785,325.984654 437.398883,326.035377 C454.932652,326.090885 472.466422,326.240182 490.000191,326.347369 L490.000191,414.394244 C485.346148,425.197213 477.244879,430.191959 465.434156,429.159322 C462.593688,428.910494 459.712066,429.113385 456.849586,429.122955 C450.334117,429.145924 449.898668,429.570846 449.197164,435.956158 C448.119547,445.771471 444.876168,454.802018 439.331129,463.000904 C429.355992,477.751627 415.290504,486.235709 398.125191,489.999713 L378.027535,489.999713 C347.501109,482.900455 329.948199,464.008658 326.132516,432.738619 C325.725777,429.401451 323.733238,429.114342 321.1215,429.114342 C270.560582,429.131568 220.000621,429.152623 169.44066,429.067447 C165.688141,429.061705 164.044918,430.212057 163.663063,434.132057 C162.575875,445.273814 158.945855,455.555201 152.301188,464.69485 C142.237047,478.539264 128.570641,486.593639 111.972848,489.999713 L91.8751914,489.999713 C62.1057773,482.684166 44.2226914,464.538854 40.5084531,433.53774 C40.105543,430.171861 38.3895859,428.915279 35.0734727,429.083717 C31.4214414,429.269381 27.734957,428.884654 24.0953672,429.165064 C12.4329844,430.06276 4.52025,425.045045 0.00019140625,414.394244" id="Fill-1" fill="#313131"></path>
        <path d="M490,286.657108 C473.009086,286.767436 456.017209,286.901749 439.025332,286.978499 C430.206385,287.018793 421.383587,286.845146 412.567529,286.997686 C408.728976,287.063883 406.956522,285.71884 407,281.763338 C407.11923,271.21885 407.090347,260.672443 407.077831,250.126036 C407.07398,247.025337 407.772948,244.983788 411.61824,245 C437.114239,245.108506 462.611201,245.071091 488.108163,245.098913 C488.738775,245.099872 489.369388,245.297503 490,245.403994 L490,286.657108 Z" id="Fill-4" fill="#313131"></path>
    </g>
</svg>