<?xml version="1.0" encoding="UTF-8"?>
<svg width="16px" height="21px" viewBox="0 0 16 21" version="1.1" xmlns="http://www.w3.org/2000/svg" xmlns:xlink="http://www.w3.org/1999/xlink">
    <!-- Generator: Sketch 55 (78076) - https://sketchapp.com -->
    <title>geo</title>
    <desc>Created with Sketch.</desc>
    <g id="Dashboards" stroke="none" stroke-width="1" fill="none" fill-rule="evenodd">
        <g id="Inicio" transform="translate(-591.000000, -404.000000)" fill="#6E6E6E">
            <g id="geo" transform="translate(591.000000, 404.000000)">
                <path d="M7.97539733,4.5509557 C5.981104,4.56053083 4.44835733,6.15272254 4.46057067,8.20201788 C4.47193067,10.1005049 6.10115733,11.7201163 7.979184,11.699878 C9.92419733,11.678878 11.479024,10.0573624 11.4682507,8.06121995 C11.4577973,6.1364557 9.87113067,4.54187021 7.97539733,4.5509557 M7.87555733,0.00200751295 C11.8970507,0.00173549223 15.2086773,2.85327435 15.8596107,6.77075363 C16.146544,8.49732358 15.8377973,10.1425593 15.2169973,11.7439453 C14.4821173,13.6396578 13.4173707,15.3391345 12.2096373,16.9516733 C11.307504,18.1562899 10.333104,19.2969272 9.289264,20.3757614 C8.532944,21.1574946 7.40377067,21.1535231 6.65337067,20.3621604 C5.180304,18.8085412 3.80451733,17.1722277 2.639664,15.3619298 C1.54659733,13.6633236 0.612837333,11.8874091 0.186757333,9.87782876 C-0.781509333,5.31119922 2.112784,0.915398705 6.613584,0.109455699 C7.07049067,0.0276318653 7.52915733,-0.00936295337 7.87555733,0.00200751295" id="Fill-1"></path>
            </g>
        </g>
    </g>
</svg>