<?xml version="1.0" encoding="UTF-8"?>
<svg width="490px" height="297px" viewBox="0 0 490 297" version="1.1" xmlns="http://www.w3.org/2000/svg" xmlns:xlink="http://www.w3.org/1999/xlink">
    <!-- Generator: Sketch 56.2 (81672) - https://sketch.com -->
    <title>hora espera</title>
    <desc>Created with Sketch.</desc>
    <g id="hora-espera" stroke="none" stroke-width="1" fill="none" fill-rule="evenodd">
        <path d="M91.0716074,93.8153932 C90.318447,130.67223 120.708365,164.3447 162.144991,164.309476 C201.181319,164.277402 232.311595,131.468055 231.739791,91.6939058 C231.179721,52.7551055 199.120262,22.4763747 158.968062,22.9624153 C121.578873,23.4142729 90.5744788,55.7685576 91.0716074,93.8153932 L91.0716074,93.8153932 Z M0.0277367873,29.2157824 C0.338175445,23.7165795 0.0565403741,18.18533 0.107746751,12.6690355 C0.193090711,3.66072588 3.71886309,0.0533427844 12.7727905,0.0405241296 C50.985549,-0.0139551532 89.1983075,0.0063410502 127.409999,1.42108547e-14 C137.18615,1.42108547e-14 146.961234,1.42108547e-14 156.736318,0.0063410502 C204.189694,0.0116821564 251.643069,0.00313638651 299.096445,0.019159705 C306.111719,0.0223643687 305.969834,0.0554792269 304.99798,6.7959552 C304.51792,10.1223961 304.559525,13.5407041 304.556325,16.9173514 C304.526455,47.7056237 304.653404,78.4949643 304.477382,109.282168 C304.410174,120.964236 308.650702,130.062276 318.747959,136.076362 C321.517371,137.724627 321.94409,139.973233 321.939823,142.794405 C321.895018,173.76107 321.790471,204.728804 322,235.694401 C322.034768,240.89557 319.939574,241.949904 315.374739,241.933881 C284.09511,241.821718 252.813348,241.887947 221.532653,241.897561 C208.024838,241.900766 194.515956,241.780057 181.011341,241.980883 C176.608659,242.046044 174.579606,240.800498 173.40826,236.13344 C163.466756,196.537683 122.301096,176.214774 85.7130735,193.048873 C67.8015097,201.289131 55.9280311,215.449472 51.086895,234.669977 C49.5645721,240.710768 46.9391785,242.203073 41.2840743,241.978746 C31.7020811,241.597391 22.0934179,241.930676 12.4964895,241.885811 C3.9247554,241.846287 0.0896111589,238.019918 0.0778763643,229.498718 C0.052273176,209.921427 0.189890313,190.344137 0,170.768982 L0.0277367873,29.2157824 Z" id="Fill-1" fill="#313131"></path>
        <path d="M394.288529,98.2768317 L394.288529,98.2554678 C407.796872,98.2554678 421.308415,98.1101938 434.814624,98.3409231 C439.020041,98.412492 440.072195,97.3816872 438.981625,93.1933085 C434.053786,74.2713648 429.401256,55.2767842 424.589729,36.323863 C422.6839,28.8166133 419.181697,26.0991342 411.243585,26.0788386 C391.690156,26.0275654 372.137793,26.1632257 352.586498,26.0185285 C348.452576,25.9891105 346.970382,27.3190089 347.003462,31.5469107 C347.160325,51.8297303 347.190204,72.1168226 346.959711,92.398574 C346.90529,97.2535042 348.734289,98.4327876 353.228888,98.3590824 C366.912234,98.1315576 380.601982,98.2768317 394.288529,98.2768317 L394.288529,98.2768317 Z M375.414839,0.0534217053 C387.859288,0.0534217053 400.304805,-0.0277608462 412.748188,0.0726491517 C430.33603,0.214718617 444.751402,11.1679539 449.160635,28.2312444 C455.876924,54.2235474 462.247475,80.3066466 468.726869,106.359836 C469.151573,108.071079 469.7182,109.94896 469.407675,111.596111 C468.870927,114.451387 470.242143,115.713989 472.30697,117.157116 C481.18946,123.359035 486.44383,131.849021 488.412619,142.577936 C489.279099,147.301479 488.096759,149.143041 483.171053,149.068268 C471.440489,148.88988 459.703523,149.169746 447.972959,148.967858 C443.645893,148.893084 441.776344,150.246483 442.134888,154.751046 C442.543585,159.874093 441.694178,165.052685 442.867982,170.168254 C444.934943,179.168835 451.369519,184.613407 460.657505,184.784318 C468.300032,184.925319 475.948961,184.948819 483.590421,184.778977 C487.463972,184.693521 489.031533,186.18258 489,190.077206 C488.885341,203.779966 489.059277,217.484863 488.884274,231.186555 C488.801041,237.804001 484.748218,241.747764 478.085283,241.88022 C469.37673,242.053267 460.658572,241.756309 451.954287,241.994516 C447.762742,242.108813 446.238931,240.442434 445.210253,236.432443 C438.408596,209.913522 421.455674,193.448419 394.646006,188.293327 C376.327204,184.771499 359.362544,189.202358 344.520335,200.892645 C343.201407,201.931995 342.008396,204.099356 340.105767,203.182847 C338.234084,202.281294 339.088826,199.983614 339.084558,198.30869 C339.022667,175.529507 338.957574,152.750324 339.088826,129.971141 C339.111235,126.00815 337.918224,124.373817 333.814181,123.823699 C324.816445,122.616642 321.14244,118.073624 321.097622,108.474856 C320.985578,84.4512295 321.044268,60.425467 321.034664,36.4007727 C321.03253,29.6391208 320.955699,22.8753324 321.037865,16.1136804 C321.171252,4.9991482 326.01906,0.0993539384 337.013329,0.0373988333 C349.813121,-0.0352381864 362.612913,0.0203077698 375.414839,0.0203077698 L375.414839,0.0534217053 Z" id="Fill-3" fill="#313131"></path>
        <path d="M382.801671,268.769388 C393.359575,268.856701 402.117436,260.454368 402.210321,250.151368 C402.30107,240.053875 393.485557,231.150021 383.228727,230.978589 C372.678297,230.802897 364.302651,239.078518 364.271577,249.713736 C364.237525,260.741864 371.956571,268.681009 382.801671,268.769388 M429.826996,252.63874 C427.410924,279.656962 405.38335,298.995851 379.487712,296.835373 C352.791344,294.608877 333.319703,271.370693 336.301625,244.598439 C339.108454,219.39357 360.91289,201.331376 385.959754,203.122369 C412.504517,205.019842 432.055164,227.718173 429.826996,252.63874" id="Fill-5" fill="#313131"></path>
        <path d="M112.058709,268.853265 C122.716614,268.882974 131.327142,260.440463 131.172199,250.114982 C131.017257,239.783119 122.294529,231.122524 112.029857,231.107608 C101.518346,231.091673 93.24228,239.445887 93.1875046,250.128812 C93.133286,260.93195 101.085575,268.822336 112.058709,268.853265 M159,250.246897 C159.060777,275.868045 137.925554,296.934962 112.096108,297 C86.2463599,297.063684 64.987183,276.057406 65,250.466044 C65.0138972,224.11724 85.5902586,203.273727 111.856749,203.002451 C137.573995,202.736495 158.937892,224.145963 159,250.246897" id="Fill-7" fill="#313131"></path>
        <path d="M195.979079,70.1876152 C196.169194,72.7462138 195.056118,75.2536616 192.944671,77.373217 C190.318108,80.0074759 187.730842,82.6811634 185.07985,85.2887813 C181.321093,88.9865477 178.000981,92.504221 177.104572,98.4131877 C175.951135,106.030373 167.840971,111.488575 160.792902,110.965346 C152.455448,110.345144 146.335652,104.594958 145.398883,96.1060799 C145.121676,93.5933038 144.103126,91.8328687 142.409083,90.1491595 C135.755052,83.5304775 129.132883,76.8766294 122.558509,70.1780245 C117.095088,64.6100622 116.540673,58.8161846 120.905888,54.1849187 C125.239239,49.5898846 131.857159,49.9671207 137.329078,55.3155614 C143.915135,61.7509536 150.484198,68.2119211 156.852526,74.8615066 C160.1737,78.3290949 162.934087,78.3599985 166.209591,74.8934758 C170.220066,70.6469055 174.354805,66.4973084 178.673287,62.5714954 C182.075181,59.4800775 186.156816,58.570022 190.469987,60.7226122 C194.115101,62.5416575 195.971644,65.5851216 195.979079,70.1876152" id="Fill-9" fill="#313131"></path>
        <path d="M111.001502,86.021766 C117.332424,86.0269781 121.003114,88.1055666 121.835509,92.3398829 C122.509149,95.7694498 121.080347,98.4672367 118.161601,100.346723 C114.330009,102.813092 106.189486,102.44616 102.940356,99.7379486 C100.010883,97.2945125 99.2900463,94.1119995 100.689886,90.8012687 C102.561702,86.3772317 106.701151,85.8737421 111.001502,86.021766" id="Fill-11" fill="#313131"></path>
        <path d="M212.030861,86.0335592 C215.54788,85.8544652 219.010165,86.3084476 221.427109,89.4623755 C223.919181,92.7162628 223.401878,97.0509614 220.216491,99.7290408 C216.539558,102.821535 207.268878,102.739277 203.663853,99.5822254 C200.50637,96.8156402 200.101757,92.5736124 202.73979,89.3176426 C205.075168,86.4354793 208.338902,85.8700839 212.030861,86.0335592" id="Fill-13" fill="#313131"></path>
        <path d="M154,42.8886089 C154.131211,40.434189 153.633477,37.8683993 155.171137,35.653853 C157.208699,32.7218278 160.111602,31.3607599 163.563203,32.288128 C168.488486,33.6106448 170.065184,37.2933455 169.997952,42.0811776 C169.929636,46.8336712 170.018555,51.6129365 164.376493,53.4955151 C160.808862,54.6863156 157.627272,53.7857192 155.351145,50.6159623 C153.659503,48.2600618 154.09651,45.5261465 154,42.8886089" id="Fill-15" fill="#313131"></path>
        <path d="M154.063021,143.164169 C153.725273,139.121575 154.631295,135.121646 159.580642,133.443809 C162.99672,132.286496 165.893846,133.456609 168.076876,136.20856 C170.325312,139.042643 170.703804,147.83502 168.670884,150.977364 C166.809518,153.854113 164.17294,155.526616 160.585308,154.850361 C155.973709,153.979977 154.080177,150.653103 154.063021,143.164169" id="Fill-17" fill="#313131"></path>
    </g>
</svg>