<?xml version="1.0" encoding="UTF-8"?>
<svg width="490px" height="297px" viewBox="0 0 490 297" version="1.1" xmlns="http://www.w3.org/2000/svg" xmlns:xlink="http://www.w3.org/1999/xlink">
    <!-- Generator: Sketch 56.2 (81672) - https://sketch.com -->
    <title>hora espera copy</title>
    <desc>Created with Sketch.</desc>
    <g id="hora-espera-copy" stroke="none" stroke-width="1" fill="none" fill-rule="evenodd">
        <path d="M91.0349444,93.6806282 C90.2821894,130.311567 120.656812,163.777655 162.07113,163.742647 C201.085375,163.710769 232.199958,131.102514 231.628461,91.5721436 C231.067626,52.8720026 199.026494,22.7788529 158.894845,23.2619145 C121.525785,23.7110026 90.5391497,55.866985 91.0349444,93.6806282 M156.665368,0.446540088 C204.093196,0.451848458 251.519958,0.443355066 298.948852,0.459280176 C305.960348,0.462465198 305.81854,0.495377093 304.847209,7.19454009 C304.367408,10.500593 304.408991,13.8979498 304.405792,17.2539013 C304.374872,47.8534696 304.501752,78.4540996 304.325825,109.052606 C304.259719,120.663073 308.497964,129.705351 318.588719,135.682575 C321.35664,137.320738 321.784196,139.555562 321.779931,142.359443 C321.73515,173.136311 321.63066,203.914241 321.83901,234.688985 C321.873759,239.859337 319.780759,240.90721 315.217315,240.890223 C283.954527,240.78087 252.690673,240.845633 221.425752,240.855188 C207.926275,240.858373 194.4236,240.738404 180.926256,240.937998 C176.525944,241.00276 174.49905,239.764848 173.328335,235.126395 C163.392183,195.773324 122.248686,175.574976 85.6803616,192.305897 C67.7773748,200.49565 55.911355,214.569201 51.0717589,233.671901 C49.5502556,239.675668 46.9262755,241.158826 41.2752821,240.934813 C31.6973815,240.556857 22.0938914,240.8881 12.5021298,240.843509 C3.9350106,240.804227 0.101931126,237.001311 0.0912688742,228.532337 C0.0656794702,209.075038 0.202156291,189.616677 0.0123682119,170.162562 C-0.032413245,165.567637 0.426063576,163.970879 5.7571894,163.970879 C13.0352424,163.970879 63.3397457,164.107835 70.6209974,163.996359 C77.8990503,163.887007 82.3185536,159.638188 82.2759046,153.03139 C82.2343219,146.649668 77.5525272,142.11632 70.4791894,142.065359 C53.4270503,141.943267 36.3727788,142.027139 19.3206397,141.954945 C12.5511762,141.92628 6.67734172,139.980232 3.24196424,133.560289 C-1.59763179,124.515888 3.31766623,113.87473 13.525706,111.706791 C20.8847921,110.142945 28.4016795,111.213113 35.8439311,111.00184 C42.4108119,110.816047 48.9904874,111.075095 55.5584344,110.888241 C62.4398517,110.691831 66.2228185,106.900593 66.419004,100.42332 C66.6205205,93.7634388 62.7821099,89.4859542 55.8047325,89.1026899 C50.4896,88.8096678 45.1499444,88.9943991 39.8220172,88.9317604 C29.4241894,88.8096678 22.3295272,82.706104 22.1450702,73.7551304 C21.9627457,64.8402537 28.8004477,58.3757207 39.2601166,58.0561568 C48.3123682,57.7801216 57.3784808,58.0158132 66.4360636,57.8809806 C73.7279775,57.7726899 78.4972026,53.5663374 78.6752623,47.3619145 C78.8618517,40.8506678 74.0435801,36.1952273 66.6258517,35.9871392 C60.7680106,35.8225797 11.6011695,35.6707604 5.7571894,35.9807692 C0.778984106,36.245126 -0.231797351,34.2640423 0.0400900662,29.4769542 C0.351427815,24.0114564 0.0688781457,18.5141084 0.121123179,13.0316238 C0.205354967,4.07852687 3.72922914,0.493253744 12.7793483,0.480513656 C50.9715338,0.426368282 89.162653,0.446540088 127.354838,0.440237903 C137.12466,0.440237903 146.894481,0.440237903 156.665368,0.446540088" id="Fill-1" fill="#313131"></path>
        <path d="M392.265651,98.0388 L392.265651,98.0175665 C405.725853,98.0175665 419.189246,97.8731789 432.647322,98.1025004 C436.837752,98.1736326 437.886157,97.1491172 436.799473,92.9862934 C431.889195,74.1798 427.253246,55.3011128 422.458866,36.4638308 C420.559828,29.0023859 417.070106,26.3014872 409.160284,26.2813154 C389.676537,26.2303551 370.193853,26.3651877 350.712233,26.2213733 C346.593043,26.1921348 345.116132,27.5139189 345.149094,31.7160247 C345.305397,51.8750907 345.33517,72.0384035 345.105499,92.1964079 C345.051271,97.0217163 346.873752,98.1938044 351.352334,98.1205489 C364.986916,97.8944123 378.627878,98.0388 392.265651,98.0388 L392.265651,98.0388 Z M373.45922,0.414689868 C385.859322,0.414689868 398.260486,0.334002643 410.659524,0.4338 C428.184689,0.575002643 442.548689,11.4614079 446.942208,28.4205885 C453.634562,54.2543022 459.98241,80.1782581 466.438714,106.072487 C466.861904,107.773289 467.426511,109.639712 467.117094,111.276813 C466.582258,114.114668 467.948587,115.369567 470.006056,116.803888 C478.856891,122.967967 484.092537,131.406152 486.054309,142.069606 C486.917701,146.764329 485.739575,148.594655 480.831423,148.520337 C469.142663,148.343038 457.447524,148.621196 445.758765,148.42054 C441.447119,148.346223 439.584233,149.691364 439.941499,154.168443 C440.348739,159.260232 439.502359,164.407227 440.67198,169.491584 C442.731575,178.436188 449.14322,183.849663 458.398106,184.01847 C466.013397,184.158611 473.635068,184.181967 481.249296,184.013161 C485.109043,183.928227 486.671018,185.408201 486.639597,189.279064 C486.525347,202.898219 486.698663,216.519496 486.524284,230.137589 C486.441347,236.714659 482.402967,240.634359 475.763777,240.766007 C467.086258,240.936937 458.39917,240.642853 449.725904,240.879606 C445.549296,240.994267 444.030916,239.336994 443.005904,235.35147 C436.228486,208.994351 419.33598,192.629707 392.621853,187.506069 C374.368334,184.004668 357.464132,188.410615 342.674815,200.028514 C341.360587,201.061522 340.171828,203.215659 338.27598,202.304743 C336.410967,201.40869 337.262663,199.125029 337.25841,197.460324 C337.196739,174.820126 337.131878,152.179928 337.262663,129.53973 C337.284992,125.600919 336.096233,123.976558 332.006815,123.429796 C323.041144,122.230104 319.380233,117.714804 319.335575,108.174602 C319.223929,84.2975533 319.28241,60.4183815 319.272841,36.5402714 C319.270714,29.8198749 319.194157,23.0973551 319.27603,16.3769586 C319.408942,5.33024053 324.239473,0.46034185 335.194562,0.398764758 C347.948739,0.326570925 360.702916,0.381777974 373.45922,0.381777974 L373.45922,0.414689868 Z" id="Fill-4" fill="#313131"></path>
        <path d="M381.801671,268.770344 C392.359575,268.856593 401.117436,260.454274 401.210321,250.151291 C401.30107,240.054878 392.485557,231.15104 382.228727,230.979607 C371.678297,230.802851 363.302651,239.078459 363.271577,249.713659 C363.237525,260.742834 370.956571,268.680901 381.801671,268.770344 M428.826996,252.639723 C426.410924,279.657901 404.38335,298.996757 378.487712,296.835218 C351.791344,294.609791 332.319703,271.37058 335.301625,244.59837 C338.108454,219.393543 359.91289,201.331379 384.959754,203.122369 C411.504517,205.020903 431.055164,227.718132 428.826996,252.639723" id="Fill-7" fill="#313131"></path>
        <path d="M111.55855,268.85421 C122.101881,268.88286 130.621755,260.441425 130.468463,250.114895 C130.315171,239.784111 121.685349,231.123528 111.530006,231.108612 C101.129395,231.092677 92.9414777,239.446879 92.8883429,250.128725 C92.8347018,260.932911 100.702291,268.823286 111.55855,268.85421 M157.999871,250.247873 C158.06,275.868985 137.149888,296.934808 111.595552,296.999851 C86.0211282,297.064594 64.9873252,276.058346 65.0000057,250.467021 C65.0137549,224.11719 85.372015,203.273707 111.357684,203.002432 C136.801017,202.73754 157.937367,224.146977 157.999871,250.247873" id="Fill-9" fill="#313131"></path>
        <path d="M195.978827,70.1876152 C196.171381,72.7462138 195.042954,75.2536616 192.904429,77.373217 C190.245258,80.0074759 187.624812,82.6811634 184.939824,85.2887813 C181.132862,88.9865477 177.770172,92.504221 176.862268,98.4131877 C175.692964,106.030373 167.479867,111.488575 160.341412,110.965346 C151.897037,110.345144 145.698757,104.594958 144.749975,96.1060799 C144.469213,93.5933038 143.437601,91.8328687 141.722909,90.1491595 C134.982469,83.5304775 128.275376,76.8766294 121.617765,70.1780245 C116.083204,64.6100622 115.521679,58.8161846 119.94395,54.1849187 C124.331798,49.5898846 131.033513,49.9671207 136.576681,55.3155614 C143.247199,61.7509536 149.900507,68.2119211 156.350503,74.8615066 C159.714269,78.3290949 162.510057,78.3599985 165.827567,74.8934758 C169.889472,70.6469055 174.076162,66.4973084 178.452177,62.5714954 C181.897697,59.4800775 186.0306,58.570022 190.400161,60.7226122 C194.09202,62.5416575 195.972373,65.5851216 195.978827,70.1876152" id="Fill-11" fill="#313131"></path>
        <path d="M110.001618,85.0231263 C116.332473,85.0286642 120.003125,87.2371645 120.835511,91.7361256 C121.509143,95.3800404 120.080357,98.246439 117.161641,100.243393 C113.33009,102.86391 105.189653,102.474045 101.940558,99.5965704 C99.010043,97.0004195 98.2902863,93.6189995 99.6901111,90.101348 C101.561908,85.4008087 105.701313,84.865851 110.001618,85.0231263" id="Fill-13" fill="#313131"></path>
        <path d="M211.031131,85.0356566 C214.548237,84.8453693 218.010605,85.3277255 220.426536,88.678774 C222.919742,92.1360292 222.401353,96.7416464 219.216961,99.5871058 C215.539938,102.872881 206.269032,102.785482 202.663918,99.4311145 C199.506358,96.4916177 199.101735,91.9844632 201.739833,88.5249952 C204.075268,85.4626968 207.339082,84.8619641 211.031131,85.0356566" id="Fill-15" fill="#313131"></path>
        <path d="M153,42.8886089 C153.132295,40.434189 152.633479,37.8683993 154.172217,35.653853 C156.208687,32.7218278 159.112662,31.3607599 162.56425,32.288128 C167.488429,33.6106448 169.066205,37.2933455 168.997889,42.0811776 C168.930657,46.8336712 169.019576,51.6129365 163.376452,53.4955151 C159.809919,54.6863156 156.627258,53.7857192 154.352224,50.6159623 C152.660588,48.2600618 153.09651,45.5261465 153,42.8886089" id="Fill-17" fill="#313131"></path>
        <path d="M153.063019,142.164169 C152.725284,138.121575 153.631271,134.121646 158.580422,132.443809 C161.997438,131.286496 164.893377,132.456609 167.077394,135.20856 C169.325741,138.042643 169.703146,146.83502 167.671378,149.977364 C165.809013,152.854113 163.173612,154.526616 159.585048,153.850361 C154.974704,152.979977 153.081246,149.653103 153.063019,142.164169" id="Fill-19" fill="#313131"></path>
    </g>
</svg>