<?xml version="1.0" encoding="UTF-8"?>
<svg width="35px" height="26px" viewBox="0 0 35 26" version="1.1" xmlns="http://www.w3.org/2000/svg" xmlns:xlink="http://www.w3.org/1999/xlink">
    <!-- Generator: Sketch 55 (78076) - https://sketchapp.com -->
    <title>menu</title>
    <desc>Created with Sketch.</desc>
    <g id="Dashboards" stroke="none" stroke-width="1" fill="none" fill-rule="evenodd">
        <g id="Inicio" transform="translate(-1387.000000, -27.000000)" fill="#FFFFFF">
            <g id="menu" transform="translate(1387.000000, 27.000000)">
                <path d="M35,12.3872223 L35,13.613167 C34.9443099,13.7305852 34.889349,13.8482078 34.8328385,13.9654217 C34.2558854,15.1596962 32.8101302,15.9456629 31.1121745,15.9467526 C22.0369661,15.9521332 12.9619401,15.9508391 3.88682292,15.9470932 C2.85851562,15.9466845 1.96127604,15.6690762 1.19984375,15.1513189 C0.584427083,14.7327269 0.24171875,14.1948096 0,13.613167 L0,12.3872223 C0.0512239583,12.2806332 0.102539062,12.1740442 0.153489583,12.067387 C0.743932292,10.8306813 2.17592448,10.0537729 3.933125,10.0528875 C12.9932943,10.0482561 22.0535547,10.048801 31.113724,10.0531599 C32.2291667,10.0537048 33.1794531,10.3736763 33.9619401,10.9685319 C34.487487,11.3679856 34.7761458,11.864425 35,12.3872223" id="Fill-1"></path>
                <path d="M35,22.5627733 L35,23.7085155 C34.5597656,24.9106687 33.5260807,25.6739352 31.9010417,26 L3.09895833,26 C1.47109375,25.6760245 0.437226562,24.9128254 0,23.7085155 L0,22.5627733 C0.452539062,21.133561 2.02498698,20.1899411 4.1486849,20.1914913 C13.0490755,20.1981635 21.949375,20.1943893 30.8498568,20.1940523 C31.2616536,20.1939849 31.6707161,20.22 32.0672917,20.2999998 C33.6542318,20.6202684 34.5857422,21.4093479 35,22.5627733" id="Fill-3"></path>
                <path d="M3.09895833,0 L31.9010417,0 C33.5292708,0.323762542 34.5623177,1.08786102 35,2.29236286 L35,3.43854429 C34.2803125,5.09828242 32.9719141,5.80689223 30.6203516,5.80702707 C21.8738151,5.80749903 13.1272786,5.80675738 4.38074219,5.80851037 C3.9233724,5.80857779 3.46736979,5.79610464 3.02394531,5.71519771 C1.38705729,5.41631405 0.431393229,4.6165491 0,3.43854429 L0,2.29236286 C0.440234375,1.08974885 1.47373698,0.326054905 3.09895833,0" id="Fill-5"></path>
            </g>
        </g>
    </g>
</svg>