<?xml version="1.0" encoding="UTF-8"?>
<svg width="55px" height="56px" viewBox="0 0 55 56" version="1.1" xmlns="http://www.w3.org/2000/svg" xmlns:xlink="http://www.w3.org/1999/xlink">
    <!-- Generator: Sketch 55.2 (78181) - https://sketchapp.com -->
    <title>STOCK Copy</title>
    <desc>Created with Sketch.</desc>
    <g id="Dashboards" stroke="none" stroke-width="1" fill="none" fill-rule="evenodd">
        <g id="Bitacora-+-SOP-Copy" transform="translate(-585.000000, -369.000000)" fill="#25A7BD">
            <g id="Group-3" transform="translate(170.000000, 71.000000)">
                <g id="Group-7" transform="translate(87.000000, 290.000000)">
                    <g id="Group-4" transform="translate(328.000000, 0.000000)">
                        <g id="RESTRICCION" transform="translate(0.000000, 8.000000)">
                            <path d="M2.97697053,27.6616953 L2.98009684,27.6616953 C2.98009684,30.861886 2.98727579,34.0619602 2.97152842,37.2620345 C2.96944421,37.6871826 3.10480211,37.9851238 3.39960211,38.2805045 C7.92268632,42.8127016 12.43836,47.3522309 16.9474337,51.8985104 C17.2289179,52.1824856 17.5179284,52.2974723 17.9157811,52.2967771 C24.3026126,52.2868814 30.6894442,52.2880452 37.0762758,52.2967771 C37.4488863,52.2967771 37.7300232,52.1997103 37.9990021,51.9285373 C42.5358653,47.3552569 47.0794442,42.7887267 51.6290442,38.2282484 C51.8961705,37.9604505 52.0066337,37.6833419 52.006057,37.3050963 C51.9969074,30.8660758 51.9963284,24.4271716 52.006057,17.988151 C52.006057,17.6054828 51.8823916,17.3347754 51.61816,17.069887 C47.0829179,12.5225601 42.5526547,7.97011226 38.0298021,3.4102159 C37.7479705,3.12612435 37.4587284,3.01218513 37.0614547,3.01265067 C30.6746232,3.02184494 24.2877916,3.01998281 17.90096,3.01101964 C17.5288126,3.01101964 17.2470968,3.10773579 16.9778863,3.37902519 C12.4409074,7.95253839 7.89721263,12.519185 3.34749684,17.0797796 C3.08013895,17.3476939 2.96932842,17.6255008 2.97059126,18.0032808 C2.98171789,21.2226747 2.97697053,24.442185 2.97697053,27.6616953 L2.97697053,27.6616953 Z M27.4320547,55.2724613 C23.8623811,55.2724613 20.2924758,55.2655947 16.7228021,55.2809573 C16.2614968,55.2830522 15.9276758,55.142112 15.6033495,54.8151914 C10.5900126,49.7605498 5.57042316,44.7121929 0.538444211,39.6766381 C0.150317895,39.2882672 -0.00113473684,38.8937279 1.65735468e-05,38.3473085 C0.0148442105,31.1905523 0.0124126316,24.0337961 1.65735468e-05,16.87704 C-0.000555789473,16.3961443 0.133181053,16.0443177 0.477886316,15.6992413 C5.52248632,10.6485567 10.5570126,5.58763042 15.5827389,0.517742596 C15.9224653,0.175110262 16.2650863,0.0231137166 16.7489705,0.0240405323 C23.9077705,0.0376616248 31.0665705,0.0388254575 38.2253705,0.0260232982 C38.7101811,0.0252086154 39.0551179,0.17289898 39.3941495,0.514600248 C44.4344653,5.59694109 49.4834653,10.6704368 54.5394126,15.7370659 C54.8520442,16.0503696 54.9738547,16.3764756 54.9732758,16.815706 C54.9642442,24.0500898 54.9657495,31.2843572 54.9759403,38.518741 C54.9759403,38.9372553 54.8557495,39.2473003 54.5584021,39.5454742 C49.4758232,44.6400353 44.3996126,49.7411138 39.3325495,54.851503 C39.0173705,55.1692293 38.6898021,55.2832849 38.2572126,55.2821299 C34.6488653,55.2709483 31.0405179,55.27572 27.4320547,55.27572 L27.4320547,55.2724613 Z" id="Fill-1"></path>
                            <path d="M23.3830893,28.4717273 L23.3812107,28.4717273 C23.3812107,28.0222727 23.3808584,27.5727008 23.3813281,27.1232462 C23.3817977,26.6736742 23.3836764,26.2241023 23.3836764,25.7746477 C23.3839112,24.0891931 23.3837938,24.0975294 25.0748904,24.08661 C26.4849008,24.0776867 26.278489,24.2785793 26.3305029,22.8388688 C26.3508153,22.2750546 26.1387678,22.1517716 25.6189813,22.1579944 C23.5866831,22.182064 21.5536804,22.1477796 19.5212647,22.1707924 C17.9655451,22.1885217 18.2043627,21.8561272 18.1681996,23.5995835 C18.1598633,23.9999597 18.3447884,24.1038697 18.7037194,24.0925981 C19.2309029,24.0759255 19.7590257,24.0879016 20.2866788,24.0895454 C21.1069247,24.092011 21.1072769,24.0925981 21.1073943,24.8873624 C21.1077466,26.919888 21.1046938,28.9525309 21.1085684,30.9850565 C21.111856,32.6911757 21.115261,32.6750902 22.7986083,32.6698066 C23.2749521,32.6682803 23.3992923,32.493101 23.3908385,32.0482255 C23.3680605,30.85649 23.3830893,29.6639325 23.3830893,28.4717273 M14.4143948,22.0189782 C13.1429316,22.0267274 12.510194,22.1605775 11.8215679,22.5467468 C10.000143,23.5678822 9.75921195,25.8406335 11.3223286,27.2170587 C11.77155,27.6127384 12.3085962,27.8436885 12.8482254,28.0752257 C13.3327881,28.2830456 13.8312054,28.466796 14.2926377,28.7180584 C14.7248343,28.9534702 15.0235324,29.3273112 14.9479186,29.8647077 C14.8705436,30.4141976 14.5127867,30.7273363 13.9877167,30.8414612 C13.7033429,30.9031027 13.4093412,30.9451363 13.1190968,30.949598 C12.4045224,30.9605173 11.7304555,30.754576 11.0644901,30.5184597 C10.9069221,30.4625714 10.6884169,30.3193284 10.5963652,30.5368935 C10.3912451,31.0215717 10.2692532,31.5380688 10.2192353,32.0640762 C10.2046761,32.2174167 10.3614222,32.2863378 10.4940987,32.3308371 C12.2784211,32.9282312 14.0647395,33.0920215 15.7790838,32.1492002 C17.6978439,31.0941326 17.8206577,28.4871083 16.0476069,27.2130667 C15.6156452,26.9026284 15.1381273,26.683302 14.6474592,26.483114 C14.1593742,26.2838652 13.6764553,26.0693528 13.2033992,25.8371111 C12.8039608,25.6410324 12.5646735,25.3147434 12.6044764,24.8497905 C12.6443968,24.3840156 12.9452084,24.1116189 13.3635502,23.9749509 C13.974449,23.7753499 14.59932,23.8115129 15.2169113,23.9425451 C16.4477498,24.2035528 16.431899,24.2056662 16.738229,22.9735408 C16.829811,22.6053356 16.7418688,22.4293344 16.391509,22.3168534 C15.7136849,22.0995231 15.0247066,21.9873943 14.4143948,22.0189782 M38.4848416,27.412198 C38.4848416,28.9762482 38.4934127,30.5402984 38.4788535,32.1041138 C38.4750963,32.4994413 38.5965012,32.6857747 39.0137863,32.6622922 C39.4034794,32.6404535 39.7969297,32.6390446 40.1861531,32.6653449 C40.6155318,32.6943458 40.7803793,32.5356043 40.7678162,32.0956601 C40.7430421,31.2165937 40.7802619,30.3357661 40.7529047,29.4569345 C40.7395197,29.0239177 40.8689086,28.8786786 41.3171907,28.8932377 C42.2998184,28.924939 43.2690611,28.8145714 44.1684432,28.3655865 C45.5244437,27.6884694 46.1308808,26.4557569 45.9275219,24.7936673 C45.7755897,23.5516793 44.8506116,22.5892501 43.4784082,22.2734108 C42.0072257,21.9347935 40.5266503,22.1022236 39.0467793,22.2116519 C38.5943877,22.244997 38.4699302,22.4626795 38.4762705,22.8962834 C38.4982267,24.4012752 38.4847242,25.906854 38.4848416,27.412198 M31.8837763,22.0150877 C29.3955642,22.0099374 27.7022367,23.2683632 26.9745121,25.6546523 C26.6469304,26.7290929 26.6643075,27.8132787 26.8656705,28.9025133 C27.2300024,30.8732799 28.6819292,32.3286063 30.6720762,32.7287476 C32.678661,33.1321765 34.7587463,32.3161606 35.8384744,30.7261622 C36.6609511,29.5150536 36.8387141,28.1587059 36.7685012,26.7483485 C36.6284277,23.9311561 34.6482608,22.0208568 31.8837763,22.0150877 M28.0599935,6.00780537 C30.8963346,6.00780537 33.7325583,6.01496753 36.5688995,6.00002772 C36.9941686,5.99782532 37.3027295,6.1267441 37.6021321,6.42731977 C41.5780819,10.4179314 45.5614287,14.4012635 49.5518203,18.3773161 C49.8656647,18.6899852 50.0011591,19.0126344 49.9999925,19.4617367 C49.9863651,25.1342806 49.985778,30.8069419 49.9999925,36.4794858 C50.0010417,36.968978 49.8566239,37.3215673 49.5099039,37.6665249 C45.5445213,41.6126373 41.5891187,45.5688471 37.6419351,49.5335107 C37.3117703,49.8650832 36.9711557,50.0008119 36.5045572,49.999995 C30.8123845,49.9873095 25.1202117,49.9880139 19.428039,49.999995 C19.0010086,50.0009293 18.6926826,49.8701319 18.3948063,49.5712 C14.4042973,45.5674382 10.4073306,41.5702514 6.40367141,37.5796397 C6.11824089,37.2950322 5.99930172,36.9988007 6.00000308,36.5958415 C6.00998628,30.8647088 6.00986887,25.1333413 6.00000308,19.4020913 C6.00000308,18.999132 6.12117621,18.7007872 6.40566743,18.4171189 C10.4090918,14.4259201 14.4068804,10.4289682 18.397272,6.42461929 C18.6969094,6.12392621 19.0100494,5.99852979 19.4337922,6.00064322 C22.3092318,6.01438046 25.1845539,6.00780537 28.0599935,6.00780537" id="Fill-4"></path>
                            <path d="M29.0054996,27.624688 C29.0011322,26.6498404 29.1357385,25.8202141 29.6146997,25.0849534 C30.5619833,23.6312709 32.4385211,23.64099 33.3836771,25.0984019 C34.2112485,26.3745414 34.2044174,28.6913019 33.369119,29.9526367 C32.4022379,31.4128739 30.3857185,31.333539 29.5288069,29.7939669 C29.1361864,29.0885416 28.9663047,28.3227675 29.0054996,27.624688" id="Fill-6"></path>
                            <path d="M41.0001796,25.3930735 C41.0001796,25.056336 40.9997054,24.7195985 41.0002981,24.382861 C41.0023135,23.101472 41.0944276,22.9777656 42.0276609,23.0027091 C43.4938995,23.0419783 44.3141537,24.4499389 43.8871331,26.1942998 C43.5778336,27.4571497 42.0961834,28.3768577 41.2531674,27.8473135 C41.0208075,27.7015288 41.0049216,27.4463633 41.0036176,27.1608612 C41.0012465,26.5716548 41.0029063,25.9822799 41.0029063,25.3930735 L41.0001796,25.3930735 Z" id="Fill-8"></path>
                        </g>
                    </g>
                </g>
            </g>
        </g>
    </g>
</svg>