<?xml version="1.0" encoding="UTF-8"?>
<svg width="63px" height="57px" viewBox="0 0 63 57" version="1.1" xmlns="http://www.w3.org/2000/svg" xmlns:xlink="http://www.w3.org/1999/xlink">
    <!-- Generator: Sketch 55.2 (78181) - https://sketchapp.com -->
    <title>STOCK</title>
    <desc>Created with Sketch.</desc>
    <g id="Dashboards" stroke="none" stroke-width="1" fill="none" fill-rule="evenodd">
        <g id="Bitacora-+-SOP-Copy" transform="translate(-257.000000, -368.000000)">
            <g id="Group-3" transform="translate(170.000000, 71.000000)">
                <g id="Group-7" transform="translate(87.000000, 290.000000)">
                    <g id="Group-5">
                        <g id="STOCK" transform="translate(0.000000, 8.000000)">
                            <path d="M31.548907,55.9965995 C22.3128375,55.9963381 13.0768987,55.9960767 3.84095989,55.9965995 C3.22685187,55.9965995 2.62372641,55.9184424 2.04047415,55.7256636 C0.421069874,55.1903268 -0.309270212,53.8334255 0.121795177,52.1738289 C0.44002786,50.9493242 1.18762625,49.9377257 1.79807342,48.8632617 C3.54050849,45.7967068 5.33341103,42.7589052 7.07558462,39.6922195 C7.38610336,39.1453813 7.75258085,38.9558699 8.3734876,38.9565217 C22.6411375,38.9712922 36.9089181,38.9668485 51.176568,38.966195 C52.3964164,38.966195 53.616657,38.9846234 54.8359824,38.9616206 C55.3305897,38.9523411 55.6260728,39.1269529 55.8760567,39.5653123 C57.9793473,43.2532031 60.1059104,46.9277627 62.2254133,50.6065047 C62.6647156,51.3687324 63.0119736,52.1565768 63,53.0649243 C62.983079,54.2883834 62.3871445,55.1749045 61.2358064,55.6299931 C60.5171026,55.9141294 59.7663663,56.0005204 58.9953646,56 C49.8466326,55.9950311 40.6977698,55.9968609 31.548907,55.9965995" id="Fill-1" fill="#BFB903" fill-rule="evenodd"></path>
                            <path d="M31.8260497,37.3012579 C24.4821677,37.3012579 17.1384181,37.3026949 9.79453603,37.2959021 C9.49970044,37.2956408 9.10252631,37.4440372 8.932271,37.1516858 C8.76479591,36.8641677 9.0810789,36.5906272 9.22843051,36.3382487 C12.1675191,31.3055721 15.128055,26.2847828 18.0454314,21.2396962 C18.4453857,20.5480069 18.8867786,20.2868762 19.7048249,20.2898551 C27.8864795,20.3200564 36.0682666,20.3132636 44.2500536,20.2923627 C44.9264412,20.2906645 45.3263955,20.4974528 45.6678329,21.086597 C48.6333997,26.2032692 51.63127,31.302045 54.6143125,36.4089199 C55.1015128,37.2429967 55.0648404,37.3002129 54.121949,37.3003435 C46.6898943,37.3019111 39.257972,37.3012579 31.8260497,37.3012579" id="Fill-4" fill="#BFB903" fill-rule="evenodd"></path>
                            <path d="M28.8163856,18.6445248 C25.9335347,18.644661 23.0505551,18.6450697 20.1677042,18.6438436 C19.26075,18.643435 19.2173902,18.5758669 19.6526613,17.7781274 C22.4720807,12.6116199 25.2958747,7.4478369 28.1169668,2.28241922 C28.3869044,1.78805504 28.7056057,1.33660206 29.0968736,0.941410415 C30.3532799,-0.327262376 31.9135911,-0.315410713 33.1519844,0.987591031 C34.1120769,1.99770686 34.641273,3.31078933 35.3077537,4.52102117 C37.7361625,8.93092942 40.1318906,13.3609991 42.5358532,17.7858922 C42.6582129,18.0109376 42.918372,18.241432 42.7557404,18.5140202 C42.6192276,18.7431524 42.3212413,18.6462957 42.0935056,18.6465682 C38.9376292,18.6507912 35.7814954,18.6502463 32.6254903,18.65011" id="Stroke-8" stroke="#BFB903" stroke-width="2" stroke-linecap="round" stroke-linejoin="round" stroke-dasharray="3,5"></path>
                        </g>
                    </g>
                </g>
            </g>
        </g>
    </g>
</svg>