<?xml version="1.0" encoding="UTF-8"?>
<svg width="50px" height="60px" viewBox="0 0 50 60" version="1.1" xmlns="http://www.w3.org/2000/svg" xmlns:xlink="http://www.w3.org/1999/xlink">
    <!-- Generator: Sketch 55 (78076) - https://sketchapp.com -->
    <title>tiempo cola</title>
    <desc>Created with Sketch.</desc>
    <g id="Dashboards" stroke="none" stroke-width="1" fill="none" fill-rule="evenodd">
        <g id="Inicio" transform="translate(-106.000000, -172.000000)" fill="#111111">
            <g id="tiempo-cola" transform="translate(106.000000, 172.000000)">
                <path d="M46.0594383,35.0049734 C46.1478907,23.8004496 37.0820573,13.8337829 24.8706288,13.9186638 C12.6564621,14.0036638 4.03896209,23.9400924 3.92681923,34.8633067 C3.81062876,46.1879496 12.8583669,56.1902115 25.0427716,56.1619972 C37.2292002,56.1337829 46.1327716,46.1729496 46.0594383,35.0049734 M25.0286049,0.00306860211 C27.0122954,0.00283050687 28.9959859,-0.00335996932 30.9795573,0.0048543164 C32.7005097,0.0119971735 33.9509859,1.25009241 33.9407478,2.91759241 C33.9305097,4.56925908 32.6545573,5.78961622 30.9334859,5.79140194 C29.9614621,5.79247336 28.9893192,5.80402098 28.0177716,5.7833067 C27.601343,5.77437813 27.3997954,5.88116384 27.411224,6.34604479 C27.4377716,7.41652098 27.4336049,8.4883067 27.4169383,9.55914003 C27.4107478,9.96366384 27.5670573,10.0946162 27.9649145,10.1453305 C33.8226526,10.8924734 38.8517002,13.3628305 42.9539621,17.59914 C46.8094383,21.5804496 49.2167002,26.3402115 49.7850335,31.8769972 C50.8356288,42.1130686 47.0125335,50.1758067 38.5430097,55.9735448 C34.723724,58.5880686 30.4132478,59.8458067 25.7744383,59.9618781 C18.1943192,60.1514019 11.8083669,57.4255686 6.64300971,51.9435448 C2.991224,48.0677115 0.836462092,43.4155686 0.201223996,38.1030686 C-0.648061718,31.0005686 1.19181923,24.6369972 5.70574781,19.1172353 C9.73420019,14.1910448 14.9742002,11.2612829 21.2675335,10.2499734 C22.5809859,10.0389019 22.5840811,10.0575924 22.5843192,8.72604479 C22.5844383,7.97235432 22.5575335,7.21723527 22.5933669,6.46521146 C22.6177716,5.95283051 22.4631288,5.75842574 21.9253907,5.77961622 C20.9351526,5.81866384 19.9420573,5.80271146 18.9503907,5.78771146 C17.288843,5.76235432 16.0365811,4.48140194 16.0678907,2.85842574 C16.0993192,1.22140194 17.3086049,0.015925745 18.958724,0.00616384021 C20.9819383,-0.0057409217 23.0053907,0.00330669735 25.0286049,0.00306860211" id="Fill-1"></path>
                <path d="M49.4375216,16.6749615 C49.4441883,17.9301996 49.2266883,18.9906757 48.7632359,19.996271 C48.6600216,20.2201996 48.6231169,20.561271 48.3279978,20.5771043 C48.0700216,20.5911519 47.9907359,20.2742472 47.8646645,20.0842472 C45.766093,16.9193662 43.1545454,14.2653186 39.9746645,12.1844853 C39.2294264,11.6968662 38.4376407,11.2805567 37.6669264,10.8318662 C37.1170454,10.5117472 37.115974,10.4866281 37.6443073,10.1581757 C42.2124026,7.31948527 48.3414502,10.0454376 49.3104978,15.3456757 C49.3999026,15.8347234 49.4720454,16.3240091 49.4375216,16.6749615" id="Fill-4"></path>
                <path d="M0.820354949,16.9195686 C0.914640663,10.7614734 7.30583114,7.10837813 12.5292835,10.0915924 C12.7114264,10.19564 12.9840454,10.2623067 12.9936883,10.5034972 C13.002974,10.7367115 12.7271407,10.76564 12.5616645,10.8532591 C8.52237876,12.9946876 5.21916447,15.9532591 2.66749781,19.7484972 C2.54571209,19.9294496 2.427974,20.11314 2.30487876,20.2932591 C1.97106923,20.7817115 1.91464066,20.7819496 1.65654542,20.2793305 C1.09285495,19.1815924 0.878093044,17.9996876 0.820354949,16.9195686" id="Fill-6"></path>
                <path d="M25.082343,50.4103662 C17.1940097,50.3382234 10.7191288,44.6294138 9.72639066,37.0570329 C9.55662876,35.7613186 9.56615257,35.7609615 8.27186685,35.7556043 C7.91484304,35.7541757 7.55662876,35.7634615 7.20127162,35.7361996 C6.35877162,35.6715567 6.14984304,35.244771 6.62615257,34.5579853 C7.48508114,33.3194138 8.35460495,32.0883424 9.21924781,30.8538186 C9.60603352,30.3014376 9.98281923,29.7417948 10.3804383,29.1975091 C10.7518669,28.6892948 11.1565097,28.6842948 11.5237716,29.2026281 C12.784843,30.9825091 14.0380573,32.7679853 15.279724,34.5614376 C15.7187716,35.1954853 15.4756764,35.68489 14.7004383,35.7336996 C14.1074621,35.7710805 13.5106764,35.7639376 12.9160335,35.7536996 C12.5192478,35.7466757 12.4017478,35.9195329 12.4285335,36.3002472 C12.7979383,41.5616757 17.3049621,46.4417948 22.5336526,47.3876281 C29.8267478,48.7067948 36.1978192,43.5775091 37.2890097,37.1201281 C37.3549621,36.72989 37.3832954,36.3319138 37.4694859,35.9464376 C37.6265097,35.2444138 38.1611526,34.8134615 38.8131764,34.8241757 C39.4641288,34.83489 39.9890097,35.2867948 40.1392478,35.9784615 C40.2334145,36.4126281 40.1794859,36.85239 40.1179383,37.2810805 C39.2257954,43.5078662 34.1640097,48.8354853 27.9905573,50.0677472 C26.9765097,50.2702472 25.9530573,50.3664376 25.082343,50.4103662" id="Fill-8"></path>
                <path d="M27.1123788,21.4766757 C27.1215454,20.6306043 27.8732121,19.9695329 28.7172597,20.1571519 C30.6984502,20.5976281 32.4796407,21.4883424 34.0720216,22.7386996 C34.668093,23.2067948 34.7203549,23.9629853 34.277974,24.5396519 C33.7873788,25.1790567 33.1114264,25.334771 32.4609502,24.8940567 C31.1399978,23.9989376 29.7397597,23.2913186 28.1932121,22.8700091 C27.4995216,22.6810805 27.1053549,22.1195329 27.1123788,21.4766757" id="Fill-10"></path>
                <path d="M36.7177954,26.1910329 C37.2412478,26.17139 37.6438669,26.3979376 37.9223192,26.826271 C38.719224,28.0522234 39.2589859,29.3949615 39.6281526,30.8016281 C39.8208907,31.5357948 39.3351764,32.2592472 38.5732716,32.4998424 C37.8989859,32.7126996 37.2410097,32.4004376 36.9873192,31.626271 C36.5847002,30.3978186 36.0852954,29.2176996 35.5357716,28.048771 C35.1156526,27.1549615 35.764343,26.2053186 36.7177954,26.1910329" id="Fill-12"></path>
                <path d="M24.5632002,21.1804615 C24.5555811,21.8154615 24.2195097,22.3026043 23.585343,22.4256996 C22.3180811,22.6715329 21.0870097,23.0212948 19.872843,23.4597472 C19.137724,23.7252234 18.3815335,23.3047472 18.145343,22.6035567 C17.9136764,21.9158186 18.2348669,21.2265329 18.9645097,20.9133186 C20.2633192,20.3558186 21.6197478,19.9929615 23.0183192,19.7989138 C23.895343,19.6772472 24.5739145,20.2983186 24.5632002,21.1804615" id="Fill-14"></path>
            </g>
        </g>
    </g>
</svg>