<?xml version="1.0" encoding="UTF-8"?>
<svg width="27px" height="21px" viewBox="0 0 27 21" version="1.1" xmlns="http://www.w3.org/2000/svg" xmlns:xlink="http://www.w3.org/1999/xlink">
    <!-- Generator: Sketch 55 (78076) - https://sketchapp.com -->
    <title>truck clock</title>
    <desc>Created with Sketch.</desc>
    <g id="Dashboards" stroke="none" stroke-width="1" fill="none" fill-rule="evenodd">
        <g id="Inicio" transform="translate(-91.000000, -407.000000)" fill="#6E6E6E">
            <g id="truck-clock" transform="translate(91.000000, 407.000000)">
                <path d="M10.1336581,14.3785681 C7.93735689,14.3785681 5.74105571,14.3791485 3.54470138,14.3780932 C3.10892776,14.3778822 3.07363642,14.3420028 3.07326437,13.9123997 C3.07225453,12.831058 3.07172303,11.7496636 3.07353012,10.6682163 C3.07427421,10.2261083 3.20066398,10.1200003 3.63723484,10.182842 C6.84778996,10.6451058 9.75640217,8.49619372 10.2357053,5.29717613 C10.3164927,4.75766608 10.3079356,4.21145503 10.2240656,3.66941231 C10.1709159,3.32602538 10.2962959,3.16694246 10.6478274,3.16646759 C12.7113077,3.16361834 14.774788,3.16462085 16.8382683,3.1674701 C17.1305911,3.16789221 17.1894809,3.24434698 17.1896935,3.59427663 C17.1908628,5.89773392 17.1910754,8.20119121 17.1911817,10.5046485 C17.1912348,11.6475656 17.1910754,12.7905354 17.1897998,13.9334525 C17.1893746,14.3287063 17.1428687,14.3762465 16.748977,14.3764048 C14.5439061,14.377249 12.3387821,14.3768269 10.1336581,14.3768269 L10.1336581,14.3785681 Z" id="Fill-1"></path>
                <path d="M21.8127898,10.8814191 L21.8127898,10.8842683 C22.4320358,10.8842683 23.0513882,10.8865899 23.6706343,10.8834241 C24.0250358,10.8815774 24.0911539,10.7842809 23.9500417,10.4701779 C23.3988803,9.24347186 22.8422445,8.0191402 22.2942189,6.79111508 C22.2059906,6.59346181 22.071522,6.51769296 21.8605713,6.51975075 C21.2236264,6.52602965 20.5865752,6.52861508 19.9496835,6.5201201 C19.7063114,6.51690151 19.6211126,6.61994925 19.6218567,6.85205729 C19.6258429,8.08161256 19.6262681,9.3112206 19.6178173,10.5407231 C19.6161165,10.786497 19.6984453,10.8896503 19.9550516,10.885007 C20.574085,10.8738739 21.1935437,10.8814191 21.8127898,10.8814191 L21.8127898,10.8814191 Z M10.9021323,15.6190824 C13.328465,15.6190824 15.7547445,15.6195573 18.181024,15.6186075 C18.5475437,15.6184492 18.5516894,15.6154945 18.5518488,15.2582834 C18.5534965,12.2342834 18.5536028,9.21028342 18.554028,6.18628342 C18.5540811,5.65985879 18.6574039,5.55670553 19.1940024,5.55633618 C20.3097189,5.55554472 21.4255417,5.5646201 22.5410457,5.55121809 C22.8963508,5.54699698 23.1050161,5.67035879 23.258778,6.00018543 C24.0020752,7.59523568 24.7667917,9.1804191 25.5276815,10.7673437 C25.6023567,10.923208 25.6312701,11.0806025 25.6309512,11.2508714 C25.6286126,12.5430573 25.6290378,13.835296 25.6298882,15.1275874 C25.6302071,15.5552382 25.6942524,15.6177633 26.1202465,15.6200322 C26.8816146,15.624095 26.9531008,15.6948513 26.9538449,16.4499543 C26.9543232,16.9686226 26.9565024,17.487291 26.9522504,18.0059593 C26.9485831,18.4568261 26.8202268,18.5805573 26.3593134,18.5849894 C26.0405752,18.5881025 25.7216776,18.5904241 25.4030457,18.5834065 C25.0236106,18.5750171 24.9520713,18.5180849 24.8283921,18.1647784 C24.3944256,16.9246176 23.2041933,16.0972281 21.8974039,16.1271452 C20.6379177,16.1560598 19.5439925,16.9403412 19.102213,18.1312734 C18.9581244,18.5196678 18.8613921,18.5881025 18.4370457,18.5881025 C16.161339,18.5878915 13.8856323,18.5871 11.6099256,18.5854643 C11.1037287,18.585095 11.0646106,18.556497 10.8971894,18.0981377 C10.4680594,16.9235623 9.3007878,16.1224492 8.02360276,16.1260372 C6.78314409,16.1296251 5.62942559,16.9373337 5.20577008,18.0989291 C5.04812835,18.5312231 4.96532126,18.5886829 4.51115787,18.5871528 C4.14814606,18.5859392 3.78460276,18.5758085 3.42217559,18.5901603 C3.16514409,18.6003437 3.06097087,18.5227809 3.06798661,18.2476704 C3.08579173,17.5448563 3.07340787,16.8413035 3.07415197,16.1380146 C3.07457717,15.739806 3.19464213,15.6199794 3.59687835,15.6198739 C5.82831142,15.6194518 8.05969134,15.6199266 10.2911244,15.6200849 C10.4947937,15.6201377 10.698463,15.6201377 10.9021323,15.6201377 L10.9021323,15.6190824 Z" id="Fill-3"></path>
                <path d="M4.54664587,1.43986658 C2.82236634,1.43495955 1.40619508,2.80613291 1.39992343,4.48655503 C1.39359862,6.19093191 2.77835846,7.5875902 4.48318524,7.5961907 C6.20018327,7.60489673 7.59530728,6.22865804 7.59775217,4.52375352 C7.60019705,2.78893191 6.2702876,1.44477362 4.54664587,1.43986658 M9.01243524,4.50871583 C9.01663406,6.92735653 7.00869508,8.99606759 4.65193524,9.00118568 C2.04096083,9.00683141 0.00596870079,7.04660276 1.59448819e-05,4.52011281 C-0.0057242126,2.08231884 2.0242187,0.0550273869 4.47324626,0.0527585427 C7.0266065,0.0504369347 9.00807697,1.99557513 9.01243524,4.50871583" id="Fill-6"></path>
                <path d="M8.04301831,17.2488882 C9.09575256,17.2418178 9.93509114,18.0688907 9.93413445,19.1122952 C9.93312461,20.131956 9.08623878,20.9730113 8.05853799,20.9749636 C7.02966791,20.9769686 6.17130177,20.1410842 6.16237264,19.128441 C6.15328406,18.0948505 6.99272894,17.2559058 8.04301831,17.2488882" id="Fill-9"></path>
                <path d="M21.9247494,17.2483711 C22.9655781,17.2451525 23.7893439,18.0550771 23.804651,19.0966877 C23.8194797,20.1067455 22.9668537,20.9676399 21.9445742,20.9749214 C20.8994404,20.9823611 20.0323577,20.1397756 20.0333144,19.1177932 C20.0343774,18.0809842 20.8735565,17.2516425 21.9247494,17.2483711" id="Fill-11"></path>
                <path d="M3.82118031,3.52941935 C3.82118031,3.21299472 3.81501496,2.89646457 3.8226685,2.58025101 C3.83319213,2.14531884 4.12546181,1.84693945 4.52907992,1.84604246 C4.93944803,1.84514548 5.23208976,2.1560299 5.23511929,2.60030126 C5.23756417,2.96062538 5.24186929,3.32110779 5.23389685,3.68122085 C5.22927283,3.89143191 5.3154815,4.01162789 5.52329646,4.05494698 C5.70496181,4.09288417 5.88641457,4.13451482 6.0645189,4.18622337 C6.45118228,4.29845201 6.71820591,4.68193945 6.63417638,4.99308769 C6.53085354,5.37567814 6.12994606,5.62825854 5.72494606,5.54167312 C5.27556614,5.4455902 4.82857795,5.33573593 4.38531024,5.21469573 C4.01103071,5.11243945 3.82468819,4.84540176 3.82245591,4.45220578 C3.82070197,4.14464548 3.82213701,3.83703241 3.82213701,3.52941935 L3.82118031,3.52941935 Z" id="Fill-13"></path>
            </g>
        </g>
    </g>
</svg>