<?xml version="1.0" encoding="UTF-8"?>
<svg width="51px" height="34px" viewBox="0 0 51 34" version="1.1" xmlns="http://www.w3.org/2000/svg" xmlns:xlink="http://www.w3.org/1999/xlink">
    <!-- Generator: Sketch 55 (78076) - https://sketchapp.com -->
    <title>truck-01</title>
    <desc>Created with Sketch.</desc>
    <g id="Dashboards" stroke="none" stroke-width="1" fill="none" fill-rule="evenodd">
        <g id="Inicio" transform="translate(-131.000000, -286.000000)" fill="#6E6E6E">
            <g id="truck-01" transform="translate(131.000000, 286.000000)">
                <path d="M15.9866757,18.999197 C10.8970581,18.9989701 5.80744054,18.9993104 0.717822979,18.9986299 C0.0364494667,18.9985165 0.00255405841,18.9685753 0.00233747433,18.2755049 C0.000388217621,13.0208267 -0.00231908336,7.76614852 0.0036369788,2.51147034 C0.00536965143,0.944888497 0.910149641,0.00480329678 2.40230565,0.00423622886 C11.4806439,0.00049358058 20.5588739,-0.00120762318 29.6369955,0.000947234917 C31.0961225,0.00128747567 31.9955961,0.957590818 31.9961376,2.48549863 C31.9980869,7.62687664 32.0016605,12.7681412 31.9973288,17.9094058 C31.9963542,19.0810816 32.1115769,18.9964751 30.9306522,18.9973824 C25.9493267,19.0018055 20.9680012,18.9993104 15.9866757,18.999197" id="Fill-1"></path>
                <path d="M36.9358681,19.6840931 C36.9358681,19.9317097 36.9171897,20.1811377 36.9403729,20.4267299 C36.9727855,20.7699198 37.178688,20.9894079 37.5411598,20.9976121 C37.9023132,21.0057097 38.1442541,20.7984746 38.1686459,20.457096 C38.2039153,19.9641002 38.206772,19.4654574 38.1726014,18.9726746 C38.1490885,18.6341729 37.9103339,18.4223562 37.5475325,18.4288556 C37.1849508,18.4351419 36.9774002,18.6517532 36.9412519,18.9945169 C36.9171897,19.2222091 36.9367471,19.4541633 36.9358681,19.6840931 L36.9358681,19.6840931 Z M42.2575788,15.5811575 C43.8315131,15.5811575 45.4054474,15.5841408 46.9792717,15.577748 C47.2039625,15.5767891 47.4866664,15.6637319 47.6102738,15.3866016 C47.7178397,15.1455909 47.5049054,14.9902444 47.373497,14.8303165 C45.8900982,13.0269981 44.4008763,11.2280482 42.9161591,9.42579525 C42.6620223,9.11744645 42.3433898,8.94025777 41.9364193,8.90626908 C40.4763137,8.78427206 39.012912,8.8761161 37.5515978,8.84138158 C37.0952942,8.83051372 36.9112565,9.02570895 36.9164205,9.48780596 C36.9369668,11.3156303 36.941142,13.1439874 36.9148823,14.9715986 C36.9075208,15.4808962 37.1062815,15.5977789 37.5908225,15.5902141 C39.1460783,15.5659212 40.7018835,15.5811575 42.2575788,15.5811575 L42.2575788,15.5811575 Z M34.0087349,16.9995194 C34.0087349,13.5744397 34.0080757,10.1493601 34.0092843,6.72428047 C34.0095041,6.01936145 34.0178544,6.00998526 34.7436771,6.00902634 C37.2873526,6.00582991 39.8312479,6.01488645 42.3748136,6.00007634 C43.4159725,5.99400312 44.2256284,6.35008525 44.8959651,7.15004474 C46.6149321,9.20140597 48.3733435,11.2218684 50.134282,13.2395606 C50.7170497,13.9072945 51.0468892,14.6264909 50.9945896,15.5198926 C50.9512995,16.2628491 50.9592104,17.0113461 50.9944797,17.755155 C51.019311,18.2781973 50.8050582,18.43983 50.2900823,18.4164961 C49.5962327,18.384958 48.8994166,18.4006205 48.2042486,18.4122342 C47.3304266,18.4269378 46.7921576,18.929949 46.7919379,19.7104103 C46.791828,20.4737174 47.3600924,21.00539 48.2079843,21.0167906 C48.9581988,21.0269126 49.7088528,21.0305353 50.4588476,21.0167906 C50.8285711,21.009865 50.9910736,21.1430495 50.9883268,21.5120239 C50.9782184,22.9671447 51.0103014,24.4230113 50.9737136,25.8773863 C50.9458058,26.9854815 50.0619854,27.851607 48.938092,27.9778659 C48.5438668,28.0220832 48.3023654,27.9389761 48.1797468,27.5049011 C47.4516168,24.929219 45.1955895,23.2140155 42.5792877,23.2102864 C39.8691542,23.2062376 37.6021395,24.8949107 36.8609346,27.502557 C36.7589722,27.861516 36.6042707,28.0079124 36.2263067,27.9944874 C35.696388,27.9755219 35.1640521,27.9723255 34.6346828,27.9980034 C34.161239,28.0209112 33.996539,27.8486237 34.000055,27.3811993 C34.018184,24.9677893 34.0070868,22.5541662 34.0064276,20.1406496 C34.006098,19.0936062 34.0064276,18.0465628 34.0064276,16.9995194 L34.0087349,16.9995194 Z" id="Fill-4"></path>
                <path d="M23.8439536,28.9777749 C21.3759531,28.9783474 18.9077364,28.9668978 16.439844,28.9880794 C15.9498336,28.9922013 15.7151,28.8510289 15.5748653,28.3142761 C14.8778006,25.6475721 12.6392357,23.8520608 10.0724114,23.8408403 C7.52548163,23.8295053 5.2958909,25.5777301 4.56390267,28.225428 C4.40301663,28.8072918 4.1709861,29.0544866 3.59415342,28.9900258 C3.13063296,28.9382741 2.65673275,29.0004449 2.19029299,28.9673558 C0.836601314,28.87118 0.00146437541,27.8710658 0.0109791412,26.2954995 C0.0126009762,26.0244897 0.138131011,25.8663721 0.405950042,25.8603039 C0.568025427,25.85664 0.730425178,25.8601894 0.892176196,25.8502283 C1.54004525,25.810155 2.05849186,25.2980187 2.12477085,24.6372678 C2.19710469,23.9160635 1.80375563,23.3138196 1.14334439,23.1371538 C1.05619778,23.1139113 0.967429343,23.0953631 0.878552781,23.0808222 C0.0127090986,22.9390773 0.0107628965,22.9394208 0.00232935412,21.9794944 C-0.00145492771,21.5407494 0.0198451729,21.1012029 0.00146437541,20.6633739 C-0.0189707465,20.1723046 0.173487015,19.9950663 0.640683638,20.0001041 C2.38794062,20.0188813 4.13552197,20.0034244 5.8829952,20.0035389 C14.3141589,20.0044549 22.7452144,20.0061723 31.17627,20.0075463 C31.9959454,20.0076608 31.9984322,20.0076608 31.9988647,20.8493138 C32.0002703,23.3101558 32.0005947,25.7711122 31.9985403,28.2319542 C31.9978916,28.9488076 31.9718341,28.9760575 31.3022325,28.9765154 C28.8161756,28.9784618 26.3301187,28.9773169 23.8439536,28.9777749" id="Fill-6"></path>
                <path d="M10.682762,29.4969677 C10.68594,28.8279525 10.1717475,28.3002879 9.50840409,28.2917915 C8.86073193,28.283626 8.32363526,28.8211112 8.31793663,29.483285 C8.3121284,30.1568243 8.81678666,30.7030266 9.46358211,30.7231092 C10.1283502,30.7439642 10.6794743,30.1897068 10.682762,29.4969677 M9.45897937,33.9999924 C7.02061969,33.9955787 5.01908256,31.9761747 5.00012363,29.5011607 C4.98160305,27.0765739 7.04659233,24.9942739 9.46402047,25.0000118 C11.9707638,25.0058601 13.9850133,26.9945884 13.9999174,29.4785402 C14.0149311,31.979154 11.9809556,34.0045165 9.45897937,33.9999924" id="Fill-8"></path>
                <path d="M43.6767291,29.5079504 C43.677387,28.814456 43.1454534,28.2770199 42.4733815,28.2920192 C41.8520796,28.3058052 41.3031495,28.8764382 41.305233,29.506627 C41.307426,30.1535796 41.8377148,30.7061252 42.471627,30.7222274 C43.1378873,30.7389912 43.6760712,30.1967024 43.6767291,29.5079504 M42.477658,33.9998927 C40.0317065,33.9830186 38.0086921,31.9778625 38.0000295,29.561661 C37.9910378,26.9997682 40.0421237,24.9815981 42.6362183,25.0001266 C45.0091399,25.0170007 47.022724,27.1176667 46.9998063,29.5523967 C46.9764499,32.0144783 44.9403866,34.0168772 42.477658,33.9998927" id="Fill-10"></path>
            </g>
        </g>
    </g>
</svg>