<?xml version="1.0" encoding="UTF-8"?>
<svg width="79px" height="50px" viewBox="0 0 79 50" version="1.1" xmlns="http://www.w3.org/2000/svg" xmlns:xlink="http://www.w3.org/1999/xlink">
    <!-- Generator: Sketch 55.1 (78136) - https://sketchapp.com -->
    <title>wood copy</title>
    <desc>Created with Sketch.</desc>
    <g id="Dashboards" stroke="none" stroke-width="1" fill="none" fill-rule="evenodd">
        <g id="Bitacora" transform="translate(-594.000000, -229.000000)" fill="#111111">
            <g id="Group-2" transform="translate(80.000000, 198.000000)">
                <g id="wood" transform="translate(514.000000, 31.000000)">
                    <path d="M33.9498396,34.2966358 C33.1859166,34.2966358 32.6119768,34.2909259 32.0381906,34.2994136 C31.8092285,34.3028086 31.6353585,34.3298148 31.8007882,34.6579012 C32.3787179,35.8046605 32.6936175,35.8558951 33.4827079,34.8884568 C33.5927386,34.7532716 33.6989328,34.6148457 33.9498396,34.2966358 M33.9341867,47.3190123 C33.5726353,46.8293519 33.3223424,46.4855247 33.0663714,46.1461728 C32.9297921,45.965 32.7540806,45.6957099 32.5401576,45.9832099 C32.2488909,46.3750309 31.7967983,46.6756481 31.7539715,47.2211728 C31.7521415,47.2446296 31.9717425,47.3123765 32.0891392,47.3143827 C32.6423619,47.3245679 33.1960449,47.3190123 33.9341867,47.3190123 M17.0206124,47.3412346 C17.3533133,47.2079012 17.7885254,47.5291975 18.0311454,47.0957099 C18.0988211,46.9745679 17.1222028,45.8501852 16.9903809,45.8588272 C16.8754395,45.8663889 15.9709473,46.9733333 16.0251186,47.0802778 C16.2568429,47.5376852 16.6925153,47.2174691 17.0206124,47.3412346 M10.598006,24.9808951 C10.5932547,28.6034259 13.4210589,31.4707099 16.9934501,31.4650085 C20.6540806,31.4592901 23.4516532,28.6543519 23.4642764,24.9773457 C23.4765137,21.3839815 20.6290667,18.5324383 17.0287458,18.5324383 C13.4253557,18.5324383 10.6029227,21.3626852 10.598006,24.9808951 M31.308796,9.20975309 C31.2599958,5.50944444 28.4383301,2.68598765 24.8288016,2.72549383 C21.1552804,2.7657716 18.40881,5.67256173 18.450858,9.47564815 C18.4892229,12.9355247 21.4572893,15.735216 25.0503976,15.7006481 C28.4857492,15.6674691 31.3546805,12.6918519 31.308796,9.20975309 M2.75698242,40.7450926 C2.67518834,44.298642 5.51634347,47.2339815 9.10883789,47.307284 C12.4794294,47.3758025 15.5397252,44.4595988 15.620445,41.1025 C15.7088379,37.4210185 12.9861537,34.3930864 9.50507115,34.3017284 C5.69850028,34.2018827 2.8449149,36.9267284 2.75698242,40.7450926 M31.3141676,40.8376852 C31.3155483,37.2092901 28.4932687,34.3011111 24.9670689,34.2974032 C21.2531878,34.2933951 18.4427246,37.135679 18.4405751,40.897716 C18.4385812,44.3785802 21.3352888,47.2637654 24.8756069,47.3074383 C28.3982771,47.3508025 31.312786,44.4220988 31.3141676,40.8376852 M32.7032854,31.4616049 C36.4024344,31.4278086 39.2406738,28.5719444 39.2224997,24.9015741 C39.2049177,21.3381481 36.2399205,18.4933951 32.5855818,18.5338272 C29.0762626,18.572716 26.2507603,21.4964815 26.2796108,25.0591358 C26.3084612,28.6180864 29.1933524,31.4935494 32.7032854,31.4616049 M47.0699151,40.8299691 C47.0803223,37.2640741 44.1837681,34.3034259 40.6772112,34.2956934 C37.0429757,34.2876852 34.1128139,37.2049691 34.1157275,40.8282716 C34.1184919,44.3389198 37.0908552,47.3117593 40.5949568,47.3083671 C44.119315,47.3051235 47.0596052,44.3633025 47.0699151,40.8299691 M31.7113211,15.5528086 C31.8649344,15.7603704 32.0596749,15.7031173 32.2278669,15.7031173 C38.5688267,15.7052778 44.9097866,15.7157716 51.2505929,15.6921605 C52.7865723,15.6864506 54.1480678,15.1183951 55.3031599,14.0893827 C55.5026576,13.9114506 55.869887,13.7538889 55.7552525,13.447716 C55.638623,13.1366049 55.2580427,13.2734877 54.9933245,13.2730247 C51.7717425,13.2671605 48.5503139,13.2714815 45.3285784,13.2758025 C44.917613,13.2762654 44.5061872,13.2671605 44.1148647,13.1341358 C43.5206682,12.9321296 43.166483,12.4998765 43.1620326,11.8724074 C43.1575823,11.2176235 43.4987235,10.7383025 44.1335868,10.5458642 C44.4202497,10.4589815 44.7386789,10.4526543 45.0426828,10.4523457 C48.5200823,10.4483333 51.9973284,10.452963 55.4748814,10.4546605 C57.6299177,10.4557407 57.8714634,10.1457099 57.4123117,7.97194444 C56.7419992,4.79910494 54.1806013,2.71469136 50.8529785,2.68274691 C48.1685059,2.65697531 45.4837263,2.67796296 42.7989467,2.67765432 C39.3471749,2.67734568 35.8952497,2.67364198 32.443478,2.68166667 C32.2039272,2.68212963 31.8566476,2.54200617 31.7455427,2.81669753 C31.6453334,3.06438272 31.9703613,3.24169753 32.1060198,3.45018519 C32.3156459,3.77271605 32.594329,4.06237654 32.743185,4.40944444 C33.0192592,5.05280864 33.4639858,5.21854938 34.1353725,5.21515432 C39.4535226,5.18891975 44.7719796,5.19756173 50.0902832,5.19740741 C50.4481515,5.19740741 50.8083217,5.18753086 51.1631208,5.2245679 C51.8764021,5.29925926 52.3751465,5.8017284 52.4251744,6.45666667 C52.4779646,7.15018519 52.0306292,7.75651235 51.3179618,7.90805556 C50.9949289,7.9767284 50.6586984,8.00990741 50.3282994,8.01083333 C48.1293736,8.01808642 45.9306013,8.01037037 43.731829,8.01114198 C40.8171666,8.01253086 37.9023507,8.02070988 34.9876883,8.01746914 C34.4646973,8.01700617 34.081815,8.10790123 34.1094378,8.7716358 C34.2127162,11.248642 33.4354422,13.4230247 31.8419155,15.3088272 C31.7809919,15.3807407 31.7501465,15.4784259 31.7113211,15.5528086 M47.3903111,47.1955556 C47.5037179,47.3663889 47.671603,47.3137654 47.8160086,47.3137654 C54.8961844,47.3171605 61.9762068,47.3242593 69.0563825,47.3137654 C70.797998,47.311142 72.3878418,46.8267284 73.6997698,45.6140741 C73.9003418,45.4288889 74.2626604,45.2558951 74.1736537,44.9714815 C74.0719099,44.6466358 73.6813546,44.8041975 73.4218541,44.8035802 C69.6645438,44.7937037 65.9072335,44.7975617 62.1500767,44.7960185 C61.8947196,44.7958642 61.6358329,44.8041975 61.3847726,44.7666975 C60.6911342,44.6629938 60.2012905,44.1259568 60.176123,43.4720988 C60.1512626,42.8234877 60.5987514,42.210679 61.2793457,42.0944753 C61.8291922,42.0006481 62.3976074,41.9896914 62.9578892,41.9881481 C66.9194545,41.977963 70.8810198,41.9699383 74.8425851,41.9872222 C75.5245605,41.9901543 75.7880511,41.7454012 75.8222726,41.0514198 C76.0048898,37.3492593 73.1675711,34.3165432 69.3830985,34.3015741 C62.3032296,34.2739506 55.2230539,34.2929321 48.1430315,34.298179 C47.9268066,34.2983333 47.6269461,34.1893827 47.5182966,34.4458642 C47.4130232,34.6940123 47.6944685,34.8421605 47.8293597,35.0157716 C50.5149065,38.473642 50.5046247,43.1325926 47.8069545,46.5804321 C47.6550293,46.7744136 47.4216169,46.9219444 47.3903111,47.1955556 M51.206243,31.4725617 L51.206243,31.4691667 C54.6584752,31.4691667 58.1108608,31.4795062 61.5629395,31.4660802 C65.1304199,31.4523457 67.9752581,28.6021914 67.9778692,25.0648457 C67.9807826,21.3594444 65.2237235,18.556821 61.5538853,18.5381481 C60.3263602,18.531821 59.0989886,18.5315123 57.8714634,18.5312037 C52.0666922,18.5298148 46.2617676,18.527963 40.4566895,18.5325926 C40.2100795,18.5327469 39.879834,18.4330556 39.7374233,18.6640741 C39.572147,18.932284 39.8870466,19.1190123 40.0312988,19.3097531 C41.3487514,21.0512654 42.0078613,23.0017284 41.9529227,25.1987963 C41.9286761,26.1642284 41.9914411,26.2129938 42.9378278,26.2134568 C46.4667899,26.2156173 49.9959054,26.2066667 53.5248675,26.2117593 C54.1109305,26.2126852 54.7091169,26.1987963 55.2796805,26.3083642 C55.9501465,26.4372222 56.3482213,26.9095988 56.3453055,27.6251852 C56.3420829,28.335679 55.9470773,28.7921605 55.2821359,28.9537346 C54.8912737,29.048642 54.4707938,29.0429321 54.0636649,29.0433951 C50.4323451,29.0466358 46.7997977,29.0950926 43.1703195,29.011142 C41.7911761,28.9793519 40.6443708,29.089537 40.1083357,30.5782716 C40.0916085,30.6245679 40.0432687,30.6585185 40.0197893,30.7034259 C39.9083775,30.9170062 39.5661621,31.073642 39.7394182,31.3531173 C39.8669434,31.5588272 40.1651158,31.4696296 40.3891671,31.4699383 C43.9950126,31.4737963 47.6007045,31.4725617 51.206243,31.4725617 M78.5715053,39.3518827 L78.5715053,42.2839815 C78.2124093,43.594321 77.8089634,44.8821296 77.0327637,46.0234877 C75.5402134,48.2183951 73.4186314,49.4163889 70.8985142,50.0000309 L7.6730678,50.0000309 C6.23806501,49.6237963 4.8558524,49.1423148 3.64873744,48.2264198 C1.66020508,46.7173148 0.54961635,44.6785802 7.67299107e-05,42.2839815 L7.67299107e-05,39.3518827 C0.0428920201,39.2045062 0.0896972656,39.0580556 0.128062221,38.9094444 C1.24448242,34.5845988 4.05064872,32.0862963 8.43806501,31.5305864 C9.00755441,31.4585185 9.58563756,31.4548148 10.1514439,31.4199383 C10.1693987,31.0997222 9.97297015,30.9847531 9.85142997,30.8316667 C5.88127093,25.8282716 7.91323242,18.5025 13.8815918,16.2821296 C15.0515695,15.8469444 16.2560756,15.6957099 17.4918876,15.7017284 C17.6606934,15.7025 17.8870466,15.7674691 17.9754395,15.5694753 C18.061377,15.377037 17.864488,15.2497222 17.7658133,15.1088272 C17.6333775,14.9199383 17.4842146,14.7430864 17.3505511,14.5551235 C14.79744,10.9671605 15.1645159,6.06638889 18.1683384,2.85589506 C19.594594,1.33151235 21.3638323,0.508055556 23.3259696,3.08641975e-05 L52.6367955,3.08641975e-05 C52.9550711,0.0933950617 53.2741141,0.18382716 53.5913156,0.280432099 C56.3726214,1.12811728 58.3998256,2.87580247 59.5447893,5.55342593 C60.9626046,8.86932099 60.3938825,11.9791975 58.3657575,14.8816667 C58.2135254,15.0994136 57.8436872,15.2906173 58.0062012,15.5765741 C58.1496861,15.8290432 58.5242815,15.6974074 58.7952916,15.7012654 C59.7151297,15.7142284 60.6363491,15.6739506 61.5549595,15.7103704 C65.3931431,15.8622222 68.2709752,17.619321 69.9030204,21.1267284 C71.4993094,24.556821 70.9901297,27.827963 68.718464,30.8329012 C68.6006069,30.9887654 68.4000349,31.1012654 68.4181431,31.3583642 C68.7140137,31.564537 69.0542341,31.4571296 69.3731236,31.469784 C71.8135951,31.5668519 73.9631069,32.3662346 75.7602748,34.0704012 C77.2878139,35.518858 78.1366002,37.3211728 78.5715053,39.3518827" id="Fill-1"></path>
                    <path d="M55.3180134,24.1065915 C53.3431076,24.1070295 51.3682019,24.1077597 49.3932961,24.1061534 C49.1596515,24.1058613 48.9236672,24.109804 48.6925181,24.0829352 C47.8513661,23.9848056 47.3078069,23.4487435 47.3216883,22.7476718 C47.3355698,22.0543394 47.9047082,21.4865896 48.741493,21.4595748 C50.1171579,21.4151828 51.4953183,21.4316838 52.8725429,21.4310996 C55.757072,21.4300775 58.641601,21.4334361 61.5261301,21.4394231 C61.7845742,21.4398612 62.0534683,21.4359185 62.2995906,21.4972495 C62.9775969,21.6662018 63.3818739,22.1026741 63.3926359,22.7564333 C63.4033979,23.4134051 63.0211128,23.8650641 62.3250139,24.0170774 C62.0005941,24.0880461 61.6563659,24.1011885 61.3207162,24.1025027 C59.3199192,24.109804 57.3189663,24.1061534 55.3180134,24.1065915" id="Fill-4"></path>
                    <path d="M58.3929105,39.2826808 C56.7615981,39.283269 55.1302857,39.2903272 53.4991288,39.2806221 C52.4490725,39.2745932 51.7972008,38.7627228 51.7857143,37.9669047 C51.7752696,37.2084366 52.4006993,36.633483 53.4067375,36.6259836 C56.7983057,36.6002504 60.1903406,36.6018679 63.5819088,36.6248072 C64.5697487,36.6314244 65.1989115,37.2196121 65.178069,37.983374 C65.1569154,38.7559586 64.5243308,39.2694466 63.5195369,39.2779753 C61.8109207,39.2925329 60.1016823,39.2819455 58.3929105,39.2826808" id="Fill-6"></path>
                    <path d="M69.2279717,36.6075426 C69.9634681,36.6251152 70.560066,37.2504595 70.5349492,37.9774526 C70.5098325,38.7036883 69.8788883,39.3013102 69.1544372,39.2854039 C68.412586,39.2688917 67.8358092,38.6574843 67.8577485,37.9109492 C67.8799904,37.1636567 68.4830944,36.5898184 69.2279717,36.6075426" id="Fill-8"></path>
                    <path d="M56.7272609,44.6427791 C55.9992286,44.6507328 55.3743903,44.0493176 55.3575149,43.3243157 C55.3401914,42.5893717 55.9300842,41.9789323 56.6712584,41.9645546 C57.4207957,41.9501769 58.0097925,42.5139654 58.0350309,43.27017 C58.0590746,43.9907362 57.4452874,44.6348255 56.7272609,44.6427791" id="Fill-10"></path>
                    <path d="M41.0708511,12.0654119 C41.0467594,12.8153932 40.3765296,13.434423 39.6361196,13.3906715 C38.9371593,13.3494937 38.3499788,12.6699083 38.3953192,11.9545951 C38.4393129,11.2610819 39.0496873,10.6998827 39.7440088,10.7145675 C40.4666119,10.7300092 41.0931472,11.3679626 41.0708511,12.0654119" id="Fill-12"></path>
                    <path d="M36.6073731,40.5825372 C36.588769,38.840426 37.6991259,37.3368705 39.4015595,36.7995498 C41.1340699,36.2526503 42.9580505,36.8956411 44.0080991,38.4230673 C44.938461,39.7765561 44.8358282,41.7487087 43.7677956,43.0400118 C43.1501383,43.786392 42.3210139,43.9591131 41.6686288,43.4771361 C41.0309719,43.0061062 40.9576406,42.2550126 41.4704947,41.4475111 C41.9769924,40.6501964 41.9732715,40.1475415 41.4368522,39.6859383 C41.0005852,39.3102395 40.5086608,39.2430364 40.0094497,39.547579 C39.5241918,39.8436071 39.3201664,40.2810355 39.4392329,40.8461801 C39.5045024,41.1560442 39.7198453,41.3819805 39.8772053,41.6418223 C40.2654117,42.2829886 40.1638641,42.9968315 39.637212,43.4316751 C39.0866845,43.8862844 38.2998845,43.8586125 37.74021,43.318707 C36.9661229,42.5723269 36.5991563,41.6482081 36.6073731,40.5825372" id="Fill-14"></path>
                    <path d="M36.6065467,25.494605 C36.5684071,27.6622764 34.7477829,29.4556327 32.5761503,29.4642857 C30.4980062,29.47257 28.6806379,27.7722152 28.5747461,25.7204875 C28.5283895,24.8241943 28.9702509,24.2079831 29.7490123,24.0831087 C30.4930449,23.9636235 31.1297905,24.4728215 31.3190932,25.3370877 C31.3575429,25.5115423 31.3800236,25.6935417 31.4463803,25.857218 C31.694753,26.4698877 32.1849866,26.7082423 32.8133601,26.6075421 C33.3916559,26.5148487 33.7214241,26.1320648 33.7525869,25.5471107 C33.7863855,24.9131923 33.5195632,24.4538824 32.8770811,24.2664939 C32.7293289,24.2235346 32.571034,24.2167597 32.4209561,24.1798055 C31.551962,23.9660871 31.1077749,23.3548031 31.2425039,22.5641373 C31.3683957,21.8242835 32.0592499,21.3618942 32.9274689,21.4364185 C35.0049928,21.6147224 36.6429809,23.4214746 36.6065467,25.494605" id="Fill-16"></path>
                    <path d="M24.6113929,44.6428571 C22.4126271,44.6497866 20.637488,42.9504212 20.5391598,40.7442736 C20.4471406,38.6803834 22.2108927,36.7521088 24.319486,36.6110871 C25.1385797,36.556254 25.8264153,37.0786366 25.931668,37.8350256 C26.0313811,38.5526453 25.5254296,39.2086355 24.7371114,39.3785412 C24.6123162,39.4054172 24.4795193,39.3997022 24.3574939,39.4341467 C23.7165911,39.6154823 23.3242016,40.0118259 23.3786745,40.7135362 C23.4257613,41.3214895 23.7572149,41.7135081 24.3807295,41.8006234 C25.0564087,41.8948438 25.5555897,41.5436025 25.7487068,40.8506964 C25.7831756,40.7271286 25.7991789,40.5984637 25.8318011,40.4742781 C26.0604641,39.6020443 26.6536646,39.1717197 27.4490612,39.2982221 C28.1681341,39.4126768 28.6019168,40.0315967 28.5697562,40.8981155 C28.4945098,42.9365198 26.6978277,44.6361941 24.6113929,44.6428571" id="Fill-18"></path>
                    <path d="M9.39177747,44.6428571 C7.38523477,44.6490157 5.75464929,43.2707235 5.39886839,41.2675499 C5.22051588,40.2629507 5.62311817,39.499344 6.43063301,39.3111844 C7.26325274,39.1171545 7.87639724,39.5935783 8.14192377,40.6412781 C8.38111327,41.5853202 8.84516862,41.9424836 9.63697366,41.7901639 C10.1500066,41.6914497 10.457272,41.3597759 10.5536871,40.8682128 C10.657187,40.3406553 10.4591202,39.9077956 9.99937733,39.6133521 C9.75633739,39.4577882 9.47479301,39.42442 9.19910132,39.3612367 C8.38003515,39.1735406 7.89718963,38.5347557 8.00669622,37.8202745 C8.12282557,37.0625382 8.80004144,36.558771 9.63235313,36.6108316 C11.7282261,36.7416782 13.4784833,38.6737899 13.3896151,40.7582213 C13.2961264,42.9449201 11.5557263,44.6361937 9.39177747,44.6428571" id="Fill-20"></path>
                    <path d="M28.5713055,9.39508381 C28.5538936,11.5707371 26.8763378,13.2936774 24.6822792,13.3893276 C22.6025539,13.4798701 20.726841,11.816982 20.5436304,9.72041804 C20.4662782,8.83542227 20.9622874,8.13367852 21.7476738,8.01713395 C22.5003935,7.90538737 23.1101196,8.38781686 23.310434,9.27436036 C23.3672925,9.5261771 23.4004214,9.78062499 23.5517358,9.99916539 C23.8543646,10.4362462 24.2554555,10.6916227 24.7952257,10.5749234 C25.3183544,10.4616291 25.6499517,10.1251511 25.7280743,9.57570467 C25.8100491,8.99855371 25.5955586,8.5555915 25.0750495,8.30377477 C24.825581,8.18305131 24.5372824,8.14420313 24.2673203,8.06557811 C23.5397169,7.85369297 23.1122769,7.25626666 23.2027265,6.58006056 C23.2961038,5.88326956 23.8241633,5.41600789 24.576883,5.36446826 C26.6567625,5.22223127 28.5891797,7.17222457 28.5713055,9.39508381" id="Fill-22"></path>
                    <path d="M13.3938986,24.4632603 C13.4439186,22.326276 15.2190902,20.5672031 17.3570223,20.5361208 C19.4774089,20.5051924 21.3249172,22.2430309 21.4266502,24.3638585 C21.4625107,25.1138341 20.9929382,25.7591763 20.3049707,25.9055093 C19.6287002,26.0490725 18.9548922,25.6206909 18.7144884,24.8847177 C18.6590816,24.7151499 18.6341486,24.5357343 18.5949021,24.3607811 C18.4445343,23.6895883 18.0282139,23.3278335 17.3377839,23.3713795 C16.6890628,23.4123096 16.2925966,23.792683 16.2328804,24.4411026 C16.1696243,25.1278366 16.5126846,25.5605266 17.1827988,25.7270169 C17.3568684,25.7702551 17.5372483,25.7901047 17.7079319,25.8430369 C18.4529992,26.0741538 18.8948682,26.7296515 18.7725116,27.4083841 C18.6435369,28.122969 17.9734227,28.6122842 17.1835683,28.5687382 C15.0699536,28.4521027 13.3443403,26.5825492 13.3938986,24.4632603" id="Fill-24"></path>
                </g>
            </g>
        </g>
    </g>
</svg>